<mxfile host="65bd71144e">
    <diagram id="7y238nkyWYo6YOoNrOXe" name="tasks">
        <mxGraphModel dx="1441" dy="1595" grid="0" gridSize="10" guides="1" tooltips="1" connect="1" arrows="1" fold="1" page="1" pageScale="1" pageWidth="850" pageHeight="1100" math="0" shadow="0">
            <root>
                <mxCell id="0"/>
                <mxCell id="1" parent="0"/>
                <mxCell id="45" value="" style="shape=image;verticalLabelPosition=bottom;verticalAlign=top;imageAspect=0;aspect=fixed;image=data:image/png,iVBORw0KGgoAAAANSUhEUgAAAnIAAAFICAYAAADUJxPDAAAAAXNSR0IArs4c6QAAAARnQU1BAACxjwv8YQUAAAAJcEhZcwAADsQAAA7EAZUrDhsAAAAhdEVYdENyZWF0aW9uIFRpbWUAMjAyMzowNjoyMCAyMjoyMzo0NGqQE6wAANVSSURBVHhe7J0HgBVFtobPkHPOOUpOigKCigiKGDHnnHNYV3fd4Pp015xzFrOiqIiioqBEQckgOeechjgwr7+iG3o63DC3Z5hwvn395Pa9091VXeGvU6dOpWVaSAFi586dsmDBAilTpox9RlEURVEUJfdJS0uThg0b2p9yhgIl5BBxX3zxhcyZM8c+oyiKoiiKcujo06ePdO/e3f4UPQVGyO3Zs0c+/fRTWbJkiZx99tlSt25d+xtFURRFUZTc56uvvjLGpX79+knnzp2lSJEi9jfRUSCE3K5du+S9996T5cuXy+WXXy6NGjWyv1EURVEURTk07N2714i5adOmSd++faVLly72N9ERvTTMZXbs2CGff/65EXGXXnqpijhFURRFUfIERYsWlVNOOUXatWsn3333nYwaNcr+JjrytUUOS9zAgQNl6dKlctFFF0mDBg3sbxRFURRFUfIGWOY+++wzmTVrlpx00knStWtXsxAiCvKtkNu9e7e89dZbsmrVKrn66qulfv369jeKoiiKoih5D8TcjBkz5LTTTpMjjjjCPpsa+XJqdfv27fLRRx8ZEXfZZZepiFMURVEUJc9zxhlnSMeOHWXw4MEyevRo+2xq5DuLHCJu0KBBZnXqhRdeqD5xucSGXdtlzLqFMm3zCpmxeZVs2bNTiqUVldqly8vhletL+0p15Miq0U5tj1+/2Nzr9w1LZOWOLZKRuU8qFi8trSvWknbWcUyNZtbnUvavU2fp9k3mnpM3Lpd5W9fK1oxdUrpocWlQtpJ0rFRPjqhS39w7Knbty5Cx6xbJjE0rZZJ1z3W7tgmVsWqJMtKpSj1zr+OqN5NiEa5y+nPLavljw1KTxsXpG2TH3j1SrngJaVquunmHXas2lIZlq9i/Tp1Nu3fIuPWLZOqmFTLdSuemPTukaFoRqVmKclNP2lWqLd2qNbZ/HQ2kb8bmlTLBKjcrtm+R3VY+U05aWvnZtmJtOaZ6E6lasqz969RZaOXj7+uXWO9wmczftk62Z+yR0sWKmXzsUKmuHGXVi8PK17B/nTrbrHL5m1VOp1n5OXXTcllv1U0maKqVKmvu1856j8fVaGqdi2baBsjPyda9Jm5YZpWbjbLLlJuS0twqN22td9jdytO6pSvav06ddbvSTV2cYpXTmVtWyebdVntj1YNapSpIh8p1rKOuVVaja/tpWyZZ5WaqlU7SuHLHZtmzb59ULlFaWlWoKW2sNPa02psKEbc3E2hvrHydu2Wtea8lixaT+mUqS0crfUdWaRBpe7PdemcTrHI6zbrfFKs+rt1Je5MpVUuVk/ZWvaBuHGelsXiRovZfpM7sLWtkolUvJlp5u8iqJzutZyhbrIQ0KVfNtDfdqjWKtL3JLxBlAx0zc+bMSEKT5Cshh0/cgAEDZM2aNWZhg/rE5Tx09O8unCAPTPtW0jN222f9FE1Lk1ZWQ/BZ9ysscVfRfM4O+6ziuHrnVjl39Numo9pnNbBhlLIavUc6niYXNexsBFd2QZT+b8aP8vqCMVYHtdc+64eO5PgazeXVo86XapYQyG5HmWF1EBM3LpXLx30gy7dvNo1pEFy/UolS8kG3y6SL1eCVSKGBXW91jLf98bkMWTFT9sbI0xJFiskljTrLg+1PNqI5uyBSBy6ZLPdNHmzEWxhFrHLSqGxV+azHFZaYrGZEXnYgD9dYHdMlY98znVWsNJa00vjPtifJNU27mU4lu2y20vXA1KEyYNF4SyzGKjdFpW+tlvJ853NMuckuiI1hq+bILb9/ZqV1a0ip2V9uECAfHn2ZJSIbptQxI6i43/erZlvlNjyNlM0bmnWX+1r3lvIpiB06+gFWe/Pg9KFW/u60z/pxys1HVhpbWkKLz9mBPJyzdY1cP/4TM5iK1d7Qxjza8XQ5v+HhUibF9uaxmT/Jq/PHmPSGwUC5R40m8sqR56UkkmlTf10737zHJZZ4DOvyycGK1iDyrS4XGkGXSnuzYfd2uXviIPlq+XRLEIeXG8rmpaa96ZdSe5Nf+eSTT+TPP/+UU0891UyzZtdnLt8IOSxxhBhZuXKlCTHSuHG0o3jFz3JrVHreqP2CKkxseKHy39S8h/xf+1PsM8nxj6lD5OW5o40VJRHotBihD+15Y7Y65XHrFsmVv31oCSqrgbPPxaN8sZLyfx1OkaubdLXPJMcFo9+R71b+aRrYREAU97GEwGc9rrTPJMdHiyfKXyd/ZaxjiUBTUsvqOGjQe1Rvsv9kEiAyzrfS+MeGZQmXGxr0yxsfJU8f3t8+kxyPzPxRnpo1wgw8EoFy06piDVNuKludV7L8sHKW3BRHUHmpZImrxzueIRdYQiBZEI0Xjhkgo9cuSLjcFLNEcb+6rc1AIDu8MX+sNYBDUCVebuqVqSQfW4M5rC3JMm/bOrnYSiNW40S7JUT51U27GoGVHW6f+IV8tOiPhMsNghHL1bc9b8jWbMBIS1Bd+9vHssJqWxMtN1gB/92ur1zX9Gj7TOIw+L7UGtyMWDMvpqByw2CqZ81mMuiYa8w7TZaPFv9hBnCIuUTBQv9Wl4vk2BpN7TOFAyxzQ4YMkcmTJ5sFEN26dbO/SY6iD1jY/86zpKenmxAjiLhLLrlEmjRJvnNRkoMpzb7DX5b529bbZxJjr9UAj9+wRJZt3yyn1Gltn00MRsVvzh8X05oSxCqrM31n4XjpW7ulVCtZzj4bnyErZlii6t2kGhzA+vLjqllWo17ETCklCg3pKSNelZ9Wz024EQd+Syf37cqZcl6DTsZqliivzBstd1oj40Q7KgemeT5dMslMezB1lihMu/Ud8bLMtDrjZECcTNq03HTiZ9ZrZ4RWotw96Ut5bvavsiczsY7KYe2udHljwVg5tnozqVsmcYvHl8umyjXjP5aNSZabnXsz5LsVM434YEopUdbs2ipnjXxTflu3OKlys8/69Zwta2X4mrlyat02SVmtn/jzZ/nntG+TLjdYmz62Bg4tK9SQFtaRKLQ3Z496U+ZtXWefSQzaCqbSF6SvN/U/UYsuQhEh/q7VbmDpTBTynxmD9xf9bg2uWkj1Uom3N8NWzZYrxn1gvc9t9pnEwLr906o5pv3AUpYouMNcMOYdI+ISFf/A4GuR1e5/s3y69KvTRsoXL2l/E59XrfbmnslfG7eUZEBwfmHVq3qlKxnXgMICoUnQMxs3bpSxY8dKsWLFsjXTmOeFHNOpLGxAxGmcuNwBf7Rjhj0r65PsqBxoMqZuXmEa9Z41m8ed9kD83TPpKzOFm6gFx8v2vbvla6vhubhRZymTgGWO6bezRr1lGsnswFNiHWEaGX+deLKD+5xsiTj8xbILHcgva+bLuQ06JjTt8cniSXLHxC+SFsYONP5Yno6r2dRYWuJBeenyw1OWsN5in0kefGpW7NhkLJCJdMoPzfhenp89MtvlBlE+ePkMuajREVKuWPwO6xerU7zQEv87s1luEFdYZTpYnVXz8tXts+FQbk4Z8Zrxacwuy7Zvkjlb18oplphLZJoVcfO3KYNNvcwOCOofrIHOufU7ScUS8afLmBI/7qdnTfnODjwlQpB3gtBJZJr1Xit9by/4zf6UPAiPYavnyPnWwCqR9gaxedovr0u61U5lB8r3uPWLpVm56gn5zVF3LxjzrvxqtRfZBcGJb+Tpddsl1N58uWyamb5N1PLnBUH9szXI7V+/vVTJhpU8v4KYa9WqlaxevVrGjx8vpUuXljp16iQ1zZqnhRx7p7766qsmgaxOzemNZ5X93P7H58ZxO5A9e2Xv7OVSbu5a2bdyo+wtmiZp5YIba6bWTrM6D8zmsZi1ZbXcNvHzUMGRuWqjFJ2xXEot3ii707dLWqWyVsn1d/I0rsstEXpGvXb2mXBo5JjeCCJzx27JnLlUys9fL7vXbJLM0sUlrbS/sXbEHFOC8RrzdxeMl7cWhnQcVqO7b/FaKfHnSim+bIPs3rNbipDGgIrMMzOFfHT1+K4Fp/36WqhfY+YWS6RPt9K4cIPs2mgJr/KlJK2E39LHOxlvid5rm3WLayWj8x+7bqH9ycNeq9zMWSll56yxErFRMqxLpVUILjc4YjOl26hcVftMMPj9XTLmvVCLSubaLVJkxlIpu2ij7NqaLmLlaVpAucHq9KclIM9v2Mk+E84pv7wqG0OmqCk3+6YtlgoLNkjGui2yr0wJSSvlt4Ih5n5YNVsubHhEXGvH07NGyGdLJtufPFgFcN/C1VJq1iopapWbPXsz9teNAOZaQg5rdbwFSQiNMyzBETbAodxkTl0s5a083bnJEl4VrTwt5u/kEchYni9tfGRc8XjDhE/Cherefaa9KTvXKjdWe5MRo72hnHau0kCala9mnwmGQdzdkwaFtjf7Vm+S4jOXS+lFm2RXerqkVSnHnKr97UFwVcCCjJU8Hqf88ppZzBTIrj2SMWOJVJi/Qfau3WyXm6D2JlOGrJwhZ9fvEHexzhvzx8nr88eYNiqIfYvWmPam1DIrjbt37U9jACzkoRmKZwncZZW9k395JdSCm5m+U/ZRbhZabTjtjVX304r72xsGAV8vn2b8dFPxe85vINpat24tGzZskDFjxkjZsmWT2mY0z/rIbd261eydSrBfRJxOp+YOoyxhcprV6AR1jpV/Xyr3HtFPjm1/hNSoXNUSHHtk3vLF8trwwfJjGauzrO2fnsKfZOyJd9qf/FDxu/3wtFnt56X48k1yyq5qctVxp0jz+g2leLHisnrDevllygR5dPw3srlrI5/YYdXX9z1vkCOsBj2MZ2f/YqaNfEXf+txo4hq5t8cZcmSr9lK5fAVJ37FdZi6aL098/6lMalpS9lbw+8WcYY1Y3z/6UvuTH3wNu37/VKDTf6k/V8m1NTvK6V2Ok4Y1908pLFu7Wr4cN1zeXjlJtrb2j74Zrf524l1Sq3QF+4yfy8e+L4OWTfU15Gnpu+TwBbvljuPOlPbNWki50mVk09YtMmnun/J/338kiw+vYT1U1k4EAfdYp9ONM3sYWBz6DH8pcDReYeIyuaddbzm+41FSs0o1Exhzwcpl8vYvQ2Rw2krZWb+y/cuDYK2a2Pce+5MfhEK3H5+WOZYA81Js9RbpvaWCXHfcqdKyYRMpUby4rNu0UUZPnyQP/TJQNnazRHCxrIIOsfH1sdfG9Al8cPr3ZsrRa/3LtAY3bWZtlTu7niKdW7aT8lYjvH3HDpmxaJ488u1HMuUwS3hU9FsYbjnsGPlfh9PsT34Wblsvnb9/wqTVS8kZK+SO+t2k75HdpW71mubcktUr5ZPRP8pHm2fLtuZ+MVOndEX585S/h1qssOJcaA1wvl0x0z7jYtN26bGqmNzc4xRp17SFlC5VSjZu2Sy/z54hD3wzQFZ2a+Ab7HCfN4+6UM5p0NE+4+dHS9CeM+qtwKm/alNXy1/anCDHduws1StVkQxLLMxfsUxe/+lr+a60Nciq429vDq9ST3454Tb7kx8GNpQb8tZLkaUb5PzMenJR9z5We9PITHOt3bhefp40Xp6a+L2sP9yqnx7RyoKr0X3uiLkq+fk5v8r9U4b4yo2VIGn+5xa5+8iTpUvrDlK+XDnZsWunzFmyUB4f+omMq2e9p6p+gXVJoyPl5SPPtT/5YUal/XePBi6kKD5rpdxU43A5zWpvGtSsbQTEcqu9GWS3N1taWunwlA8W6Mw57Z9SPIaF/ObfB8qAhePtTwfJ3LpTuizLlFu79ZOOh7WWMqVLy+ZtW2XK3Fny4JD3ZUGn6pYwz9qm0t48efiZcm3T7PmL5WeYgfz2229lypQp0rt3b+nRo4f9TWzypJDDJ47VHKxO1R0bchemjb5ZMcP+ZGONimtOWC4Dr/q7dGwTbO168q1X5L9bJ/kaV6bHBva4UnrXamGfycpwa9R+xsg3fKKqxJINck+ZDnLfjbfaZ7IyceoUOeudh2T9kVbZ8DSuJ9Q6TL7ocXVgh8XIsfuwZ8wUXhZ2Z0iXadvkw788LDWqBU953f70Q/JuxTWyt3zWhodphwkn3W2W1Afx0txRcu/kr+1PByk1bbk826m/XNT/HPtMVr76bohcN+p92d6hnq9xvbf1CfKPNifZn7LC1GbnoU/4Vv0V3bpLzl1eRp77y7+M+d7LFkvQnf/E/TKyaVFfp4wVcMHp/5IyRYMtj7dYDTlTclnYlylVJi6XD865XXocGby/4KsfDpD7V46UXQ2yijneHc7PWB+CIKRBz5+e95Wb4is3y817m8h/br8ncHPq2XPnSP9X/yNLD7cEcvGs5aZtpToyqvdtgVO6CI2jfnjSV26K7MqQXjN2y+t3PyDVqvnfPw3z9c/9nwysulnSymfNc3zl5pz2j9BppBfmjDRWTi/lZ6ySl46+UM488WT7TFa+tMrNDZMGSnrzrOWYDpLVgXe0OM4+kxUsnB2HPuZbFFPUEnHnLSklT9/3H2Mp8LJu3To5++n7ZWIrKx0ls1pRapYuLzP7/S3Ur/OGCZ/KB4t+tz/ZWHndZNoGefeCO0Lbm2fff0se2DJBMqpntfbz7r469ppQCxLhTI6zyo3XGldsyXq5s1gr+fvNdxgB52XGzJlyzrv/k2WdLNHsseoeXa2xfH/8jfYnP8f/9IIJoeQmLWOfdJ++Q964+e9St47f8oIT/F0vPSZvl10paZ5BAO3NDCtPwwZy+CheO/5j+9NBysxeLU+1O10uOv0sI+C8/DjiZ7l65HuysaW/3NzVsqc80C64vDHobzPkv7LCEpBuiliDxtNnW+X4vgelYkW/6MYv7KJn/hXY3mBxZNBRmKxyDhkZGWZNAKtZTzzxRLMAIt40a7jEPkQwnfrmm2/KsmXLVMTlMnSJxPvyUmrlFhl09T9CG1W4+6ob5IwdVgNgdd5uaDCJeRUGsen8ljGRS4s1CRVxcHj7DjLo0r9L2VX+6Yo/N68OnVLckrFTlqRvtD8dpNqcDTLkP8+Hijh49s5/SLs5fr9BLCYs8Ajj1zXz7H8dhIb8v237hYo4OOPkU+SFzudKsc3+MAz4anly7QCMyIOcjVss2imv//N/gSIOKpSvIB/c/h+pOcW/UIH8JF/DIOaXl2Ibt8uAM24KFXFw/UWXyaXS0EwvuUE44aQfBvG3gsagp+6sJv93572BIg5aND9MPrvy71JhySb7zEEWp6+XtSHTX5TjBQFWnGqz18uHDzwRKOKgZMmS8vwN90rDsf6pQ6Yvf1xp9XQhBFrGdu6Rh9qcHCri4Eyr3NxZqZNkrs/qc4ZFiIUaYWP3GVtWBob86LRsn7z2f08Eijgg7e9e+zepPsNvHSVW2cwY5YYFAF7Slm2Q1866KWZ7c/slV0mfBVbntiNrPec9sUo7DAapvilVKz+snkb+dftfAkUctGndWt468yYps3CDfeYgiLSwckM5nhbQppaduUreufOBQBEHxYsXl8euu0sOG22Vm31Zn5f2hoUBYWCJ92ENVO+tc7RcfMbZoaKgT89e8vdGx0rmyqx1g3Lz2dLJoS4M87euNQvOvDSbs1XeevCJQBEHlStXljev/5vUnrTSPnMQFqD9vmGp/alwQRk8//zzzVTrDz/8IBMnTgytsw55Ssgxnfr222+beWJWp6qIy32CKmTntUWl1WHBFjU3t59+gaQt9zd0sRy1gyrr3jnL5bJe8cOXdOrUSbpu90890Aiw+CEIRJzP/8cSVaeVbmg63Xjc3fsc4+/hhdWBYUzb7G+oKvy+RE7r2dv+FM7p/U6ROiv89yOY6H7p7eeX1f5Vapmbt8uVreOb6atUqSLXtD3W/pQVnNLDINinlxaztspRneJvQXP7+ZdL6ZX+chc0beowaq3fFw9/sSt69LU/hdOmTRvpVcy/EpdAvgTXDQJRRfw/N5SD/hWaSakSsctN+fLl5V9nXylpnkEOLNruzzeHyZv8fqqVR82X047vY38K585rbpA66/1+brxDAsMGMWT5TF+HgR/sFe2CLXhuWIR2UTO/YKccBrlNAHm9YXe6/cnG+n3TCaukUwwR5/D03f+QMhv87gpLtvsHag4swvBSbNZKueL4U+1P4WAZ6V7UP9BDWBEPMggGI97V1PhS9s2sKdWrxPYBZcD1+LV3SdGd/ql1VrGHQZBxL5XGL5bz+4ZP4ztcc+Gl0nSzX+ixcG1TyOK3z5dO8ZWbzHVb5LJmXY0gjQVO/Td0PtH6A/uEDddjoUVh5swzzzywAwR+c7HIM0LO8YnD3HrFFVeoT9whgJhYGQGNTpsKtUJHqm4a1K4rlZb4G7RYqxiDrBx1lm2XJvUTW9jSsmQVM/Xrhhh0vlG3zXSrcfB1Vlajc3Sr4Ck8L/hc4SjsZWmMzoMpKy+1l2+X6lVjO2UDDWGr3X4LGpHuPck4QFAjX3TFRunWOrE0tmvY1CwU8LI4RHQQhsPrx5W5K0Nalqgcav1zU71yFam9zi+8CUYbxuyt/ndQdUW6tG0Wf8AB7SpaQi4j6zMjOsJW3Jly4+ltiqzfJv2OOibutAe0btxMMi1R5GWVZzrKAQvojgyPELPKeZOM0lI9xPrnpkSJEtKyiN8Skp6xKzRMC9PVXiqs2yHHdQ63qLo5sqGV93v84nF7iHWcd+hdGZuZvkv6duxqnj8eVa1yU3mLPy0bQ8Q4EB7HS5VVO6Rtq8RCJXWtFRznDKETxMzNq3yDqjRrUNW/e69Qq7Gbwxo3leJr/YMcLJ1BUA8JHZQFawBRd2cxqWuJpnjQzncq5/fLxSWFgU4QDMa9TVGZDTulb/f4AwDo2rK9zyIP2/YkF8KkoEEd6Nevn7HM/fjjjzG388oTQm7Hjh1mxwZWp2KJ0xAjh4bAxshqmCuVD3eqd0MjUHq3X13EikUV5JBbbPfehBpyKFOqtHE29+J/iv1sD4pvtHuPWdiQCGVKlpK0nf5nJkZYGL4pCathL7EvzSw7jwcioeRev1AIE6oQlN8l9mRK2TKJLekvU6qMZO70d75hHbKv4wBLJFWpFD9kCZAPZTL8TVGsPN0R8CwlrbJXqlRiQVrLlrbSuNt7/UzZZ/0viKBOrLhV7CpXCJ428lKS8uyZBgQ6yCD257WnFFtCrkal2FYcNxXS/NYQymLYNE1Qx1kiI1PKlUssVhoLIBj4eQmbktsRZDW30linamLx5xBCZfb5y03Y/SAo0HixPfsSLjflQoIAh+0IETQzUMwqNyzeSITiVptaxFdOrWY5ZFWxqfve12u976rlEyunUKGo38KMGA3L16BA4yWsx8MSnQilSlp1Y7u/7O2J8R4LC/SD5513nglPgpibMGGC7PPMDMAhF3Lbtm2Tl19+WdauXas+cYeYemUqi1cypJUpJQuXhft/uUnfvl3WBGiFSsXDBUSQo/fGckWNhTYR1m7bLGkeB2ucc4v4UrKf6iURbFm/I5zB7GXhfnxu1mzaYPXe/o4tVpR3nNqzYImzraXSjD9oPKi064sFCDPrmmF2oMol/Xm6o2wxWbZmlf0pNms2rAsMY1E1JNgyqyG9pJUuLnMXBfg/BrBr925ZWcKfxgoxQnPUCAhps6lsEdm0ye/7FsTaLZt8DtaUm7DYdUFba+0qVVRmLwkJt+Jha3q6VdgDyk1InDWcvX2LdYpb91u8ILAhD2LpXr9Fk7IYlsagWIGU01WrEis36zdv9C3ogLAYZIRDIc+zULKYjJ/tWWwVAuFWNhX350XpouGzB+WL+evpLqtu4M6TCCvTg8tXiZB7VitBGrOyp2QRmTp/jv0pNqxizfAsroIwQVmhWElL4HruWLSILFq90qwWT4Qlu/yzKkUt0UxEgCAal/OL0nTr8Vas8PsGBrF+s5WnAau6S4UskCmMnH322dKhQwezopVYc14OqZDbvHmzfPjhh2aVKiFG1BJ3aGEpfWnvqsRiRWRS8a1m9V08JlkN8N5WfvN9w7L+8BIOLSv6R9/pbWrLb9NDYmd5GLtntVeXmZhuYZ1Hpyp1fR0kMZSGL5puf4rNqOmTpEgjv58MkezDaGgJZC+LWlSURcviO/Ou37hBppf1572JKO/tIWyOqFzP91Va/Wry45TEAqD+MHdyYIdcP2T3A4SBLx6a1fDPqmaJchrpOMyaP1e2NPCLiCCB6GCmRj3saFlThv8xzv4UmxEbFliZkjWX2Eu3bMiqXLYO8pWb6hXkqz9GJSSsvv7tF0th+8VgnZCVh9zLt0uJdW55swoyZ0H8IK90ovNL+gcKbBMWtoKU3Sa85WZ3g6oycMQP9qfYDJo21penELbbSiurznhjzBE/beSWxbJhY7irgsOUadNkUxW/2I8VlqeTVTe8rG1UUYaNGWl/CseEhljsX0iw/10FLwTpXr2x9X3WbjbNGgh+PvFX2W0NYOLx1S/DZE9lf12sHRKbEwt+3VL+erOySQWZPGOa/SkcIkVM2eN3d2HVetgWiD2qN7XKTdb3vqd2JXlv2DcJDeQ+HfOTaS+81CqdmEWvMMBsF9Osbdu2laFDh8qoUaPsb/ZzyIQcI2dEHCMh9k5Vn7hDD1WxUVn/6GphwzLyygfvmmXRYaxdv17u//odyQwYPR4e0Hg6dK/mf+8Iq0d/+cKImDB4lqdfe0nm1/R3SrWsRi6s0alSomyg9Wxkma0yZNgPMTvlaX/OlCd//87X6JBvsaL0dw4IwprZvJY8MvAdM4gJA4vdPS8+Jpvq+jtCNpj3WTNsOlr5XTTNI2RLFJMBq6fKzDnhqyRpdL+18uDbnX4LLGKtfoAgdWhVwe9Xs6ZVVXnp4wExO6xN1mDuzveekz2V/J1VrP06j6/Z3P7XQdIqlJFnJ/8oa9aFLzzBKvHae+/ItEr+ssym3dVDREfHynX9Oz8UKyrDym2WsRM94TM8jP19vLw1zy9yEABcN4xjAmLa7Tqikbzw9UfGHSWMHTt3yFWP/VM21fBbOQiWy4AtiDPqtfdZ69LKlpT3NsyQZXGsK18MGSwj0gJiQVpCjU3tg0BQtgyIv7a+e2N566vPYrY3K1evkitfeihQ5LSvFJ6np9dt66s1RepWkZcmDzP+2WHQLjz57usyu5Z/gEi5qFs62I2AtFf2Wl2LFpEJ9YvID2N+tU8EM3n6NHn6j6GSGTDj0DXGFm+9a/v9RPe0rSvPf/eZ2bM8DAKR3/78/2Rt7aBBXGWpFLKp/bkNOlnv2VNuSpeQz/culnmLYlush/48TAbvWkyissD1gkR3YYbFeP3795eWLVvKsGHDzAIIp786JEKODsPZsUGnU/MWXar6FxlkVCgl968bLc+/+Zp9JitbtmyRCx7/m8w9ymqwPZ0VDfkJITHkgAapaID1bGrr8nLJI38PbcxftTrjf6dPlIzK/s6qV43mVmcVvFoKi0TQHpC7GlaRC396Tb75Yah9JiuLFi2Ss15/UDZ19ecPUw6MSsM4sVZL0/hmwcqnz6ttlr888ZB9ws+/X3hSvmi022oUswoIBEBYfDWoX6ZSYOT3Ta1ryKkv/0umW4I0iFGjR8uVP74p6U39zvSMjpvFEKvHBqR/X6ni8sj2KfLIC8/YZ7JiLPGP/l2mdbHehzdAryVEY+3Q0b5yHVO2vMxtXUnO+e89si092Bn8g88+kXtX/CK7a/pH+z1qNAmd6sSqEmQF3Nm4qvT/6DH54Zfh9pmsTJs2TS5673HZ1MnfKVW1BhWxAhD3rdPK/ldW3im5XG578H77U1YQ/zc++i8Z06Wyb+oYkXZ9s/CVyzVLlTNbznlZ07KqnPR/t4V2yvju3DzuY9nRxO+/17lK/ZgWebYN82E99wMrR8rjr75gn8gKbjjnPXKfrOjX0ogiN5SJ62IEkmVHlJIBbcPERsXl7PtvNa4+Qbz93gB5auc0SauRNX+o1WzaHzZwhKB9dTPqVZbLv39dBn7rjy8Js2fPlvNf+Y9sCGhvKKP9YuxjfWqdgDy1+LzSRrnqb3cGTrEy2Lrz0QflO2t85N05g7J/d8vj7U9+mMoOahs2N68ufZ/8a6glEKvStd+/Idtb+IV+mwq1QwcAhRn8QglNgmWO0CQLFiww5w9JQGBU5KOPPmoc+Fhiq+QdWLl6+PdPyOYgB9b16dJmdaYcV6GhNK3fULZbI//Ji+fKjxkrZW2TioHbyrBFz0udw6OQw5XjPpSBS/1TqWm7MqTK/A1ycrG60r5RcylbqrTMW7JIft26VKZZff/uqn4RV8PqjH4/6S/WKNj/ncOUTcul508vSEbACsWSyzfJUZtLS/cajaVBzTqydtMGmbh8gfxUdK1sa1TF6ik8U0HW/57rfLZc0fgo+4wfnPZ7D3/RBCP1UnTbLqm7OF36lKonrRs1Nb4o0+fOlhEZq2RhvVKBO0lgxRlxwq0+64mbt+aPkzsnDfKtmLMqn5Sev0767KshR9RuIjWqVDW+c7+tWSSjK6TLjlrlaC3sH++HznFsnztjboK+fne6HDH0icAVusSTa7EyQ3qVb2gi5uMTN3XhHBm2d6WsaFRe0sr4p8f612svA7pdYn8Khmjy7wXtz7tnr1Sat15OLFJbOjZoJhXLlpf5yxbLqM1LZHK1vbK7miVyPQMOBD47SYRZ5OCb5TPkkrHvBS40KblwnXTfWUm61WwsdarXNDuQTFq5UEaU3Sxba1vX9AStZgrsg26XmS3swmARyeFDHzdxAb0U3bJTGizZLieWayQtGzAlmibTFs6V4btWyPx6JQO3P4sXuBYenTlM/jvzR3+5sT6Xt/K0197qckS9JlKtYmVZvGqFiR84tuJO2VmTcpM1T7H8sctCrL1B2fWk03ePBS7QKbZ2m7Res0+Or9xEmtWtL+mWSJ2+eL58v2+lrGlolRuPUIUrm3SR54442/7kh3d36dj3ZfByvytF2u4MqTp/k5xYrI60b9BUypcuI7MXLZAx6StkcvW9klHNXzZqlaog0/vdF+o/BiNWz5P+I98IXCxQfMkG6ZpeVrpbgr5ejVrGX2zKioXyc6kNsqmOdb+Abaxe6HyO2RYwDPLyyKFPBq4yL2Lam21yUtmG0qp+Y6tuF5PpVrn5xSo3s+tY9wrwVcMyzu4VsXhl3mgT9NxXbizKzl8vPTOqSOfaTaVm5Sqmvfl93WIZXT5d0ik3HjFezGrXBh93XcxBTmGHINwvvPCC2X++adOmh1bItW/fXk45JX68MCV3eXHuKPnb5MH+DtImc9ces+cieyzi7xEGUwrjTrwrpq8TsHflEVaHFRZUEzI3bjOrU4ly7l3c4ICl6qH2p8ithwXHQXNz2x+fx9w0mxhhhELgXt7I6m7aWY3cT71ujhuBnFh6fSwxF7oSc+8+ydxkiSCrOu7f2zFYpBXFknfM1XJCzcPsM+Gc+strJnBwGGbfzJ27zYIW7zY5bhBV71qiymNT9EGE/ht//yzUL+ZAuSlqlZuQvR0Bh/wxJ8be9gjolDt892hgSAmHA+WGvR0DBhpAucHi8K+28WPQXT/hE/lw0R/2Jz+Z26xys90qN9a9wvaShcMr15chPa+Lu1E/W+adPerN0NAPiNZ9m9PNu0mrUt4nphwQ44OschNvz0w4bthzgaFIHDKt+xFeJq2sVW7KBj8/wvLcBh3ktaMuiDnggDfmj5W7J30ZKAIgc6dVbrbGLzdMjY/sc5s0Lht7ZS8r5Tta4hERGcg+q+WjLmbsb2+8u1U4UG7+2fYk+UvLXvaZcP5qiZyXrXY1jETbG1wqhp9wS8yBKhCD7cThL4eGRSFtxJYkrSZPPWLKAb/R97peIqfWbWufCaffiFdl5Npw/8397c0eM3ALa28ovb1rtZSPu18e6ues7F9f8PTTTx8QcrFrmFIoubl5D+lVs7lpjIOgsSlSvWJMEcfU5kfdr4gr4gDB99KR58UUQ9yrSA3rniGNKs/KdGMiIg6e7HRm6JZaQCdl7hejUaUx/fqYa+OKOMCKhlAo5vVdc7Aa0rSq5SWtWoUYIq6I/MO6RiIiDrCExmrw8SkrUqNSTBGH7x+WsXgiDi5u1NlM64TFVTtQbmJ0xjTeHx19eVwRB+THy0eeH7ptGBwoNyEiDpj6TkTEwcPtT5WaJcOdsMlLc78YIq526QryS+9b44o4wCpxVZOulmgIaaqLF5UiVpnZX26C8x3B8WjH0xMScfDikedKhYDVnQ5pFcvuT2OIiAOmVN/sclFcEQdXN+1mrIVhZSytVPxyg0Xs6+OuiSvigLbp6cPPCq+3Vj5yLzONGtLeAJvlJyLi4P42J8ZsCxNpb3CXmHTyX+OKOGhTsbbc0bJneP4zCKe9qW6VmxARx/v4W+s+CYk4eL7z2aGuCbC/vbHSGKO9wXr7xTFXqYhLkvi1TCmUfNbjSjm5TisjkJKFSvi6NRLvbjXOidK3dkt59ajzxes0mwgIB6ao4k3husFC8ePxN8b0+4oFCyawcFQrFbxaLQhE5gPt+ibUuXnBEndPq15yZ8g+mUE0KFtZhhx3XUz/nViw8OW7njfYnxLjg6MvlQsbHp6tcoNf3HNHnCN9Apy1w2BBwHvdLjXvM1l4wp41m8nbXS/afyIBWJ34SwJWnzAQcUOTzFM21r+31QlGkCUL5ebBdv3MlGOitLVEwJCe1/tXIicIG9fTfiQKqfrq2GvlzHrtQwcBsUCYvdPl4qSc42nbGKBkr9ykWSKuozxjicFEob0Ye+KdMRfwxKK6Ve6+Pe6GpGrVPZbI/G+HU00ZSBbK2r2te4fuyxuEsRb2ukVqhqyojQfik3KgJE/RByzsf+caTL0QpbhmzZpy2GGJWReU3AWxca7VWNHQ/bFhqS9yfxDEbjvCGom/0/Vis3F9srSqUFOOqdFUpm1aKWtiTLO6YTqFDeSxsBVLslEuW6ykXNf0aNmwa7vZRitWkF0H8uUkS3TSUWXHGZfFHVi58C3aFhJg10u9MhXlsY5nyM2HHZN0Z06jip8i2xbN2bo2ZLI8K1g3Lm50hHxqpTGR0b8bOrnTrBE8I3PS6NsOLQBSRAf3epcLzN8mS9Py1ax30srs6bly5+aE0ohIub1FT3n5yPP8cf7iUMHqlC+wxOrGPTtkulVW9yVwR+rRKXXaGGsjAjtZqBeIx7HrFgb6kwXBIAWxcUWTo5IuN4TwYEp9sVVuFm5bH+pm4aaMJagutwTj60ddaHwOk4F61b9+ezMIZG/mWEF9HShrtDdvdrnQtDfJDh7IH6yUUzevMG4diZQb6sM9lqjGhSNsQVUYWABpUwmEPHnTitCpZDf4i/Wu1cIaIF0mh1VIftB5ZNUG0qpiLasuLpGtCe6U0NAawD1utTc3Ne9h3ksyYDU803qPK3dukblb1ySUp7Q31CfeowmrpMSFUDjjxo0zseXYVlF95JS44MB++8QvZOKGZbLa3sbLKTX0D1h8GpapYlZvcWTHGuMFf5J3Fo43e6MSHd19Pyw3BIQ9whr5I3CwcqTK/K3rTBpnb1kt63dv39+R2PekE6TzZsT5V0s0nmyJhlShEf/XtG9lyIqZsnz7JiN43GlEXDAV09vqoP7d7mQpn8A0XDyGrZojD8/4QeZtW2sadacj4X6I8CpWI0w8vIfanyqdYoTFSBS2mbrDylPEx6odW83WUO40MiVav2wlubhhZ9NpZMc64gW/x9fmjZHF6RsknXLDSf6fdT86RRYzdKxUVx7tdHpgqJ1kmWp1yH+bMlhmWeWGAQGizkkj5aaSVW6aW3l6X6ve2RrcBPGXSV/KD6tmy4rtm82WYvbtTJ6WKlJc6ljCnzAbWHATmb6NBxvNPzbzJ7OfLj5XRrha/2fdzizOIag3K3ofsMpphwjKDXXvuvEfy7h1i+z2xrqjnUin3CCGTXvTpGvSYiOIl+eOlncX/mbaG3e54X64Q7CIqkvVRvKglcbsCHEv86z25q+TvzIb6q+z2ht2hnCXG9qbZlZ7c2fLntka3ATxb6u9Gbx8hiwLaW9oR2nb7mvdJ2khHsRPVnvzkNXeLNi2TjZ7yg1pJHA52z/+o82J0iVGOBXFj9dHToWckjB0zOzVuGzHZtOJsCqNlYwIOSKmR9ERu8EKuNVqALZa95y3da3s2rtH6papbAQO98zulGEsuB+bimOFwCqIxa+FNRKmg8SKE0Wn4QbHa9LHRv/ck33Vm5araomqMqYTTsT/LhloTFmRjFWHzmTjnu2WuClv7sm9uGey1pt47C83u421jE6EctKiQk0pZ3XI5GlYgNrsgrhBcGDxpNxgASGsBjsX7C83JSMYamSF+5FG9g5mBS9+n1hesdogwqMuN7w/xPg6q4wiWklQ8/I1TKyvclYak7UWxYM9Ubfs2WHn6TrrvzvNYAoxnLPlZpessNqbZVZ7g+WmTcVaRnSUt4RO1H5UTnuzxUobaaRuNrDaGwROmRwsNwxUF27bYN4lAo42lfamnFU3GHxEia+9sdqDZmWrGVGVI+2NKTf76wZ7QFOG2CEmJ9ubwoAKOUVRFEVRlHyKrlpVFEVRFEUpIKiQUxRFURRFyacUuqlVtnwaMGCAeYb8Dq+uVq1actppp9lnlJyELeWKFi0q1aqFx5/LKfbs2WPKLPvt5RSUp5EjR0rdunWNuT4KuCbbRpUoUcLk3aGEZ2GP561bt5p6wzPlNOwlzRZ2VatWlfLlc2cTcMrJ8uXLpWLFilKhQuoLgZKBe7OirlSpUpKdUCKJQH6Sr5UqVTJHbkDZ+fXXX6V+/fq6L7hyyCn0PnJ0iE8++aRUrlzZNK75mTlz5kjt2rXlyisTj9mkxGb9+vXy888/mz3sKCN9+vSRGjVqyIcffmg6R6hevbpceOGFZtl3FCxcuNDsm4fI4NrHHHOMNGvWLEtHiMCaP3++XHbZZWa/vexCdacOBMF37733ntk678gjjzT3L148Nedn9nBkK5lixYrJiSeeaMINpfL8ibJkyRL57bff5PTTTzfil/c5ZMgQ836BZzj88MOlb9++5tlSgcEh+4127drVlBmgof3666/NfclX8rJ58+bmecqViybEwrJly8zm2QwwEN/9+vUzz/Lxxx8boQPk9znnnBOJaGVbINJJ3pYpU0a6d+8uHTt2zPI+16xZIx988IHcdNNNKQ062A+Uekh4Beof7NixQ7755huZOXOmyVNo1KiRGchG0ZbHqhv0WdSNNm3aSOfOnSOpG4qSXQq9kKOhe+aZZ0xn2aVL4kEy8yLPP/+8aeTYRFdJHarCG2+8IRs3bjQdIJtzs4k2nQmdx3nnnWc6k4EDBxqLzkUXXZSy1QFh8fLLLxvLCeJt5cqVRjCyB3G7du0OXD8qIcf9XnnlldAOyw0WpFtvvTUlEeAIORob8pCOlzqfk5Yi3hl1g0HOBRdcYCyBPAPWG4QU6ZoyZYr89NNPcsQRRxixngpYoJ577jlTHhBU8OWXX5qNz8866yxp2LChEeuca9mypXmGVMsNVkXuiaDCQrR06VJzTWdwceqpp8qiRYvk22+/Ne3sySefbM5nF9rs1157zdyXNPBfro+wcacnKiFH+XzppZdMWaFewIgRI8xG6whWNg3nXp9//rlJ8yWXXJJynlLfX331VdNHxCOKuqEo2UUXOyjZApGTnp6e0LF9+/YDI+b8BM+NVYzKgZC65pprTKc1ceJEI6AQzXTKfL9q1SojGFKFzhALzXXXXWc6KKyrXP+7776TGTNm2L+KDqwIHFiOsCqSLuegMySNWOP4jCUnVWuVA2L4lltuMddDVGHdcKxjUYOFivsgvJniQ5jTyZ977rnGckPnSxp5x5MmTTJTv1GCCMFqhaUIKxz3a9GihXm3iPEoys2KFStMGq+99lo544wz5PrrrzfCCasZ4hGhwUAAkTp37tyEhHsseGamNCmbpAvRSv3g2ljpcrq+I65mzZplLKhYUsnTevXqmechzXRsqUL+xaobWMuPOuqoyOuGoqSKCjklIbCsMEJ+/PHHQ48nnnjCTFvTUUfdOeYGpJHG2Zkeo/Nv0KCBOVe27MGtuLAm0XHx+1ThGnS6zsgea1vjxo3l2GOPNdOtiJIo4dlvuOEGky6sNYhX7odVhwPhgw8g/0a0RjkNSjrpALGSkV7KEwfTZVhbiFSequAArEdY4ZyOFhHAvbFeucGHjPsxjRcljkWHPHaDEKBMkeepgmWYMlm69P7ArQgQ3iNWR7cljM9YDFNNI2niHm6fNEQ/4nj8+PEydepU+2zOwDvlXXn906irlFlEZqpQN2688Ubz3hhIeesG+ZpTdUNRUkFLYoTQWNLA0qgwSsRPhSkIGlIaovwMjdg999wj7OgWdNx///3GMkBHhdXjUDu2Zwc6Kt4h78yBjqtOnTomXQ5Y7fjsiK9UQFxQXigjbvC3wlctJyxXdFj9+/c3Pmvff/+9EVJRWIkSgXyjI8Qd4PbbbzcdIlPJf/zxh4wdOzYSIUfnTie8ePFiI7jpfBHMvDcH3jMWHsRcFO/RDXUFkUUb4IY85nkQHqnCPRgsucsNU8lse+iGNoj7pVofuR9izvG9c+D9MY07dOhQmTdvnn02eqibTKF6Bza8Z96tV6RnF6duYMkkTfhV5lbdUJTsUuj2WkVQMfKnAcI0HwV0Pjjm4jtFZ8T1J0yYYA5Gq5zj3zRG+FZFNZLj2nQY+IscShA+77zzjkyePNk0gPi1kNb8BhYcpjOnTZtmxAadAw07fkCOkENUDRgwwPhCMcXjFnjZgXtQPqZPn24EI8ICHMGDzxyWOaaseT6mKFO9pwMWFRy3mToePny4sT4w9cf5qOoGgolyiih1W3MAcUD9x0+NqU4OzqWaPqxU3BerClN/WONYbfjVV1+Zukee8m+EB1NmvONU4F4srGDxEfnHtCoii8/OYgAEB+WGaXR8c1NNI/lEG8qCB8dahMXPvdqYaXsWXFB+mdpNBeozPn+kk/ykjDhpcNq0wYMHG6GH8GEK0rGIZgfaadpM8pB3iA8gQvL333839c4ZdNHm0v726NEjUguZUze4H9Zi6gblhT7L8YNUlEMFAzj3Xqsq5FIAB2ZGbFg1aFDxh8ExF+fiTp06mc6Le2AhoNGjYULs4F9Fo5vqKPJQCzkKE6vmcOKmMccniQ4jygY1N+Ed0eGz0pBGm/fo7nBJ7+uvv246TfyQnGmtVOBaTifB9bi/A/mIjx4WIxYK0IFGKeQASw3lh2vjOI51EGGQG0LOgfTwHBxRpI1rsKgCYYywYKEIAh1rOaKA90saWQDAb6LACbGC4MZqhM8W7RwilXQhBhAjZ599dsrCESg3TAHSntCmUYbc8BxvvvmmaecYWKVqkSNPuQdWRtLhLYeUF9pzLKuAWE1FyAHvizpBWrgvB3XQEfzci/Tjs5cTIYHIM/wMnbrBgBWhrEJOOdR4hZyuWs0mY8aMMaveEDB0tgi3eGEF6FRofJjSwQEbZ2vyILscqlWrFBlELBYPOrATTjghcoFxKCF9jk+QG8otTuY05DmRVu4bdl2eB1FEB5ZTYEnBsozoYlASBaSJRgeRcygFPuXUyd8opjaTBRHAoCvqPCBNlAuvaOIcwsdtOYuKWOWUOsJUJ+U0J+qIG6ycpDvqqfEgnLrRunXrA6toU4U6TWw66kc8aIvwm40qrdyTAQfPgACnbOYEXP+XX35JyJ+YtJHG/Dibk9to+BGrYKUi5Ph7RrpUguOPP95cJ1noVN5//33jG4T5ntWK2Wn0DoWQ49k/++wzI+Ro1LBM5VcLXHahDNAxY2HK6c7KAesEU0hRWHMSgXvReUWVRuo84gLofL3X5HsaJ6aWoypP3I/rcq8g6xCdC9aeqNLo3A+C0sj3WDxzIo1cz7G6UUexPGKlon1I1RrnJihPqQ+0B3TAWOaC8jq7cC/uyf1IB//lMwMq3h1WwqgHN0FppD4wbc4sClbcKNLINekHSEcseJ88E+FOovAF5H6EIKINc8ooi1Zoz6OGNOJSQPsVC+d70ngoBlr5DRVyKQg5sorYTThNswTdO52RLIxU8E1imofrJUtuCzn8Y5gSp/LjEMy0jdMQFCaIN0UDnGqsrGSIKo5corBQ4IsvvpCbb745ZSsAnS7Xot7QGVNvmGJ0j7wRjUxbE0Yjis4KP0fCYmC14flpa/DfdIuaP//80zi003mk2jGTX/ij0cByLaw2WNzd10XEMQhk1XAU0/KETqH9II3MBlAnEadMA9L5A2LuiiuuiCQIMeWPlc6kkXLfs2dP04m89dZb5v0B747QHW4XgexCPSMt+KWSj0xznnTSSfL2228bVxbg3XKOKewowA+QMoHIQVBwbfKQRUfkMzDVSj3EPSYnod5QpoiXRz/JrE+qdZ/yQaxM8rN3797mv/gB4m5AKBvHRze3oN7gnoT1mPqCm0dutG/5Ha+QKxA+cjSQWIlw7qUixjpwnsXZmZEjQiQZ6Iz4WxriKPwk8OPBGoBAckbPyUBwTEZXVPSgtHoP/LCym9+Y4j/99FMzMsSBm3sScoDO0HvQKJC2KC0BeQkadNKOr467o85JcKBnOj63prBpKHiXOK2n8h6p64MGDTL/xYJNucASTZnHJcERwnQwLLrAQp3q1ArPjtBGMB599NHG/YH3hW8q5d/pKOg8qBMM6FLpPEgbdcMRN/iuYaHCf4tpaic91CHEVxRpRNyw2whT4LwjRAdtKjMFCB5CvJC/iC/aLJ4jlXJDvWfHCEQMCwtor3ATQZzjo3PxxRcbMcX9sQYinFPtkJ3V1Mcdd5xpbymP1D0OFqlwnn8j2rl3qvfDKkSe0g6zawW+zfh34hLD/YmdR9tH+Q3yoY0K6gICHdHMfXmXxuoSwb2oG/hrEgaIuohwo07gQ0pbFpVvbDx4b/hXs5CL56D8UG8Ko2EgO9CWFLjFDjQe+KtR6RF1NC6xDiosI8ZELWo8Lx0PfnFU8CgXF9DJ8DxYDxjFJzN1Rh4y8qZSBKXTfdCJIb5ohLMDeYAIpqLRATqr04IOnolGLrdETlTw3KxmpNNnFWnYgY8jAjrVlXlAh89imaD7uA8GKVgfUhVy1A9G+XR+QfdxDt41+ZGqkKNs4wfkdEZ0TNQfOg7ykekc8jBKIUdHS6fPaJV6TgeBuKEDo9xSz5xyHIWQo/5RF+noaVOcNCLkEDWkkTyMUshRHig7CBo6X/KWtFD/sHZSVmhLsPyRr86ii+zCdek4nDTS+fJuqSs8A5Y4DvKavCC/U5kiI68QM84CKq5Lh4W4Y3ED05ukkWfBosR/U7U6Io55P6SHQT7X5BwDU4QG6cGXjH6LNGIh4xmigpkq3iuWaayRLMbp1atXJNZbB4QcApwBhzOIouxjGQPKUU5CGimnWFUZmLIrCLNjuTWzUVDwCrnUhjB5BKcQ0IAxTRLrIOAjFSOZ6RsaMToBGhRGgVGDiZtRICOUZKBhoeIFpdN7OCu9sgsdz9VXX22i88c7iPieXysmjQyNKWIg7GDggLCNAkQA1lKmioLu5RwIsCjAsoK4oOEOuo9zIHKiSCMNNx2Fu75RlugsEcMsmIka0kj5c4slOmDaB8QV23NFCWlEJLk7XO6P6GHwxCAzahC+1H9nIEEeI3awsLgFG8+EOwnPmApcg3u5xRmCxpvPfE+54fepwDvkOm5x5qz+d5/j3hzkR6rgz8W13G0Xsfkou+4BG2kkP3nGqCC/sHhiScZ6iksDg+GoIZ+iaruSBfHBFDXpxLJJGrEaK6lTIIScA41ZIkeyFg2sExRCVtSkMqoNg0YCXwyW9dOJJgNpCUqj90jFilNYoIF2puLuuOMOufvuuwOPK6+8MrJygEUaiw0WnDvvvDPwfhzZtaR6YSofKxuWqlhpxO+ScpMqjtjAQuaGzhJrC4ISi2SqHb8bpv8QyIgoN1iuWJzD/RB0UXVoiCXqFwLZDYIDMUfasS5F2YEiTBlgcjgw0MTa54Y2hedwC5HswHvkHTGIcUDkMLB1ty3cj7qRzEA5CAQVz8zAyoF00E66hRzPg2UwCt8u3iPtPIMYByxzzMK4IY3kB0eqIAiZvmVHHN4lAxx8xdyDgvwOgpfZrKeeesqUIXw2sTa6BbOSGgVKyOUEjNIwozNdElXMqSBY8MD18Xs7VCOmWNDgYKnC5ybewe9StQAcKmi06USi7njD4F6sWiZOHAOGnIZOl+kaOiwa15yGzhiRigM5Pj9uwYYVGisZacc3KSoxh/8WYnzAgAFmWtEN1g4WPSDmCCcRBaQRQU5AXKzqbksNYocdT3iOjz76KDIrDu0RQgILB8ICnFBIQF7SbtGeEEA3VSGHsKB9wheZ90XdYFCAZYUyRbqwdPI9z5CqEKFeUG5whGcKifaEjp9pcK7N/RF5n3zyiVl0EMVqbtLDtbimUxeZtmKaGEgj05JM72ItS1WIkCbKPWUREU5dQKAzAPEeiMso21QMBvjdOgcDH6z+7nP8JtU2kGcmWDztKXmGSCXfwtKYF/u+/ECB8JFjigY/CXwW4o3MKFg0DIy0EnHsRJgQyJdKRkXPSWgQHT+hRBreZAICI64YvbL1U3bAJI9fA/mMX0ysg0YQnxwa4/wG74D8xAcozCJFg44VgGntKCxz+NlgJUOAuK0bbvBX43dRrBTm7/GtwCoXlkaEAO8cf7JULXPkJRYaygZl251ndMDUW3zm6EzoqFMtN1wfgYE/HG2Dt41BkHCOukZepOojB05ZwPrmdbxnSpD85n7kaRRp5O/JN/KU+5LHbhDqLMDgN/hDpQr5xA4RLJxAOCJu3OWQ8sL9EEKsno2iXlDWqWv4rXl9/GjHEY30JaySjcK6wzvjPeF7SNnxhuNgUE8amcJmFWmqZYbrMZigbiNk6Gc4aGO9B36rzo4WqYCPHNZorke+Ogf+ajyD+xx9Hy45qaST8o6Iozzipx0rjQwQeM+pDjoKA+Sn20euQIQfQaC8/PLLctVVV5lKFgsanGTCj5BZOGvfdtttkZjSY0EjiaPrXXfdlWX6IIxkwo9QmRgxM52WHSgmmP4TGRXSwDO95W7oo4RC7H4O3ktO3UuJDspQ2HviOzrtqBvxWPekDHFEec9DkUbS4O1sOYcwTqQdSRbS4BVqpI2QHTlR78PuhyhhIJCqoAoiKE+5J20geRpFGrkHrgWJWKJJP8I2VYHMADRRSxuiMdWBI2nEiMA7jAdpizWAVg5C2S9wceRyUshh9makgBN/qqOheNBIPPHEE2axQCLWwtwUcrwzHPKZ0km1MUkG7ouYJp1Yh4DpCPc0ZLdu3YzvTJTQKbFajdVjCEesKox8mAKPcqWaG0as5DEjY6hataqxcORU48ZqZqwPTGkwciZ93JPVejlR1ulEmA7jfljKsJ5zTxqinBokseqQzpL3SGfiTmNOjPxJF5YM0oiQworP/Sg3OeUTRNqYCuO/1Bfu56QxJ+oqU3DUDdKYG3UDi5WTp45YJH2Um5zyJcuNusG7wrpJW59bbSrlE+sb7XjUglvJPVTIJSnkiB1HYEZWu+ZGZXv44YeNzxRTIvHITSFHY0YwZGD5P+IipzomB4omYVkQciw0caaIEHJM1bE1GCs++Q2BZGlso4Br4idDQ0ejzX8ps+QBHTPljM4kKrg2q6IJ+ou4cAQGZZXpFwQscZ+iFDtMyRHfDYHodL5OGhGPBDyN0ppDHSJwLPfgfk6ekj4+s4AEV4soYQoHvzzqrdP5Iua4J9OrhJRI1SnfDR0/PmvecsP9cIFg1XeU7hnUD1xUWBXrTSPvEWsKYV+iFDuEjGF6MahuIOh4j1HWDYQUQZQRjE65Id3cj7J7+eWXRxJ82A3tJPtHu+uGU25ob+k8o6gbpOGFF14w16VNpUN20phTIPjxWUOUck98OJ1ykxOQb4Q6It4hdQAoL7RtTt4CgwPeM/1sTs98FQS8Qk595OLAdSmM+ArkZAVzoNDTSDDyi0du+sjRqJFnWDjYkQIfChoF3qFTQaOGkSNi48QTTzSrSZ38J4/ogEk3DRGjWqalcRhO9R1xHZzSqRysqiSILStG8e3CUR6LEuUHH6GohCz+KgTGRKjSuHJP0otPDFYO3jNCiPRGUQax+uFfhM8TW/NwXxZ5kEbyED8v3i/+F1FYrfA3ovNAIOLP5OQpfoH4IZE2RCyNfVTikfJOZ0ybwEpVdxppc+isSSd5HEWeYkX94IMPTJuCeHLSSLtBueF5SCPpjUo8UhZxvMcijRO5k0b8jMhLHPMRl7zHKNJI3SB0BAMLBo/cz103WLVLvM2o6gadFZ074pdywyIdp9xQdslz+hHapShWrQJtycCBA0PrBrMz+Jjhg5lq3XDaVNJJm4oPJdZj2tQoB1FuKHsMwikXLIShHtAvMLDJiYE5IpWBN3XOWZBCucVAQrl0jCMIddqc3Ayynp8hv+iHHB85nYyOAyKF0QMCMKdB4GLSj8qyFCV0BHRSWDFuv/12Y82kAcIS+u677xrByxRIlDBVRGNHo8p/g+C5aCQS9TWJBflP48a0Ax0VwoNRI40NDaDTSQONeRSQZ1hL6SywOtJpcT8OLBt0yCy0oYNheilVKMc4WCNU6fwZmTMid9KIRZu001AgmKOABpp6hPWElZV0GNyPkTdCnBAddMRY0KKAcoBLBOUG6zb1yUkjz0HniUin/LLIIgoQ2+QlI2SsNk65wRpGeXIc8umsowBrDiuBERjEocQaRgfIPZ2BIFZcxE4Uq6GpGwhR6gB5x8KcoLrB7xAHUeDsNkBIDsqJu9xQjmiLyGvyPgoYsFM3EKreukG5ceoGdTaKukHbRdkg35gpQZAzHU+bysIy0oU7QpSQHgaHzGBgIWZwiKh79tlnzeCOQSXiKychn6NOV2FHhVwcaBRpNCl8OQ2WRSoRAiIvQ6eB6GCrMvbno/Fmegf/PqY5mQ7hXKrQYJL/XlM7o0cacAd+Q8OQ6jvimbE6MOUfJhwRBVjLGJlHUSacHTLokMOsJnQsjKJpZFPNV8oyI3AsCmFpJG95HjrkKNKI5RZRFTaFg9jB1QGrVapiHKhHDAKwxoWlkQ4UyxEDkCgGaVg5uV7Y/bBGEHMNq1UUaUSEYrHG+hZWbigzDHIQ0qmWG/Io0bqBAIui3CAwYlkwKU8MgMj7KMSHUzewcoSlEWsZeR5V3XBgAEcdoD1lD2fEI+4WtKkIdspzFG2qgzMwJxQPIpLBIm0RO9sQ0w5rD0YFJX8QXFqVA9AA00jkhkUOR14qcFTTBLkBogpLC6t6GVkicJhGw6ITBXR63gaM6Q5M8A40qDTqYR1aonAfGvN4vloIK0bOUYkOLBvx/EKwSNB5p9qYk1c8N9aGWGDRoTxG0VmRRqxgsUB08Fzkf6o49TWePxoWFjqrKOo2gw7qQiwoN9SLKMoN90NsxHNrQLBGkcZE6wbWnqjqBuWP68UC/zjn2VKFss4Rr25QVvHpiqJuBOH44dGm8l+mImlTeec5Ae0mghkRSVByXFmwvg4YMCCS96jkPCrk4sAUAo0vfjw5DdNnTB+EWS7yKnTUjOCo/IgNOg8Eaapg+aNT4PqxYAUdnXaqvhV0BjTOYaNxh1QFo5tEBS/3TFXEAfejU4+XhqjSiKjiiHe9eHmeDInmaVT3JH10eImWm6jeI+Tme6Ru5NZ7dER9bqUPEq0bUZbVMGj38DfEKofllanknPYdwyKHrx5TuuQF7he5kVYldfQtxYHRFyLBG7E9J2AlIZYL92qevAoNO1MfLEZg6xV8f8gn9nXFHygKMYqIZloFh+awzhmHdaYc8S9JVTzSwUbRySZDTpcpL7mdvkORp1FY2JKB+2kao+VQlZvcvqcb2lTcC77++mvTpiKocBvBhQXLXE4M8LHysUofP+cXX3zRTP1jjWe6NYqgx0ruoOFHEgCRQuXCOTTqpe4OmM/ZMBknVKbREiE3w484kH80MDgF82+mBNmCiG15ohwdO9CwEdKBBu300083jQz3YZTKij2scc4Ks1RhFEyIFcdpPAxHfCFaU13pxTthdWW8QKoIWUblhAVJpXFl1fErr7xi3lus6zgWJtKYysACqwohFsizWBYF2gR+Q7zGMJ+oRMGyjbM4046x0kjHSedIGlOxdvBuKDe8v1jlhjRykMZUQ4KwgIHVgLh+xCo35D+uGkybpTLQwSpOGsmv3KgbvJuXXnrJPH+8csNvuV+8aeZ44If26quvmncTr26QB7zHKAbd5BkrjDEWkF7ymNXr3t0zooQyiz8zPqKAfyOLY+K5ByQL92EhBfnplBvel+P/7KTPqRu8x3huJoo//IjK7QTAYZhGCbNzTkDDgDDC+peoiMtteEbCcjz++OOmAcAZns7hr3/9qwk9kFMNDnmCeKHBRNA9+OCD8p///Md0KqxUJRAwQjIKSAMigrEN6Q07+D6q2Fx0UtyTxjzoXs5BIxhFA+ekkUYz6D7OAfwu1ffK3zt5FXQf5+B5+F0U5YhOI5E0up8tFZzrxCs3UaaR8oBwiVduyIuoyg33S7RuRJFG590E3cc5oi43pDGRuhHFPbkWMfkee+wx+e6774xhg2Dw9913n/l3FGny4sTlox1n5S3+cCyuQJRGLeKANHjbVM6Rf+6y67xHJXsUCIscI3AKp7MkPhYkFwseFjliPSUK056s6MGKR+GPCvICax/mbSc8Q6JQGakE8ZxzwXFcR3hlB0aKn332mbFIstAgtysd7w0fDnwVyTNGkPjixRo5K4qi5FVoU4lZh4CiTU3VopgIbM/F7Awx8Vidmx/ceBQ/BdIix/QCU4x07kwjxDsYESQrABCdWJ7Gjh1rwkVEBdO2TK9hVUpGxAHpwAwflEbvQUiTeNPOsaDCE7eJsCOHYuREWhGsTDfQAMXa8F1RFCWvQ5tKDEVW4eeGiAMGv8TlQziqiCs4FAiLXDJgwUrWR86BERTbDOFnRNwd/MJSYfDgwSawLD5e/fv3N2IlGZLxkVMURVEUJf+jPnIpwAgGfy2iYbNVDUFwswOOw6wSwsGVLbPYQihZEacoiqIoiqJCLklw3GQalK1/WL2JVYx4P6yijAVWSBxNiQvEClu2ziFMB5G1FUVRFEVRsoMKuWzCxs3XXXed8WtjCxVCLLD4gI2zcSadNWuWWSDBno+EQmBlEgKOvTzx8WK/UhxOFUVRFEVRsosKuRTA+Z7YOyzdxrLG9jX4zyHWmHr94osvzGIGYuYQ6Be/OuK48Vt1NFUURVEUJVV0sUMOQPoI90GMsJxcjaSLHRRFURSlcKGLHXIBwmIQ8iO3lpQriqIoilI4USGnKIqiKIqST1EhpyiKoiiKkk8pdD5ybNj75JNPmmlPpj/zM2xNVq9ePbO1l6IoeQv2JGbrPXaeURRFiQp8/ZcsWSIXXHCB2Zig0Ak59ht99dVXjR9bfl85yoIKQpj07dvXPqMoSl6B/Z9XrVoltWvXts8oiqKkDrtM0bagn9hurdAJOUVRlNzgk08+kQ0bNsiNN95on1EURUmdFStWyGuvvSannXaaHHHEEeojpyiKoiiKkl9RIacoiqIoipJPUSGnKIqiKIqST1EhpyiKoiiKkk9RIacoiqIoipJPUSGnKIqiKIqST1EhpyiKoiiKkk9RIacoiqIoipJP0YDASo4zZcoUWb58uZQvX94+c2hYu3atnHXWWfYnRclZkg0I/MUXX0j16tXtT4pS8Nm1a5fZbkp3J0oOb0BgFXJKjvPCCy+YDu1QbolGMafRuO6666ROnTr2WUXJOZIRckOHDpVx48ZJqVKl7DOKUvBhy0y2y7zvvvskLS3NPqvEQ4Wckuu8/fbbUqxYMbn00kvtM7nPmjVr5KWXXpJbbrlFqlWrZp9VlJwjGSE3YcIE+f777+Uf//iHfUZRCj5jx46VMWPGyF133aVCLgl0iy5FURRFUZQCggo5RVEURVGUfIoKOUVRFEVRlHyKCjlFURRFUZR8igo5RVEURVGUfIoKOUVRFEVRlHyKCjlFURRFUZR8igo5RVEURVGUfIoKOUVRFEVRlHyKCjlFURRFUZR8igo5RVEURVGUfIrutaokzPjx480eb2XKlLHPJMa0adPMxsht2rSxz+Q+27dvl8mTJ0unTp2kdOnS9tn4UFa3bdsm/fv3l6JFi9pnFSU+uteqosRG91rNHrppvpJtKDjr1q2TcuXK2WcSAxFFJU1GQOUEmzdvlooVK9qfEiMjI0O2bNki999/vxQvXtw+qyjxUSGnKLFJRsitWbPGCJiCyp49e2Tv3r1SvXp1adq0qX02GBVySrZ55513pGTJknLhhRfaZwo+ixcvNun++9//rkJOSQoVcooSm0SF3Ny5c+WDDz6wPxVsmL264oorpEGDBvYZP14hpz5yiqIoiqLkWRjoFBYwdH3++ef2p8RQIacoiqIoSp4FK1VhginWZFAhpyiKoihKnuXoo49O2r85P1OpUiX7X4mhPnJKwqiPnPrIKYmjPnKKEptkFjugG3bt2mV/KjiwyOGpp56yP+2nfv36cvXVV9uf/KiPnKIoiqIo+QqmV4l8UBCPVClSkJfzKoqiKIqiFGSKYJ5bsmSJ/VFRFEVRFEXJL5ip1Y8++kiWLl1qTiiKoiiKoij5AyPkWCGBmFu+fLk5qSiKoiiKouR9jJA755xzzLZLr7/+ulrmFEVRFEVR8glGyCHiLr/8cqlQoYIMGDBAli1bZr5UFEVRFEVR8i5p//73vzP/9re/mfhgbG7OfmabNm2SNm3a5Fg0ZULX/f7771KtWjVp3LixfTZ/QewXghRWrVrVPlPw0ThyGkdOSRyNI6cosUkmjlxBBS3x8MMP25/2k2wcuSxCDrZt22Y6LsRWTm6LkZ6eLiVKlMi3nePGjRuldu3actFFF0USByY/oEJOhZySOCrkFCU2KuRySMgpiUHIlrfffttsG3LTTTcZUVrQUSGnQk5JHBVyihIbFXLRCLmcM7kVcBo0aCCXXHKJmYZG0GFhVBRFURRFyU3UIpciCxcuNKFbmGY977zzpGzZsvY3BQ+1yKlFTkkctcgpSmxyyiI3bdo0E4GDNjsnXcSigD1kR48ebX/aj06tHgLo7N9//32pUqWKXHHFFQXWZ06FnAo5JXFUyClKbHJCyM2YMUM+++wz+1P+BMPQ9ddfb3/yo1OrOUDDhg2NuFm9erW89NJL9llFURRFUXKTyZMn2//Kv+CylQwq5CKiSZMm0qpVK+O4qCiKoihK7lMQZherV69u/ysxVMhFCAWoaNGi9idFURRFUXKTUqVK2f/aD1O2uDuVKVMmTx9EvihWrJhx0Tr33HPtp08M9ZGLkC+//FLmzp0r99xzj32mYKE+cuojpyROQfKR+/zzz2Xt2rW+fgJHctoDb/ilzZs3m6Dv06dPl7Zt25rZijp16tjfZmXlypXGp6l8+fLmMzE6mzdvbnx/wv6GvOUeTp3csmWLdOjQwfyNcx0vI0eONE7wQT7MvXv3Ng7mbgiQTxqmTJki7du3lxYtWkitWrXsb/0Qg3X8+PHGR6tTp04mzUEB4+kjeBbSWblyZZM/Rx11lP3t/nAUbJdJXnsd9enoyW/+WxDICR+5b775xrw3BxYg3nDDDT6Bl9cgdi8HxqB471d95BRFUZSkwGcHAYQLiftgZ569e/fav9rPokWL5OWXXzadDeIIYfLxxx+bARFixwtCbseOHQeu6biofPjhh0awZWRk2L88CMKNLSWdv8FPec2aNcZHeeLEifavsoIQRRg5f+M+vOKPaz3zzDNmIMe1eR7CTPFMQaGmZs6cKc8++6xJMyKU52O7y3fffdcITjfkI/mCUESoesUenfnWrVulRo0avufkWZTkQfDn9YPBEOI9OyJdhZyiKIoSE6wZjRo1kuOOOy7Lceyxx2axcBFK4bvvvpN27drJpZdeKmeddZb07dvXWETCrGt0XFzDuebJJ59s/u6yyy4zwghh6IVOD8Hk/M2ZZ55pwj9xDB8+PFAwYulAHDl/4z4qVapk/2q/kMJC2L17d5OG008/3VjsbrnlFhM/NGj26qeffpKOHTua2KKkt1+/fsYSW7NmTfsXB6lXr5507drVPA+WuKZNm9rf7AfLFN9h1fM+J/ldUKxxSnSokFMURVEiYdeuXbJu3TojstzgA3TiiSdKuXLl7DPxQXT16tXLhHbyWv3CwEKI4GTKLrsgHtevX2+EnBusdj169AgUUlgsjzzySPvTfhC/iDp2/1GUnESFnKIoihIJiBx8khB0UcBUItapnTt32mfig98Z06jZBQGJ8CSgbKIwNZZsyAhFiYpsCbn58+fLDz/8IMOGDcty/Pjjj4FmcEVRFKXgg5DDlwtn/mXLltlnsw/XwLKVjKM6Iq5atWr2p+RBlDFNOmTIELMgIREOO+wwGTFiRMK/V5QoyZaQ++OPP4zpmhVA7oNtJvivoiiKUnBgqhFx9sgjjxw4cOT3gn8X/mrEwcLZn9W4yVjT3CxZssSslj3hhBOMVS4eTL9OnTrVGBO806LAoglWlLrTwIKGoNif/D1WRRZtTJo0KW4amDZm8cKLL75oniEViyR+hrt375b33nsvy7NyPPHEE5FZO5WCQ7aEHA6cOJvi/OkcN998s/kulZGQoiiKkvdgMQDhPXD+dw5CH4SBmCNMxi+//CLPP/+8EXSxQCiNGzfOHF9//bVZ4YpvHJYxDi+IsgULFhz4m08//dTch79F+AXteY0YxFroTsP5558f6PPG4gv6NNLB4okXXnjBCLow8P1jQQeLNLDk8fvsGjUQw1gFTzrppCzPynHRRRf5Qr0oSrbiyFE5scjdd9999pn9o4gHH3zQOHaGxfFJBJZ2s1oJP4f8RkGPI0fcGuJiucU6K7yYTiAUQNhqKkaqgN9JPGigWXHmXkUWC/xSEv0tz06wxTBY8s8UDo2oA6Nfpmruv//+LOcVJR4FKY7cBx98YFZbsnIyGbCSIYB+/vlnI65o2739AzG/SDsrQsGJI8fChZYtW5pzXpytEJ1rYTEkzEf//v1NzLcgvvrqK/M8iK1kQGQSXgTXIfo3VqbGWrRBe0fsOdJMu3j55Zeb/7qhrUF4Iv68bRIWQkKZXHDBBSbPCzK5FUfu1ltvTWp6Pq+TY3HkiM/Tpk0bs9krhTY7B2KSShwUN0g59NC44nzsfmdUEho6Rrvu8+6D7xFEQd95DxpahBwNdND37sP5bdB33oOyRQNLZQ76noNr8azuc4hWAoF6A3MqihIf2oXOnTvLTTfdZKYLMQJ4wcJEfXesTrfddpsJQRIm4oB2p0uXLgf+BusZgignFhzQZhx++OFGbDBwxT+c/4bBgLVbt25y++23m77MLSoUJUfAImd1Xla5TJwRI0Zk/u9//7M/RceqVasyeZ41a9bYZ/IXgwYNynzsscfsT4UDa2SZ+d///jdz2rRp9hk/b731VuaAAQPsT7EZPny4KQNWA2ifCWfixInmt/v27bPPhLN69Wrz27Vr19pn/Dz66KPmHSpKFHz88ceZL730kv0pNuPHj8/8v//7P/tT3uP999837X4qLF682NRBa1Bnn9nPlClTMp999ln7U2K88847mZZAsj/tZ+7cuaYtCmsPvvzyy8zPP//c/pQ9aHMef/zxhPvMSZMmZT7zzDP2p4Ns2bIl8+GHH85cv369feYgluA191i6dKl9puAyZsyYzCeeeCKhNjxRBg8ebMqZc9An79ixw/62YLB8+XKTNqcOqJlBURRFiQRmVGbPnm1/ygqWLdwvcMPJCZo1a2YWWRCcNxXY1WHOnDn2p6wEWebZxYEdIILAwq8+bUpOo0JOURRFiQTChQwcONCEo0IQZdpTkPiEseMD/ms56atEUN5UIyfgf/TFF1/I0KFDTRoc8MFjRWrdunWziDO2GMOHEB86giG708wqWRZYKIcOxDSLYVg8k5ePN954w/hNMnWPG0IyqJBTFEVRYoL/KA7/iDT3QXgQd/gOtua6+uqr5c8//5RXX33VrN585ZVXTCeF4GGLqZyElbWILBzovSCwCGniTQPHqlWr7F+JWSXLIgREG+FHCFGCYzmhRRBnp5xyShbHfHxor7vuOpk1a5ZZhMFB2vk9C6VwRnfDalsc8vGfQyyyMEKJDkdIO+BLTZ7PmzcvTx8Mgli0Q9llUJAMKuQURVGUmLBgga2viCbgPbxTpbVq1ZLrr7/eHMRjY6UnIUHuuOOOwBXmbCB//PHH258Sg8UEbK4fxBlnnBG4Op2FWky/BqXBO/3Jc7JYAUHHszElzHZbiFQWQXlhURTpvfbaa80+qizGYMHGnXfe6QvJxb2YAiaIMKG83HvVAgtE2AqMHSaU5CkIQZmnT59u/ysxVMgpiqIoMcGqhDBBkLkP9kINCl2FWEGIsNqTeHKxplQRUljykgERFBbOiJAdQSte2YT+1FNP9aWBI0j4kS6EFla+q666yqQlVpgu0kzUBvKKECX8XdDveT424Se8CPcmLW7ww0MMesWlkhgFYSrbK+7joUJOURRFUZQCAWFpEHOEtMEa7LW+5sXDCxbdZIgsIHAUrF692vgkEBMI03N+o6AHBA4C3xkcNAlM2LZtW/tsVt5++20zNUG8p3iwXyHHP//5z7jb8hBolCCfVhmOG0wSp2V8V9iFJGz3kccee8yMjonmriipUpACAitKTpATAYEdWDDANaO+btTgY/roo4/an/aDuwHT+GHkWEBgRVEURVGUvABT0+zGgxEhrx+pEqmQYwUOo0qWz2bnQJ0r+QscnTlY4RX0TjmItp7obh3OsmvCFwRdy32wtD9RnPuPHj068FocjIx0Q2pFURQlPxGZkKMzdzYwzu6BGGA6Tfe0zF/gnMvy6aB3ysGS/UTfKaMTrvfbb78FXst9sKScUVcipnNcB7guS/2DrsXBMvW8boZXFEVRFDeRb5rfp08fs+ImuxADJgpT46GgMPrIAZasoIjnDsm8U37rDWcQC4RXrHu74breGENeuJaKOSUK1EdOUWKTkz5y+QX6z4cfftj+tJ9c8ZGjcWIKygl+yEHQR8D5Hatado/8KuIKM1jbgt6lcyTzTqnMQdcIOxIVccBvg67hPlTE5R40RlhV2d4onsD2QpR9/pYj2SjoiqIoBYlsCTkUYIMGDaROnTpZDgIuEqtHUZScA8vi9u3bzRFPxPC989tE/RS9MGhzrsH0cxSQBnxqBwwYYHYHSPbZ2GWAv+VgYJlfQLAyAnfy0zl4T3znPpesuA2CfMa1gTwicjwH/07m+lwjPT3dBFp1rkEEegbtfJco3M9dHuMd8coa35M2nmv58uWydOnSA+lj/1PuFQt3PcrOof60Sl4hW1OrSjCFdWpVyV0I00NIF6DesmWQN6ioAyFamLKDo446ygRwTQY6wzfffNNYwPBHJDBqUHT+ZKETfeedd8yWSUTKv/XWW5PyjWVKxkkX0ffZTSCv4Z5apdNnColtnNj7kXx1CylECQLPCZpLsNvrrrsupX1JETdsBcX+n1zbDddl8H3++efHbPsRbLRrhO/xPjPvq2rVqnL22WfHDRfFll3Dhw8/kPZE4NkaN25sfzoIz0Be/v7770ZMetMGWNeJxcVODv369QucFSBf2Dosu3Dtc845x/6kZAedWj2EU6uKohw66MjoEDkQWGwI/e2338qOHTvsXxyEbZVoKPjtnDlzkrKgwMKFC41w5O/pVAmwmSiIE8QMQhCLjhsabbZZQoQS3Z6OtyBCfg8ZMkSefPJJ41tMXvLOeFfOO+RwxIjzOVVrD1PObMTN/qZcGxGO2GWnAkQN9+A3Tz31lCxatMj+q6ww5c2AAUsXz4NrArs1sHsBIonrskcpsT8nTpxo/1VWEFrvvfeeKQeIQSxlThrjHUFllXOUd/aixBLHMyBK2S2BOJbNmzc34pLfcS+e69lnnzWi1ou7HmXncN6Zohxq1CIXIWqRU3IDOk/HJxXrGJ0swgCRhYWA0ZwDnRWbghOqhY74oosuMpaEROFvnX3/rrjiCiMME4Xp0tdff92IF4JBN23a1P4mdfKDRe6DDz4wq7kdKxYCiuckDx3B4VghsJxiseJ9YgVDKGGlzI5FDtFMkG7EBvfE3eWkk046YJXieX7++WdjCUFsc89rrrlGypUrZ74H/hbfZ8QQIpsttrBsua2m06ZNM9Pj3I/zl19+uRFUDpRLRDwCDiifWI65VtCWWEAwcBZ+gLfM8NyECeLdA5ZcxxrtteYgsigfkydPNuWQtLEXKtH+HRB7QYOfWGBhJU3AZvlsP6ZkH7XIqUVOUQo9WCHYqJsOCksPFhQsKQ40jscdd5zpxOm4aDSDLB1B0BE71ho6Qiwx2SXM6lNQwXeLNDsijmnMu+++2zTO7LOJPzF5imDjcAbSySzeCQPrk2PRa9OmjRE7jogDygRT7D179jSfifOIkHSD+MKaBogpNqL3Tn2zP+p5551nrkdnRAgfN0wjr1271vyb9N92223mWeiknHR7D/dzeuE5x48fb/7NbxFmiKkgAcCzsq/qscceaz6TFm/cSfLae/94R7J7YCpKbqBCTlHyOVg3sN7QadGpeYUaW5I5Pkx08oiMRCCWHx0g1+zevXvCVntEgON47kw/MY2HPxx+SQ5Y6vgdo0tH8GDx4BwHwjQZsGQ5901k8QT54NzLO/XrgPWTKVGmR/E3c6ZHnecNg6k/J+2IKayZiIAg0RE17udr1aqV+a8XnoNBgPM8XqFNXsa7BiDuHSsXeeVAGUQccg0EUxTT54i8448/3liU2cAeYRUPt/XZsQwqSkFDhZyiFADwgcLKcu655/qsBnSkWE8AR3N85eLB75iWAjpMzPeJQMf93XffmeknFjMgzAAB+dZbb5kpPaCjRxzxu48//viA8OK841fH3zsWnURAjHAP/pZpv1jwnIMHDza/ZeWrd4oNMfjqq6+aKWymPJnuw7mef+MTxt8hQINA0ODcD4gXpjV5P7mFW8S6pxK98B1TgyyqoNyEEUvAY/m65JJL5I477jCWYQdELGIQWLhRt25d8+9U4Hl79Ohh7ocwTAS3hTPeKlhFya+okFOUAkTLli0D/cXwk2IqDwEzatSoA1NvYWA5cyxiTAMmI0To3On8ORyLD//ls3d6zgvWQ6yLPCvO7Ig5Z4ovHohV/KZI48iRI2Na5ZimYyEHkD781RywHiLUWCiAEMOayfR0L0soY4FCHCD0mMYOmjJGADvWOMQHz5SbuBekxLJqYuHCv4xpT68vHvnvEOsavFcWQOBn5xV8vAeg7ByKxSzc3z1oqVy5sv0vRSlYqJBTlEIAVjqm0gAHdqYTY4EFCgsGHXCXLl3ss/GhY2dBBQuoWPRDJw8ItHvvvVf69+9vPscCQcA1EBdMeWIxC5v6dINgaNKkifk3ItA9jetl9uzZB8QWItcRnIg/HOoRATwH4VZuuukmM6XH1DXWK/zcyE/+ngVO7nAaWBQReQ65aYlzIManY4ki3l52QLA6wowp0kSmqt1QbrDEAe8ukfcXJSzWID7hr7/+aj6TH8ks8lGU/IQKOUUpJLRu3dr8F5Hidfx2gwhyvscx3b0SMbdwxzjDt2nQoEEJxR9z/LlIo2NxC4LVpIBVyj3tx5QsPmZ0/KwI4ztH5AH/5lzfvn3Nb7BW/fHHH/a3++/rFi3uv80t8Jns2LGj+TeClSNZsMiR/4gx8t8JMYIlk/fA4fXFdEO+sjIXsP46K59zAvKcwQnvjqlvrLiPPvqouScClPfEVGzQ9C5/66Qn0UNR8hoq5BSlkICVxbGQESaH6PRB0PE7HRbiz7Hu5DbErcOHC6sWwuuLL76IaxkitIcT2oKOPUhskG7Hv40Vmc5UJL/lb+jcsbg5QiQIpnG5D79lJaVj3XOEwaGE98WKTWLG8VyEkAmKoxYP8h/rI1PPiNOvv/5annnmGfnvf/9rjnh+iCxIcCySTHWzmtrJp1ThOghuwp888sgjJh4eFjgWozirhRHRvNszzzzTLNYJEtUMWh577LEDaYp3EPJBUfIaKuQUpZCAfxohJ+jQ8DvzhpwAOkBnOo7fh+0YkVsgzNg5AAsPApOOm2cMA+HQuXNn828WHQQtSECAIOaY/nPyAxBydOyAXxv3DAOx5PjVYaUKEsWHwi/MgedDBOO7huh59913DyzASAYsooihWNa3MBC6J598sslfrHJYyp577jmzgIRFKUFHIpa7KVOmyAsvvGCuQ8gTr78naWcalcUXN998s4lbpxQucAth5TjhligvefmINyBKBA0IHCEaEFjJDdwBgVnFR1yyRGF15osvvmiEHNOXBIJ1W9yc1aU0hEceeaQJAhtkyUgErGdOQGAWDLBVlXMvhAEde6JbdNEg47sGLDzAfy4sIDArXckf0sDuEawadeCZnIUMCDE6eueZEAQIDaxPPBP+drHSzrM7KzOdZ+CeXMNZIIBVjHTHA59ERCrih+dnpbA7IDAC01lF7IXnZ1Wxe4GCA36Cn332mXkHiFz8/I4++ugs7zwI3g+LYjiwMPK3+BKSZ46VDV88x/oZC6bpf/rppwMrmBPFGxCYvB02bJixgPJvB/wvEW5Ym3kH/DeWCHeDyI3nL+qG9/rVV1+Zf2tA4NTJiYDA1EvaluwMPvIKzJ4QJzEMDQisKIUYhAErWwHB4FigwJkmpJNEVLHIIarGNRUQXwyQHHBgd/uleWF1ohM3jxWobgseIs0RXwg1t6Dhd07jj88VwgmrZdjhXAec6VTyy70CNJb1MBmw+jFtGHQwbRm2sheRw4INpkkRLQgqwr7E29EA6ye7LJAu/vYvf/mLsa6xXy/+dxyJiDggjt4tt9xiRA9T0oizsAMLYhh00FjgKJ8INfwhCTLMtfFZZCqXwUmiIg4o55SDRA/3rilK3oT4l/lZxEGsleJBqJBTlEIEQgMrHlYVOnYsLg4Ipvnz55t/I4TyQrgGhBD7yDoLF5zpzFgrUunIsToBYsv9W65DuhFwzoIAB2YlsKwREy2Rw4nNB47g5b9ugeO2HB0qSNdll11mhA75iQhmH1byIQjKAQKRzhBfwbPOOuuAFS67kN9YsJgmx9IWdsQKPkwcP0cYs4qYxRiJikml8ED5ze8kW99UyClKIQOrBw7sgE+Ss9ODewEE1rhD6ePlwDM5PiRYQ5imJHhtPFcQBAHTozTqTN0gABBVWBz5N5Ybpi/cIMLwByN/Ejkc8QZOEGbOOauDAUtZFNYBfAX/8Y9/BB733XefmcKNBc/FNDmLIHivTKHjNxck5igDjqWWFcuxggrnFrxHR5Bj8VS/NyWMvFBeU4GBKIOnZCjas2fPB4455pikzNFKMOwtiB8IK6QUJadAHGCdAPyUmPJJFsQF5ZX/IuqwvrEFFSZ9RArTaKm2CVybkBVMZ+Lzhc+dI34QU0xdcj9EWZBwZOr3o48+Mr5rPBMR/RFMWAv5rWM9ZHGD1z+M7/GDwzcMoYo1CnGCpYl7d+3a1eRdKiAQmYJl9OxYOYG8ZGqSdCMeEUPugMNB4PPCylzSh5DiWuSJ8w7IN6xaYYdbVIbB7xCvPB9TzuQHK0kRve53TQw2Z4qd544nmhgMYNklfh6/d08tJwvv1InD16FDhwMWN8oSlkTylDzC9zHR8sn7xxeL9JJPQb6EicK7IW+AaWu3VVZJHt41Poq8z0TKcCIQBNq9yInyeM455xgfT8pUXj1weaEtZ7DluIaEQZmmPmDlZlCqFjlFKYTQADgjV1ap4oPlOH3TsR/qxU9YYFjMgC8XDTw+UO4dEhJp9BEg/I5rYM2h00AQcC4sOCwiD7+woFWobhBwzvZhCDXHIgeIMDomB8J2JOvon1OQdvKFzesRdvid4XNIuh3o+BxRSgw576pQN4g9RNLUqVPNgo2cAtHmiDrEnJP38SBdCG78/VikkMj2dErBgkEdFu0gn8y8dGDJD1u0FA8VcopSCEF44LgOWIKcAMB07lFZGehEs+uvwupEJ2gvq1SzEwYFSyNWE8QbHbjjZ4clLsxCxsIBVp0+//zzWRaCuOF6WC+xXNFJ8HzkmxvEknMPRs9vvPFGnnLC5h07Mwc8FxY6B0ScI3QRrG4/Si9Y0LB8AlYE9/ZgUeMIc/KQFcyJlC0s16QPGLg4oWkUpSChU6sRolOrStRgTWJ6EmsZFiVnKsKxniEk+I3zHQcO/oRgiGe1YuSHeR4LFFMRWFfowFOd5sD6xd/j34alho6X6TymN53rIvLCplYRB8SA4u+YNmCqwRuahHTGmloFroc1CQGHxZF8IY1MG4dNXSBEWJGK1QdLJdYpLEFO+4gliJWfTqw9pkKYVvXmF8KOwLSIOMfKhzDl2lwD8cPhvDOmOJ1847feqdVEIc/Ic9LsXDvsIG8oRzwfFkhnCpVnYCqbGFfkF/50TOdznveAXx1/j0DiPfEb8jpWviZK2NQq8G4IvUMbS7khLyn73B94BvIbKyIx89jlASsh6eN94CPoXnXKO2QAw3tK5nCCK+vUaurwrimDOTm1mt26lJfxTq1qHLkI0ThyStTQ6Tsx0RKFzo/9QeM1XFzzvffeM50T0JBefPHFodOOiYCQIMq+NxwGgXc5HPhdUBw5xBbbQWFtwYJCLKUgkcZ0XlgcOTeIJeIt0ZkDW04RrsLZBzQI/NuYhos3vYrFj/xypiG9fPLJJwcGdkztYeFzniMe3jhyiUK+kV7ETDJQZgjl4SbRfKDvQMR5VwFnB94p7xZYxcqUkxvyjx0+GDSHrbr1QjkilqCz17AD8fVibVUXD40jlzo5EUcOa7njQwzZrUt5GY0jpyiKAQtGr169DkwL0iEzuksVb4OMpQerVTwQIeyp6kyZ0fmm4pgOWIicbcmAaVW3P1sQdNCIPaaeg8Qwf0/oC4RGmIhzQ/oR1rfffruxPGDtyg84+cC7804dA+foREhXFCIuEShbrOjjuViwEiv/Eac4udOJe0WcohQk1CIXIWqRU5T9VhOsOM4UIdavqEbbuQ1WS3cIkWTS41jkEt3ZAWsU4UTyIrxTpnMcyzAiDpHtTIcfKngufBU5HHg3PFtBmkorqKhFLnuoRU5RlByFBpnGE784/ptfRRwgVPDNIi0FIT3ZhTQzBe7kA3lyqEUc8FxYSJ3n4sDiqSJOKUxkS8jhTPj0008bHxf3wTnHCVtRFEVRFEXJWbIl5HCCxczOdINzYHJnJRHfKYqiKIqiKDlPtoQcJnZ8RdiM2TmuvPJK8x1TD4qiKIqiKErOE7mPHLF7Hn/88WwfDz30kIn5pCiKoiiKosQmMiHHKqY2bdqYgz3DsnMQl4nQA6x2UxRFURRFUWITqUXu3HPPlTPOOMMsic3OwVY3UBhXhSmKoiiKoiRL5FOriqIoiqIoSu6gQk5RFEVRFCWfokJOyXFYvEK4Gi/O5thu2Mh79erV9qeDsFl2EEHnicTPZtpenM2uFUVRFKWgoEJOyXHYeHvw4MH2p4OwYfvMmTPtT/v57bffzKbpzpZIDgMGDJBx48bZn/YzZcoUs02Jl4EDB5qNtd2sW7dOXn/9dbNlkqIoilI4oC9Zu3atMRDk5QPDxsKFCyU9Pd1+8sTJ1l6rv/zyi9kj7b777rPPRAOJoRO/+eabzWbX+Q3dazWYt99+22yZwybjbv773//K6aefnmVD6xEjRpjjn//8Z5YtgB555BE55phjpHv37vYZkUmTJhmRaJXhLAtk3nzzTRPn0H2/NWvWyEsvvWQ2265WrZp9VlFyjoK016qi5AS5sddqfqN48eKmzahSpYp9xo/utaooiqIoSoEkOxatvMSePXvMrFIyqJBTFEVRFKVAkJmZaf8r/5Lspggq5BRFURRFKRAw1ZjfY9GyDWoyROojx5wtZkF2ecgO7Oqwfv169ZHLpzBvj0mYOX43+AlRsSpXrmyf2Q9+axTYUqVK2Wf2rzjFNF6zZk37zH74bZkyZaRcuXL2GTErU7ds2eL7LWWI+7l9DJyyhX+c2/du7969pqydf/759hlFiQb1kVOU2OSEjxwWuY0bN8qoUaPM3u/0G3kZ+qBhw4bZn/ZTv359ufrqq+1Pfrw+cpEJOVaGPPjgg6ZTjOWkF4/NmzfLRRddlLQizQsUdiG3YMECs7q0cePGZrGBA2KLSlq+fHn7zH4IHVKjRo0swp/t2SgDXiHPqqOqVav6BgkIPK7hhlAn/I5K7Ib71apVy/60H0KSUPZvvfVW+4yiRIMKOUWJTU4IufwGxq+HH37Y/rSfXBNyZL5bsKCCeZiTTjpJunXrZp8tXKiQ2y/kbrvttpTEfG7y4YcfGgvgtddea59RlGhQIacosVEhF42Qy9YcKFYQArcSPsI5/ve//5nvaLgURVGUnIM2mEGj9/DCTMm8efPMEQZhfPjbWbNmybRp03wxHLMDcRudZ5oxY4ZMnz7d/iYcrO5BacgOixcvtv8VDvdzg6sGcS2dZ165cqX9TTj8ZtGiRWYmIRY4r/O77du322f8kGdhhAVETxTu7bwPjqVLl9rfhMNvUr2vkjsU7dmz5wPE5yLOV6JUqlTJ/LdJkyZGOToHU1+dOnXKl9OiUUBDiJB1xzorTOCXQJDeLl26SOnSpe2zeRs6LkZEjGoUJUoQA4iDI4880j4TDiPs+fPny7HHHmufiQ2zIogVxxXBORo2bHjA/YDfEFMLHxx8T4cPHy47d+6UevXqHbB+MJOCVRo/Vf4eYUIcxyVLlkjLli2zbSVBLJAmrsm9EQU8Cy4T3jiOU6dONZZ8XCIQM19//bVxzahbt679i+TgnsQjPeqoo3z+um4+/fRT01858Lw//fST8aHlGogffJfIG68f7uzZs43FlTYP/9uhQ4ead03+e3nrrbfMtchrAp7znlu1amV/ux/Ovf/++6asuPtiRDVxMXmeFi1a2GeTg2sgUMlbrsPB/UgbriZOf+4wcuRIM7uEsYYgtT/88IN5Zzkxy8L1KRvM4hVWixzvhzx3U7FiRTn88MPtT36oK3/88YcpE3Xq1MmeRY4KRiDX3r17ZznOOOMM00goBR9GmN7I1DRq+Q06OYScNy1YPPhOUfIiCJSOHTv62mD3Qh4EEot4Tj31VPPdWWedZTptb4eJ7yrf9+nTx/zmyiuvTLk+d+jQIctznXvuuXLdddcZoeQOD4F4QihwT+595plnmn/jqI5Ayg6kByEYtC2gA+4UiFo35B19G8+LixDPcuGFFxrx5W4LEM+IzZNPPlnOPvtsI74JPj5nzhyfJfDbb7814o7r8LuLL77Y3Gf8+PH2L/bD++S9kD9u8OFFeCVjaPGCsMe44H4f55xzjpmWQ7C53weWU0Qq6eF7+nTSSeB1hJ2SN8mWkFMKN4wg2F6LUa/7cLbhouHJLziizZsWjqC9YBUlv0DH614IxKrx1q1b25/CwZp+/PHHG4EVJYhIxJk7RhYWQASO20rHv1mohBDNDgiXNm3aZJk65b5uYYgVCKtHPJhlwuLh3h4QCyOiixkpB8QjVn1EnwOCjxkKRK2bww47zLfdIPBu8DN2BCjiEQGVUzM8rOZE0LqnhbEiI2Ld1rfmzZsfiBCg5E1UyClJQ0PJyuLrr78+y8HIH7yrU/MyTPXQ2XnTwqHWZSU/wwI2pvSyizssUBQgUhCJ7jBETB8xBeoGCxHWMgRUdkE8uf0CsaAx1ezAIC3R+s3zeNu0IAsZlja3KOLfDHq9+chnrsl3bvh7BDRbGiI6mToj3JJ36jMqsB56IwxgOcVNyg3CmzY/mQWRSu6iQk7JFoxUa9euneVwRnGOj05+gCkNDm9a8B1xT1MpSl4CCwm+bPhVcSBU3FNkgPsLflw//vijsSIlCpYXLEZdu3a1z2SPiRMnmmdjj+MXXnjBWJfOO+88+9v9eKd5SQPTkfikeUMFJUOjRo0OWNSxbDFFyYbkDkzp8pt44CuIw7/bkskzB7VxnHeLIj4H/TZWu4JfIqKRvGO/UKZuvXmUXUaPHm3eB+/i1VdflcmTJ0v//v2zXN/7rOQdZQvBXVh93/MDKuQURVHyGVi2mMrDf4njuOOO83X4+GYRHxHLEK4CiDO3xciBqTzEHuFPcMx/9913jdWMAY0bpuHCjiD/qfbt25tn69u3rzRr1sxYoOK5XeCjha8Zf+cGgRd0X+fw+rs54DbBd066nZWhpNm7mILnQ/CRFyzMeO6550yAc3zKUvFRSwZEHrMdP//88wFRFwQCKygfnAO/Xy8s7CBfsfqRdn4Xzw+RvEDcMd2q5F1UyCmKouRD6OSxjHOE+XvhB3XKKacYQcdKRaxi3ik9pszw92KajWlOYiri5O4GAYawCTu++OIL+5cHQfzwbFwbMYejPytnw2AamO9vueUWn/UHgRV0X+fA0uS1SJI/WNRYQcvCEHzTWGSAqCO/vJYxhDB/w/M2bdrUTGviv5eI5S5KeB/kP/cOgwUJQfngHN6dAoCywPvAfxA3GMQZq4XDwF8Oa+QFF1xgn1HyKirkIoQYQfFGOAUBGkyWS7O4wX0Q3BGCRv15FUbm+IB40zJkyBAzfaUoBQH8sljBikXKW66ZDkS4IHTatm1rfuu17iF8br/99tAD36p4MFUaFpeM6VzqHQLGPT3pgD9b0H2d45JLLvE9M8IUAYglknThtI+YZQFCUGgT/h4BSV4QHoQ0OcLPDW18UDw4zrstjljNaCu91kosYfHg/rGsgFjrgvLBORDO8cDqStsXZE3Fv5A2kJW7uWWNVLKPCrmIYPTClIB3P9GCCI0TDSQ+KO7DmbYIMuvnVWjEaKi9aWFVm67SUvIrDFC8AW/pkLFCeS1XiYJFJ+xIpLPHT4/feuE8PltM+QXFYXPw3tN9BC3MwJKGlY96jBBlqhhrFwGQE1nogHWOxVDsuuGGa5CPXoHHXs6IRwcsejyXswrVgalevkvFl5i/DcoH5/CK2iCIecpvvc+B2MYvDstsTi20UKJFhVwEsBrrs88+M6usiJVU0KHiY25n6yH3Qdwh8O5xmpch1AGrVr1pueGGG3xBQBUlL4EgY5rUfTjQkb/yyismSLnzHaF2sCTlxupD77MxYCIA79FHH23/Yj/8jmlRfPxYUOD+m1Rp0KCBsT4i6Byhh18hCx0SFSiISxYeuEHg8ff4sTnP+ueff5pwKfjTOdBOYhnD99D5HRYwFh2ccMIJ9q9yB+/7QDxjceN53UGT+Y4FMlhGEb/uv1HyLtna2UE5CKb6jz/+2IzE8AFxV4rChu7soCgHycmdHVgUgCsDKxuJXeYcrC7EWsT0ZLt27Yz1CTcIRAeWFpzdvRH6qQPuHQ6iYNCgQSYOHc9EcF/ygqlbfPDcFiCeje8QmUxjutOC1SzVlZKszKR/c9JM3iDMEFLePg9xw+IIpmAdsFgx08C0KdY5QCQz9ck7w3KFxQ7rFlOx/N4Ng0TKAIsnmOJl0I84ZPrWDVY7770dEH8cLBjJDjz7O++8Y/KaZ/j111+NwO/Ro4fxHXSD+OdeWDLd78LZRSDI8pkKzuyH7uyQ2s4O2do0X9kPU6mIOOLusKw+P1micgLdNF9RDpKTm+bjfxVkJckrA0n389FBhxkKsBSF+RVHkRau7b031sGg/o5nAa+gIC3ehRE5AfnlneZ0iPVdIpAPTvogLG+5D+kNIifKlm6an4Ob5nPhnD7wE6BCBX2XHw5GLEwVsAqI5eKFTcTRMHjzJKwByOvQwHnTwqEoeRWEBR2r98gruJ8v1mwPnbf7+d1HFATdO8xowbMEiYncEHEQS6ilIuKAfEgkb7mP+3fuQ8m7+CxyOHDieBo2SooKrk+lya1KEjVYcViFddlllwWusirIMGpjiy6sDW54p+TLVVddZfxT8gPPPvuscYbG+dgL+yOmEpRUKdzkpEVOUQoCapGLxiKXRcgh4phqYrVTrPnZVMECwgvEfyC78/6HGqyJ+IJhkSts8P7oeLyrsfCtwN+GhQL5RQC9/vrrRsh5fUUYmRLZPr/4+il5DxVyihKbICHHDhz4ftLHFgboT/GPdZNtIce0GP5NdGrEG4q1DDxVsOg8+uijJvI3wSqVgoH6yCnKQVTIKUpsvEKOEC7PP/+8/W3hhcUOd955p/3JT6CPHJY4OmBWNRFYMSdFnKIoiqIoihdv7MPCine2Kx5GyDFyxBJHDDSWsiqKoiiKouQm+WUmJ6fxhrGJh4kjx1Qn4TOYl80NmBMmKCIBV4ktpOQ/iP1D3COmjpxj5cqVxr+BuFnJFsRDBb4YBEmlAXGnhZh4BP7Mr4txlENPTsaRU5SCgDeOHNEf8DvHIkUfwiK0gn6QZu+2bWijpOLI/ec//8m8/PLLc3U6VX3k8je8v5deesmIHTcIdL6jPLm3qsnLPPnkkyYQaNDy/ksvvTTXN8xWCg7qI6cosdFVqxHFkWOFofrEKcmA6EGs3XzzzVkOtnUBHDXzC6yc5vCmhSO/hFBRFEVRCi9F6MQUJVmYdmQ60n1wLr/B1CnBMr1p4Ug1CKeiKIqi5DTaUymKoiiKouRTVMgpiqIoiqLkU1TIKUnDooZvvvnGbNPlPoYNG2a+Zx/d/AK7URCE0puW999/35xXFEVRlLyMCjklW7A6NejIjzirbb3pKGx76CqKoij5DxVyStKwTPz00083K1fdx4knnmi+L1WqlPlvfqBSpUpSrVo1X1rY4SQ/Lt5QFEVRChcq5BRFURRFUfIpKuQURVEURVHyKSrklGzBgga2FXEfziIHfM7yC45PnDctHPkpHYqiKErhRIWckjQIn7feekueeuqpLMfAgQPN9+wDl19YvXq12SPWm5ann37a7AOoKIqiKHkZFXJK0rDjQf/+/eWiiy7KcvTq1ct8X6FCBfPf/AAbNHN408JRu3Zt+1eKoiiKkjdRIadkC0RO06ZNsxx16tSxv80/EGKEVbbetDRp0sRs3aUoiqIoeRkVcoqiKIqiKPkUFXKKoiiKoij5FBVyStKwmnP06NHy7bffZjnGjx9vvt+zZ4/5b36A1als0+VNy3fffZevFm0oiqIohZM0q1PO9RgLrHp89NFHpX379nLKKafYZ5X8AkXmtddekzVr1thn9sN53u3VV18t9evXt8/mbZ555hnZvHmzWcDhpmjRonLTTTeZnR8UJTt88sknsmHDBrnxxhvtM+FMmDBBvv/+e/nHP/5hn1GUgs/YsWNlzJgxctddd5kdg4B+hEgC27dvN58LOhkZGfLxxx/bn/ZD/0k/GsaKFStMH3zaaafJEUccoUJOyT7eorNgwQKz4fxtt90mVapUsc/mbT788ENjlbvmmmvsMwdxGhZFyQ4q5BQlNl4hRyxSQlutXbvW178UJlg4eN1119mf/HiFnE6tKtmGiuc98isFKS2Koij5EWJ3MtNTmEUcMEuUDCrkFEVRFEU55HhdXAorhMRKBs01RVEURVEOOQ0bNpRWrVrZnwon+GefffbZ9qfEUB85JTLwkRswYIBUrFgxy8gKp1WmKkuXLm2f2c+WLVukbNmypuA64Pi5Y8cOKV++vH1mP6wg5e/dQXopR/i3eX8b637eXSe2bdsmZcqUkTvvvNM+oyjRoD5yihKboMUOtOvLly+X3bt3m8+FBdK7a9cuqVu3rlSvXt0+G4wudlByjPXr18uwYcN8Cx2mTZtmKmnbtm3tM/uhErOLQo0aNewzIkuWLJGlS5fK0UcffaBiw7hx40wBd6+GXbVqlcyfP1+6d+9un9nPlClTjJBs166dfWa/uJs0aZIp9G6zNaKR5+3Ro4d9RlGiQYWcosQmSMgp8dHFDkqOwZ6l559/vvTp0yfLUblyZalWrZrvPNa1Dh06ZDmHsIMTTjghy/nixYtLixYtspxzhGHv3r2znOd+jGjc57p162Z+y3/d508//XQVcYqiKEq+RYWcoiiKoihKPkWFnKIoiqIoSj5FhZyiKIqiKEo+RYWckuOUKFHCrE71go8c37kpWbKk+a03nhALFLyrUPnMilOvkyznONxwH37H9RVFURSloKBCTslxzj33XDnrrLPsTwe59dZb5bDDDrM/7adLly5yxx13+MQZ+54efvjh9qf9tGzZ0vzWCwsu+vfvb3/aD3um3nvvvb5QJYqiKIqSn1Ehp+Q4Xqubg9fCBljiWKHqJewaQee5hteiB8lGy1YURVGUvI4KOUVRFEVRlHyKCjlFURRFUZR8igo5RVEURVGUfIoKOUVRFEVRlHyKCjlFURRFUZR8SqHbNH/Pnj3y9NNPm/8GrWzMT2RkZEjjxo3lkksusc8oipJXSGbT/O+++05+++03jXOoFCr27t0rRYsWlfvuu083zU8C76b5hU7IIX4QcvXr15cGDRrYZ/Mno0aNMmm44IIL7DOKouQVkhFy8NVXX0n16tXtT4pS8Nm1a5fpk/v06WOfURJBhZxVaJ555hk55phjTPDZ/Mzzzz8vNWrUMAFwFUXJWyQr5BRFURLBK+TUR05RFEVRFCWfokJOURRFURQln6JCLgfYtGmTTJkyRWbPni3bt2+3zyqKoiiKokSLCrkUwd8Pwfb555/LCy+8IP/73/+MD96gQYPko48+kscee8wcL7/8slmZtmTJEvsvFUVRFEVRUkOFXDbZvXu3jB8/3og3nJrXrVsnHTp0kNNPP12uv/56+dvf/ib33HOPXH311XLSSSdJs2bNZN68efL222/LG2+8Yf7N0mtFURRFUZTsokIuG2CFe++994yFrXz58nLDDTcY8cZK2DZt2kjt2rVNPKiyZcuaMCcIPJZX33rrrSZUyI4dO+T999+Xn376SQ7BomFFURRFUQoIKuSSZP369Sbsx7Jly+TUU0+VK6+80oQASZQWLVoY4de1a1cZM2aMfPDBB/Y3iqIoiqIoyaFCLgm2bdtmhBeWtptvvtnEb8kOxYsXl759+8p5551nhOG7775r4tspWVm7dq2MHTtWvvnmGxMs9ZdffpEZM2aYXTkURVEURSkgW3StWrVKXnnlFSOQEtnmA/82pkFPOOEE+0x8eGamQxFed955p302dbDs4TfXs2dP6dGjR1LblLCIgmla0h0Pnh8BGuWz5yRsVzR06FCTttKlS5tzCDjSW7NmTbnoooukQoUK5ryi5EVok1avXp1Q/VQURUkUZBv9IbOCnTt3LhhCzoly3LZtW+OzFgvuPXHiRDn22GONmEsU/OFY3HDppZdKkyZN7LPRgJVp4MCBcs455xgfu0R58sknTSfBdG08li5dKps3b5a7777bPpN3WbhwobF8Hn744eYdlSlTxghcBPjGjRvl008/NenGL5F9+hQlL/Lnn3/KzJkzpVy5cvYZRVGU1KEv/OOPP+TCCy80/X+BEHKMegnvcdVVV8XdPzU7W3QRF47VqVjMsJxFDfnxxRdfmHQwZZsoyWzRNXz4cBPb7o477rDP5E14P2+++abUqlXLbD9SpIh/9h8LLItNWEDSsWNH+6yiKIqiFHwwyrBnPIalpk2bqo9cIvz+++9GYCRjLUsGxMpxxx1nrE1Y5wozBFB2QrkEiThA5PE9llVEsKIoiqIUVlTIxSE9Pd2sLsV8Wb16dfts9HDtRo0aGYf+wixOmPcn/ZUqVbLPBIPllVGJxuJTFEVRCjMq5OKAvxb+Wb169bLP5BxMNSNOdu3aZZ8pfJD2QzDb74P3gF8kvos//vijEfRKcmDFdq/GJg+JncguKN9//71s2LDB/iZ1uDbXXLlypX2mYMIgZ/78+cbn1aknLMAaMmSIcc+YPn16jtQfrOSjR4+Wb7/91hwsRML/D1+d3IbB3s8//1yo28lkodxQN5YvXx5oKKCekqe0e1HBe6KcMtPkwL8pP0QhWLRokcZRjQgVcnHAP47gvhUrVrTP5BysxqRhpALkFZyOg1WkkyZNOlDRceRmgclzzz0no0aNMqtJoyC3Kzb5/fjjj5vVww5so/biiy/K1KlTTQgU0o1fpW6vljiLFy82Phw05M5n8hA3hTVr1si0adNMHk+ePNl8nyo7d+401yaUD+WxIHbyCF/yFP9Q/EhZ7U7H/M4778icOXNMXrM1IKIuqnrEPVl4hI/wiBEjjIM1x6xZs+TLL780dWfkyJG5mt+IDvx9D4WIzI9s3bpVXnrpJXn11Vfl9ddflyeeeMLsLOSGmQ3yNKoBKyLtqaeeMuX02WeflcGDB5trUz8ZANCn8G/KkpI6KuTisGXLFrNCMjdWRxJOgwaYEXZeAQHn7ELBSIpGndE5jbgj3lhIMWzYMPPvqGAbMxqCsOPrr7/OMdHHyLRatWpmhe+NN94od911l9SrV89YIYJGs0pWeC9YMZn+5qCTwFrGLid/+ctfTJ6St0cffbQpO1EOXM4880xTZums6CwK0tQ7eUUbce+995qDssj2gKzuJqzQ7bffLhdffLHpKPE1jQLqGYM37nf//ffL3//+dznssMPkqKOOMtsQstIeIYfIiwLKTiKHkjiUGwY6LKT7xz/+IS1btjTlhsF4TvHDDz8YdyHKCAHwFyxYYPoItqqk7lNeqf9YeVWQp44KuTgwmilRokSuCDnipXFgscgL0Ak6oVqofHQULDRg1M9U82233Wa2HWMJNBYBAianCgscnHANdFRhB79zwpJECQ0e5n9WUxcrVsyc4790WIwoEfZKbMhD6g17DFNvEBWUjTPOOONAPeK9scAHazdWz6ig86BMsufxZ599ZiwRdCpRCZtDBZ0dU2OUQ6edOPfcc42o6dSpk/0rkcaNG0udOnUiGQySZ1jkCFzuxHLk/VE3xo0bZ2Yr8B1mP2lEAe88FbC08c6wGsU6BgwYoNOqCUK5wT2I+kDdoC3j37179zaB1qOsew5Ofe/fv7+p3/QZ3A8r/JFHHmnqPgeRIyi/2qamjgq5OGAtoPGKWjCEQdDeqKYpU4UOmYaAgINUSAQWnQYdCkuenQpJ54HYjaJCsk8tFjAsN/EORnqO2IoK0sM1eQ9u6Mj4TjuQ+JBPCG1npE3ZKFWqVGBg3JywrnC/du3ayS233GL+yyCDKUAsuViX6cDcvnv5AfKJAYy7vNMucbjzlbwn/dTdVGEgx/UYMLnhfjyLU99xCYFUxbJTZhCEdevWNVbwoAOhGraiXfFD2aFMuMGiik820/QI8iihbDjl0KFy5crmv7QDDnzPe8xLrkT5Fa0NcUC80LhQOHMa7sFIOpm9W3MDd2dLwGVEjbvzoMHnN0EddX6Bd0yDQhqYVmUqwA1Bp0mnt1NT/NBY0xFjucW6SZ62bt1aJkyYcEBAIYiZkiNPc2o1OHWXuI8IOg6mBLEU4BqQEwIyJyEP8dOdPXu2yUMO/o2V2PFDBKZBKatVq1a1z2QfZ/CCEHbyi//iT8r743s+4//Ie3SsdtmFTp3ddrg2g8d+/foFHsSPzM9tTW6C8Kd+4YvmDKyA98qsSpUqVeTDDz+MVMxR/xlgzJ071z4jpjxecMEFWQbIlBva3HhB/JX4FH3Awv53rkHlZ26ckRyNa6rQmOHojLUo3qIExBLTAg0bNjSju3jQaNEwYhKmcOYkjHDZW5SpzESiwbPTBBWDHS3igfMpAYfZrD9RaCxZBUcAXvwqqPxUUnxyeD4+A87lWOkImJyqhQxTP/4bTOmyyCDWQQfDc6UyOqcDwqeKdCI0+DdiGidy9tLlnVO2ECWIEfLaSbcSDr5xvCPEGu+Sso2DPHlJHlPOEcv4tEUxcMGKzbURAEFim3O0NXxPDMKcrstRQ5nDP46VqeQneUh+MmWF7yb+gJRhwhdRN7t3755yOaVeYR3DZ5SFP0yN0XZST7DmEIybzhgrJ20C9SNVeHYEIffkHkHvCRHLu+aezBQo4VAGqF/4rPL+iIXqWMrIW9ozFj7gR4fQow9NVVhRbrDO4ldNv+PcE9HId7w//K35vlWrVsZqriQHgx3qIm0Z+apCLg6M3mkkMUXn9CiQe7FyCN8hryk8iJwWcjQCNKy//vqr6TScDpB84DtGUx9//LHpWHhm4uClCo0J+UBjTucbdHB/VpDSefNeUumUSQdmf54dZ3ymbSgXjGKZMqbhQczTiTo+XUp8KL8IYToRyihlhXMMBMhjyuzJJ5+cUB1MBK7Pe6LTcE/fBJGqwDlUEFuR/CQfyUN8EPFRo2zSGWP9pD0lX6knUUC9oH5gsUHU8W/aEPybqHcc1JVU66ED7wb3Clw3qGtB13TaJX4XxT0LOuQV/R2DbNo092Cb9o06w29oTxHjUZQd2lKuyRS/d7BNH0yfgojDYp5IX6dkxSvkdIuuOCCAWN7vbE6bkzAqwgSOs3YigiG3tuiig2DHCVYZeSskqxFp7B2LXU7C/XgfLGXHkoY1gtFcfu2Y8wo04LxXFamKoih5H1wodIuuJECkYDXANO32McgJMH0zSskrHSrCyRmFM23qFnHAZ0b/PHNOiylGIDjmDhgwwIwuEaQMBHJLxGH1JSZSFE7kDkwj886Zug6CqTLSjGjNSQjOye4luQ0CkjzNzRWlTJlzTyx4OQGDHlbK/uc//zGx13J7BTr1hPTl5kpA/A65J/eOAgbbzADgY0Ub5IU6yP2ok1HBtahv7vfFak9nkQxuHLlJ1HWDNoT8JF+D2hP6Nu4XZXklDeQpLhRB9iLSxj35nZIaKuQSoFevXqbhz8mAsFjiaEyYvssr0KBS0V555RXjz3AoKhwNACKDzhFRefnll5swFl5RmdPQodA5RmHAJl8//fRTkyZ2OXACdXpDRtC4kuZU4TpONPWgA/9GHOf5N/5WPF9u4ORpUGedU5C2KN4jeUoHj4XYgc4e8cZ3ji8ldSc3g56SLtKX0+LfTZTvkSliZmtw2SBmJULKGzTaSWNU5YYYeLxLdnFx6iTuNPj+MZ3NVP1HH31kfANzCydPo2hvEGekj/wkXx955BHj2uTGydOo6j6uTk8++aTJ0wHW4JtZMK8YjjKNhZ0CJeQYGeLLEe9ItgHAHwWrFJ1clFuYONCBI5TwT8CvIFGoAAjMoDR6j+xYkvBdYJUYK45wrqYxIEAojW1udPYIDBpQ/ClwrCaQLD4eUVvhyEM631hHlBYcLHCMjM8++2z597//beLz4UdGB0LDFjV06jirMzpmMOI9EOiUa/6Nn1kUHWRu56lTF4Lu4z5yqtySZww4mOYg8CrvlvKKCwfnuXeq5HaeQm7mKXnIwiny8L777jPBa5kJoN2NagcQL6QPoc19/vnPf5rVzcTOQ9wxYLz22mvNe2Qwj09SFFbH3HyP1AvcapwA5//617/MLAppIa9zAtob/LfxWSdPCSKNCwyizhsNQImGAuEj5/ixJQMVFx+rRGFK5q233jJTrcxLRwWNIHPdVF46gHibxbshD5OxkjFlS6Tt7MA7YxRHBcVyyGIE3l2TJk3iOpcnC40YwpGVa4jIyy67LMeWqJPvbCGTyDQNTsD4L6YaZgFRRePK+3Ycj6mGWAB4niuuuMI4cbOIhAb3+uuvT9mpm1WidE4IYsq9e+EOo3QWHh1//PH2mdTg/WHZYJoxHpRJ8jSZAUwQDIawfiXSAVKWuGcqTta8J6xvZ511lmkTGCjhp3vJJZdkCafC83CeoNmphFmhncBqiz9wPChTlC0Gn6mAaGELvtyqG7RlvEMCDLOAw4HVz/jikre4uTi/u+aaa1JuFxBt9B033XTTgXYMyxurf9l9wKl3GAmceybTRntJtm4QdJ1BXnahnLIVHgMLt/841jEGjgR7Rjjzrnku/K0xXKQCeUVZve6667I8OyvY6UPIQ4Sl8zvat6gW5xQWvD5yBWLVKoUFp39WySEOYx2s0MGi1Lx5c7OyJlGchoVGhcYj1cLuQHBSRCJixQmsmSiMJOkciNQdlFbvQdpZ4ZIdsILhm8bqNCyH+Dc4izPwJSF6dyoNjgMNK3tIMnIjMnjfvn0jF4pumKIlKj0dBKsAg/KNg61lGDAQhibV1ctMdZA+d0gb8pcKyZQE5YHFI1jusJCxyCbVqWTKOtN9TugP0uuUaSx1CCmsnVHAs2Ld472ddtppZmVVUJ5S98lT0pfqyjXyD6sNVgBWwgXdj4NySjihVFdZOlYH/EPp2GnTEOjUMW+nxDtN1truhfSxmhvBSL0Iy1PKDfWR0BypDjjIH7b7QgDkRt0gT2lPuKb72XlnCBLaGwYiEFX4EUQh5YZndwZVtG3UTxbDOdZ/BJhzz1TaI+oGIVsoIyygy+m6QZ7y3FzPLewZIJPHzLDQF/JvBCxtRKrimLziPfKu3O+HNoiBCM9Dunk2BqukMdU2tbCB8HavWi0QQo4Gh2uRoHgHjS4NsLOIIRn4G0anNCg0LBTM7HYGNBb4SeGb5CwYSBYqHpWTuHNBaQ06UoWGiA6JDgPhTKWn00Yc0MilWiERckxFYQHEOZdpVSxzWJO8h9MIpNIh01DTqNHwsCoXgR6UbzS8iPgoGh3KP2mkLFJunc6CBpsyhjUACxP3oeHjnqkKOaCxppPg/lg4EAWUYTrrKIUc6WGAQT2jMSdNQXmK8OcdUo5SFXLkFXWBTpn3SOcfdE/KFcI9KiHHfSgbXIuyi/BG2DjvlLxl4NitW7eU0sj1CLdBnec9Uf+C0kd9dDrRVIUc98RyEq9ucJ8o6gZlHPFCm8igxskvnoNySp1gv04G7bQNUQg53huDG+7l9AfkIfnrDEyd2QisaIReSbW94fm5J4OOnK4b5CmLqhisUW7cZYK2B9GFWw9huxCvUQg5BDFRDrivsRbZ+UXaqRv4H5J+yhMuJirkkscr5HSxQ5IwnYiVgQb13XffNf5ndIyJwhQJwodNvbG4YBqlIOc3MO1S8REkiA0a/CjEBqKKjb8vuugiY/ZnSoo8CjqY1nLHRMouWBoZkefW1k005HS03I99QN3wHX45ROtnpXTUkF90ykxTMb3CQosoFlR4IR1YU+l4GfTkBnS+dIyI/2TqZHahgyIUDlMc//vf/4ywQ9A4/qh8JoAvnWMU1mrENmWeTjAZl4pUoG4gJoYMGWLEa05C+0EgY8Qw04HuFZt09PjrIugYAEeVfkQSgpC6xgpxRBvnaIeADpMZAvzJ8HdMRVQ5UDewcOZG3UA8MdCnjjM17K7rlF920sCKjGWOqc4o4D0ieBnEMDXvTiP5xzQv9YH+M7fahoJOgfCRSwY66mTiyIWBeGEHApzT6TzYNibW1CjZTMeJdYkpEkYj+COkMt2STBy5qODZ8a3gv+QljQCNEhUzCiF3qOD90FGFCUO+p4NmWoXGMVW4HhYGrhlkGWakzFQd+UzZyom8daxKdGLUh6h85BycPKXDCMqzqPMUaFu4bpjVhOeh80jVWgU8O/cDOnyui1WOqSrHKsE52rmw58kOpIHykFt56rzH3KobXAvLHPnozTfuxQCYcnviiSdG8h65JgurEJAM6NxpoB6y2hPBQz2NOk9zq25QDjEg0Fd53yP3oi1CrBI1IVXfSgeEIe8RtwJv+0W9Ib+xoNN/pGpZLWx4feRUyKWA40uBdQ6/JqaTmGZB1DBtxr3IcH7HlCymZqwGWOAwc6faOeeWkEOsYgUgrTSi3JOpKczk8XbSiAo6SGeETsPGM6g5PhoYpdO4R9EpKoqiKDmLCrkIhZwbx7cDPwpGUhwIDkZUCDtM9SzBZgoyKnJayPGeMLmzIwQjJsQnJnOmW3IS7sv0GM74THvAl19+mSUEAT6FTL1GNUIGxCLvkQNxw7vC0ZtRbKp+I0FQ9XC8Z6SMgzojdCy1jPy5Z06MUrHwOWlkcEH5YbqK+6ViHQ6DQQBpw8Gb/MWfw8nTVFb/hUGeMmBy0kg9xFLupNG7ECEKcK9w0si/qetOGnNioMN7436UGxbOUE+okxzcO8o64ZDbdYN7OGmkzFJWnPthMcqJNDp1g/syaKRuOPeMYmrcS27XDdLE/XDbYEaJNDnlBiNETuSpUzfIV8SHu9y4VyYryaFCLoeE3KEgp4Uc5niWh+PPhV9VTlR0LxRHgteysol7Mq0ICDneHf4VzkbdBAemg44CnG4Jw+GdsqKs4tfBkvlUwkd4IZ3fffedmSIKuicNOfeMsgPBf4ugv0H3Y8BBuICoplWAzuKNN94w781tfeZ+3P+CCy6IZLGTGxbdsJAjKI3kJf6HUYorOqgBAwaYf3vvx7RZlGUUnDAYiDl3nlKeuCd+ZFjLo4TFIbiRBOUpdYM8jXKASudPGpmuDkojbUDUG62zsIBBa1AasVRTN6IUV8xsEGw9rG7gG8zUclQg4hwfuaA8JU4evnRRgoDD7xC8ecoMAHUj2QWHyn5UyKmQSxinkof59+A/wvdRWo5oaEgXvhpu8egWcjB48GDTqSEG3A1TdmBaHMdbpr0JXUGDzTW5H6N0VikzrYywiuUHmQxszUWauB+r1xAZpJXOCwGE4CJfuWeq6QPEL74+dIDEUETMOGnEgoWfHNZBYjpFIeawMLz22mtGxCDG6ei5H1ZHrNb447CSjvfHFH0UsDoUwYHrApZjRvzkKeUUyxWBZbGCRBW3ivdEbEkaUjpCs3rMTiM+R6w+xi+W0EJRiDmnMyZdCDbKInWTOkjDzqAANw/CWjD4ioJ4dQOfXzpsxBxtUarwfoi7x2pgfKcYPJFG8hSBh1DHMk87kJ2V/kEgxqkbrACkbpC/ThopN9QNhBflJgoxR9lggBxUN6g31A38KxFzlK1UcQbkiCfKBuWGf1NuyG9WJZOv+BxGNQggv1gkElY3iDrAymMVc9nDK+RS7yGUAgudII0AlQ7LChYrlo7TAGA1Y6Ue273wHQ1eFNDJIyBZROEexbnhfIsWLYzwoJNOFRoyOg7iczkNDtDYcZ4I705YhyhArLHkn4EEAwqmNJ20It6YejjnnHNMZaVBTxXyk6XqTKGw4hqh5k4jYS3OPPNMY13BahcFrFjDyscqSzp45350ynRcPAcdGcIjCuggCDiK4EAAIFSdPMWXsm7duub9UnbdU/SpgMsBHTtpdDpjII2kmfiOnMe6HAUIDsoO6WAK3hlgcV/eKelmhSzvOqrxOc8eq25Qbii/UdUNOncgT7m+k0b+y7QxA3+EPz67UUA+IWJwG0HkOEIVSCP5TNopQ1HXDcSot24gXCk3iJuo6gaLChgg866oB6QLuC/pZSEHK5PJB9r7KKBuUCZJY1DdoE3lfUZVNwo7+3O3EELDT6HNz0dUjXUsWCJPDCU6QEZSWJGwMjDdQngJKiSNBNOEUTwP6WIqw2sxYZrBPQ3Hb7BQ8PtUQRBiqQoTjjwLo0qscozSU4VRMEcsqwniitVeiA7yPhV4L4yQsYCHgRUCKyh+nlGkEdGBGA9bQEGDjvWD1YJRvEMEPRaiWGlEiGCpwxpK/U8VOkjKjdMxekGUk6f4eUUx4EDkMIChAwwDiwoDgKjCc1A3yNNYdQMhwAAvinLDdSg3YX53PAcx+XjXUZQb6haW1Xh1g2lH3C+iSCPWcQQ3Yi4I6gYDPPI+ijRSpxGqsWYTEHJM10cVgoS6QRpJSxDUDSy85EUUdaOwU+iEHJ0alYNpD6bw8vPBVANHTkE+0bAyqsJHhD0HsSLhS4JFhU4DMYJ5HJEXxbPQUNNYehtMGnd3h0LlZ5Qc1lAkg+MQHwusR9wzikaHfCUd8ab3eCZEchQCmedmZBwL0kheRCFy6BSwAMaC9JEPUXRWPDNlJt60MBYJBgBRpJHrYLGJBd8jFqIoNwg0OuRYkH7qBZa7KOA6uVk3KO9s+xcLyjH1Pqo0Hoq6gdU9Fk7diCJPmeWIdz/EKsIyqjxlIEFdi0WUdaOwU+iEHA0AoysCTxIzKD8fjGjwI8spqGCICBoxwDxO50yD5m74MM/TedCxpQoNCo0JjU8sGGViYUnVPw8RgQBwTP9hxPs+Gcg/cERpGFHdk/ykA8qt+5Gf3DPe9eI9TzJwPzqFeNeM6p7UDY7cKje8PzrHRPI0qjQ6dSO38pR7UTdyK08ht+sGZSY36wZpo11OtNxENWjkyK08Vay8tP9baKDwMKWDmCsIR9Srt9w4Fc1tbmfKA/8NhJuDY+GIIg4ZohCRSPiRIDM/DQ1+Y6wyI/1RWOSiaLySIdWp0uyQm2nkXrmdp4fifrmdp7ldbnI7jVDQ7we5fc/CUG4KO4Vu1aqSHB9++KFZSXXllVceCIVBkXFGW4yiCQWCmGNVVxTCivuxOo97YHlkVSeO+PiMsEqOhRU4tUcRRw6rw7PPPmtGyfGuhXi99dZbUxas+DqxSs4thoOgnuAPlWq+YskhjYlYV7BwksZULJ2Mxl966SUzTRbvfgwWuF+qMeyY2qfMxIOyy/vjnpSp7EK5eeGFF0y5j5dGfOi4XyorZXl3rDzENywRS8ZNN90Ud5o5HtQJtljKrbpBGnmHuGjEux/fc79UY9gxzYmbSl6tG7fddltKIYgYYBPmBD/AeOWG9ubqq6+O6y4Qj9yuG4UR76pVFXJKTOg4Bg4caMTALbfckkV80CgRKoBGiaXy8XxbkgHnfFbLMoXqLqI0akwp45sXTwglAmlgy7FEnMNpwPEXTKUhBxyBE91HFQslC0oS6bzDYLqKNNLAxsNZTZeKyKFTZFEM5SIevEPul6o4pmHDd5N7x4NOg1WRqZQfys2gQYOMEIgHeUkaw5zbE4EOefDgwXFdDgDRz0rLVEUOaaTuO64AsYiibvDueIe8y3ggALhfqgIgmbpBGaXc5Ke6QV/LPrm04/GgjaE/jucvGA/KDXsMI+TiEUXdKIyokFOShvdFB4JPmnuExXlWALKiNKdGVDQKNEI0gISUoHOKN8pTFEVRlIKKV8gVOh85JXkYqQVt/cN5gmjmpFmcUSmhOFhwwUIIFXGKoiiKchAVcoqiKIqiKPkUFXKKoiiKoij5FBVyiqIoiqIo+RQVcoqiKIqiKPkUFXKKoiiKoij5FA0/osRln1VEFmxbL2PXLZTvVv4pEzcula17dknRtCJSt3RFOaZGU+lXu5W0r1xXqpSIZgXrxt3bZdLGZfLtij9l9NoFsnzHJsmwnqNCsVJyRJV6cnKd1tK1akNpWr6apFn/S5U9+/bK7C1r5Ne18+X7lbNkxuaVsj1jt5QsWkwal60qx9dsLn2tNLauWEvKFst+HCk3q3ZukQnrl1hpnGnl7SJZt4uYZJlWHpaVbtUbycm1W0vnKvWlXplK+/8gRXbs3SNTNi6X4avnyo+rZsv89PWyZ2+GlLHS07JCTelTu4UcX6O5+XeJIhHsmGH9b9G2DfLb+sUyxErjHxuWyOY9O6VIWprUKlVBjqneRE6p00Y6WOWmWsnsBz11w/UnW+VmqFVOR1nlZkn6RvNuyxcvJR2t+/St00qOrtpYmleobo1ioyk3062ywr1+sMrNzC2rZEfGHqvcFJdmVtk8oeZh0qdWC2ljlZtS1rkoWL5jsyk336yYYerkpt07TB0gD7tXbyyn1mlr0lq7dAX7L1KDcjPZKjc/WWVmxJp5Mm/bOtltlZuyxUqa+tC3TkvrXTaVVhVqWW1C6nlKh7TAusd4q9wMXj7DtANbrPfKivWaJctZedpCTqvXVtpa964cUXvD9f/YsNRq32bKqDULZJmVx3utd1uhRGk5vHJ96WeVm6Os9qZ5+er2X6TG3sx9MnPzKhlj1fuh1j2nbVoh2618LlGE9qaK9LLKDe1Nm4q1rfoZTblZtXOrTLTSOHj5dFMn1+7cZuoobXY3yk1dq9xUqiv1I2pvdu3LsNqbFaa9+XnNHJljta+7rHJTmvamfE050WpvetZsZr3H2qYvURJH48gpSXP1bx/J50unmMYnFjSqrxx1niXqWttnsscXy6bK7b9/Lpv2xA7SW8yq/GfX7yBvdLnQPpM91lsC6rzR71id42LTicSiQZnK8vkxVxmxkwpP/DlcHv1zmOy0Gu9YICRva3Gc/KvNSfaZ7IEwPW/UO7Jke+yAsnSWh1euJ9/2vF7KFE1NsN72x+fy3qIJkmHV91ggzp/odIZc2OgI+0z2QIBfP+Fj633GDkRKp3Gy1TF/dPTl9pnssSh9gyk3szavNh1iGIisxuWqyIjet0rl4qkJj/+b/r08PWuE7MmMvXl7qSLF5d42veUvLY+3z2QPxNQlY96TldagIxaI8yOrNJBhvW62z2QPRCPtzXeW8M+I094woHr9yAuMqEuFQVZ7c8vvA42Yi0Vxa3Bzat02MqDrJfaZ7LFyxxY5d9TbMm3zCjNIDoNyU6t0efnh+JukkSXuUuG52b/KgzOGGiEVCwZwtxx2jPynXT/7TPZAmNLeMACP1aZSblpbA4Axfe7Q0FJJoEJOSZgR1kjqlj8GyuL0+NHkHaiYZ9RtJ68ddYGUskRIMiDcbprwmbFQxRONDlT9BmUry6tHni/dqye/s8SAhePl39O+s61hiUFjd32z7vLfDqfaZxIHy+Y1Vkf1+8alCe9HSIOOheXdrhdbgqCqfTZx7p/yjby54DdJz9hln4lPheKl5EGrMb+6aVf7TOKMW79Ibpzwqczfui6uMHag3JxUu6W83eXipC2e26x03f7HF/Kl1SHv3hdb4DhQbmqVriAvdT5Xetdqsf9kErwwZ6Qlxn+W9bsTLzcIgb+2OkHua93bPpM4s7asNgJn2qaVMUWjG/K0a9VG8mmPK6Ri8eR2B9i9L8MqN0NkgCXEsUwnCuXmsY6ny8WNOttnEufXNfNNe7PQqiOJQhrPtNqbd7slL6427N4u143/RH5ePcdYVhOBcoOF/E1r8NitWuP9J5NgwMIJ8uD0obJ6Z/ydHRwoNzcf1kP+r13yfSWDjSvHfSATNy6LKRrdIKg6WYO5z3tclbSlHPH98PQf5NX5o82sTaKUKVpc/tO+n9xgtatKfLxCrugDFvZ3uQYd2OjRo6VmzZpy2GGH2WeVvMTItfPlkrHvJdXgAE0FnQ4j+fMadjINbSJstUbDF40ZYKb8Eu2oHJhO+2LpVDMNmYzQedcScXdOHGSEQDLstcov1rvVu7aa6Y9EwRp29qi3zGg1WZiG/XL5NGNJYuo1Uf459Vt5bs6vpmNOBqZFeBfli5c0U0qJwjTYhaPflaXbN9lnEoM3Ps8Sfj+vmSsXNTxCiiW4JVm6JTIQOF8um2beSzLw3rE0M+3ZokIN+2x8Xp032oic9L3JlRs6UtwEtlnPfEKtxNu9OVvXyIVW3fjTqlfJQG7wHj5ePEnOqtfeiKxEwGpzz+Sv5M35YxMWOA6UG9wvqlpl9AirPibKmHULTXuzYkf87bncOO3N8DXz5NwGHa1yk5hLAFb4q377UIZZZTxRgeOA5e7jJZOswVU9M32eKB8vnmgGHLRXycDz/bZuiayw2oB+dRKf7UAQXzR2gJkWTy6F+62Gb1uDv1PrtElYzFFWHrAGxc/O+SWu5c/LHksA/rx6rhkkZ0cgFzbY/3jcuHEmID87LunEtOJjxuZVcuavbxjfm+zyi9WwnmFdIxHLGg3VxVYjzog8u2zfu1vOsUQSfm6JwNQNjWqyHZUDDeNb83+Th2Z8b/07fjO51RINfX5+yfiJZBca1xN+etFcKxGenDXcNKrJCmMH3h2C5fOlk+0zsVmYvl56//xi0uLfDT48x//8QtxpNYdb/xhoLLjZhftcPu4D09klwiBrwHDP5K+tv8teudlnvYsX5v4qL84dldB7QTT0H/mmzN261j6TPIijU355zYisRHhmzgjTiWev1OwvNwjB4ZYoT4T529bJ2SPfMuIqO/Cc4ywhiKBPtNww7Y9wyC60G5ePez9h4Ymf2PUTPkn4HXihrDDwfGTmsIQs+eQDIm76ppX2meTZX/beiOv+4YC1kUFjssLYgXKDtXLI8hn2GSVR1CKn+KCBWpi+wf6UlX2rN0m1SSuk6tSVUnbhBtmzdbvsrV5OJMCCsmz7JjMlGM9B+OsVM6wG4JfgBsA6V2bKcqkxZaVU/HOtlFyXLttKpUlaWb91AYvMou0b5PwGnewz4SAyw3zwMhetkZqTVkrlGaukzOKNkr7T+l318sw52L84yKQNy+SyxkdJuWKxNwtnGg4H/EB27JZyk5ZKNSuNFeasE9mwTXZVKi1pJfxT0/gQceBAHwsWi1w69v3QkXGx2Sul1pTVUpE0rtgiWzP3SFpl6z16oAPBMfrm5sfE9WFhmmr21mChmrl+q1SZtNwqN6uk/Pz1smfLNsmoao30i/ktKGstIYgvIosgYsECgwemDQ0dLJSYulRqTF5llZs1UnzNFkkvbpWb8v4pRsodVp1LGx9pnwlm255dcpYlqrACBpG2gHKzQipPXy1ll22Wrbt2SFpVf7mhlGOZO6d+x7jO+ndN/NJYx4PI3LZTKkxcKtWnWHk6d73s3bhVdoeUG8oDnTuLdmKBtfim3z8LHeAUnblcapKnM1ZLqZVWGiVDilTyW2woN1jZqBs48McCobo4rL1Zs1mqTLTam+mrpNyC9bJj8zbZZ5WbtIByM8cSuywOiOe/+vmyKWaQE9je7N0npacuk5rUDavclFi7zWpvigS2N+QRA4BL4kwjU19PtYR0mA9e2uK1Vl1cJZVI4xIrT7dbgpZyU8Rf30avWyAn1W4VdyHLP6cNkW+WBw9wMrfvMu1NdSuNFeaslSIbt8vO8sUlrZTfpYFnXmsJ7HiWQKzGTOGGCdUiVntzoNys2CRbrTwpUtkqNwF1w7HKx2tTCzNei5z6yClZ+GzJZLlm/Ef+Ri5jr7SZt0Nu79BH+hx9jCk8bGi/cNEi+WjEd/LSukmy8zB/A8oKqAkn/SXU7wkx1fG7xwJH46XmrpVbqnSQ83qdLE0bNTb7rrKB/rAxI+WJid/JnDaVfA0BU7lfHHO1WS0Yxj+nDpFnZ2Op8rBlh/RaXVJu7nGKHNW+k9mkf8eOHfLnnNny9vBv5ENZInvqVbZ/fBBW7LE4IAz8VI4Y+nig/1aNWevl1gZdpf/xJ0rdOnWNWFq1apV89esw09msaeuf8itdtLiMO/EuaRIyjcy7O/PX1810k5e0lRvl/F115Opep0q7lq2lbNmysmXLFvl96hR5/pevZHjNXbK3YlaxQw5f26y7PNnpjP0nAkCknj/6HX+52btXms9Nl9tbHy99e/SU6tWrW6f2ypIlS+TjEUPl+WW/SXrrWvaPD1KrVHn5o+89odOBiKkO3z0aaP0rvmCtXF+mlVx4wilyWJOmUqpUKVNuho8fI0+MGyJ/tionmR4hQLnBif2Meu3sM37unjhIXps/1v50kMwNW+WkdWXlpp6ny5HtOkr58uUlPT1dZsyeJS/99KV8U3a97K5hdcwemO6M5duFSOj50/N+oWq1n3XnbpHbGnaT047vLXVq1zGnly9fLoNGDpMnZv4kmzpYItijAyqVKC2T+/5VqoZMlSH0Th7xioxbt8g+c5DMZevlkn315cpep0m7Fq3M/sqbNm2SsZN/l8d+/lwmNSkhe8tm7Xi5/aMdT5cbm/fYfyKAL5ZOkSt/+9BXbjJ37pb2C3fLHZ37Ss/OXaVatWqSkZEhixcvlvet9uaVVX/I9pb+9oYp8t+t9iYM/LY6Dn1U1uzcZp85SBlLKF5brrVc1PsU096ULFlS1qxZI8MnjJWHR34hC9ta9a1kVlHKgqthJ9wsR1QOn0b+74wf5X8zf7Q/HSRzU7oct7K43NbzDOna4XCzlzTtzZx5c+WVn76Sz4ssl511Ktq/PgiDONq4MFhV3HnoEwHlJlNqztsoN9XuLP1P6Cv169Yz+2WvWLFChowZIf+b+K2s72iVpaJZB+XlLUE16eS/Sk2rTgaBaGdBzNfLp9tnDrLPam/O2VFDrut1unRs3fZAezNh6mR54qeBMq5upmR42hvAj/T+NifanxQv6iOnxORvUwb7nY2tUWqH8evk89v+T7odcaRpxBEcxYoVMw3s8VZDW33VDvlx9iTZVy1rZcf3rVOVeqE+SPhhvb/od/vTQYrPXiVPtzpFbr/0aqletZoULVrU3JOGoF3LVnJm267y40dfyLraZbJYA+kOWFBwaaMjze+9MAX7l0lf+axxRbbvlhMmpst7f39EWh/WwnT+/D3isU6t2tKv23GybcxMmbBztWSWy9phsTKLMBphDd1r88eYqRUv1aaukg9Ou1nOPfk0qVSxkmlUOWjQEQTH1WgqAwd/JbvrZBWsdLg7rZFv2CiZ0AkPTP/OZ1UpsnaLXL62qjz3139Lw3r1pUSJ/eKaDqtxg4ZyztG9ZMGQkfJnmV2S6bHqYKm5ttnRRkQG8V+ro2JKPgtWx9Hqj3Uy8Np/SM9uPaRcuXImT3mXDASOPfwoaby9mHwzcbTsq2F1WK7XhR8ZQhWLbhC/b1gir8wbbX86SDFLxD1U+xi579qbpVaNGqaMAmW2TfMWcl7n42Tkp4NlRXUrHa4Oi3IzyRJO11lpDPLrRGgwXegtN2lbd0rfGRny7v2PSIumzU1ekkbytl6dOtK/ey/Z9tssGZ+xVjJLZc07fAIvbHiEVLQEVhDUi6DpyYYzNshHZ90mp/XpKxUrVDxQbhh4dLUGIN0q1pfPfvhGMjzlZufeDON72LNGsFVu3a5t8p/pQ/3lZvVmuW1PY3n8jr9JA6vzp04AdaR5oyZyxfGnytRvhsuccnt8Flascre1ODY0vMTDVrnBGpoFK687Tdwon9z4b9PeUOedclO1alU5/oguUnd9hgyda7U3VbJakTfs2i6tKtYKtcpN2rRMXps3xjeIK7togzx92Mly+2XXSHWrTXPKDfdue1hLubRbH/n280GyrrpV9608dGCq/Nc1C+R6q9wEtTdAuVlr5a2btJ175Lgp6fLhfY9ImxYts7Q3tWrWklOt9iZt+lIZlb5cMstkHQQTUodBQJggZ2qS0DRe6szZKO+ddJ2ce+oZUrnS/vaGe9LedG7TXvrUay0DhwyWnbUrZCk3DEC3WAI4rL1hVfpfJ39twqe4KbJ+m1y1qYY8f/e/TPvibm+aWJ8v6XmyLBr2m0wrtd1q8LOWmz82LJNbDzsmYZ/Hwob6yCmh0LgRpsILU6hf3P+E1LYETRiXn3OB3FXzSNN5u+ETMdLCGLdusf2vrNxZ60i5tP+59ic/NavXkM//8j8pM3+dfeYgi9LXhy5gYEQe5NdSd+FW+eTJl401JYwH7rhHem32Tz8ypTslxgKG0WsX2v86SNqO3fJot3NMRxVGxzbtZMDpN0mJTf4pYOLBeTsjB9IXtNLwmI1l5Jl/PXSgI/ZC5/Xy3x+SJvP8Vi4a8z83hzvb/xbwHosv3SDvXP93adSwkX3Gz1knnyr/aXqCFNnl98MZaXWQYYSVqavLtJSbLr0ytFOtWL6CfHT3Q2bazAuLV4i1FcQuK/1BCziaLkiXd//3tOnww/j3jXdIx3k7jUBxQwiRn1bPsT/5YRWuF6Ya/3vc+dKhXXv7jJ+uVpl6tfslUnyd38r948o5oVPRTKFvz/C/hxM3lJP/u+u+A+ImiBdv/pvU+N3vZ4jlNJb/YZBfbNqslfLydfdKvXr17DN+LjjzbLmuREvJTM86XYl1KMgy5DB42XSf9Y+B6mVFm8hFZ55jn/BTrmw5eefye6TCXH97w7Qwi5HCCPLbrTZjrbzzz8eM+A7jriuvl24LMsxsiBsGcl8vn2Z/8hM0MN63YZv8rc2J0vXIo+wzftpYA+TXel8pJVf620cWhYS5afyxcalZAeyly9JMeeKv/zog4IJ47Ma/SL1xS+1PB9lhDbhHrg2v/0pWVMgpLjLNiNbLUZtKStXKseMYMbo7r3c/SVvob7T+9FpqXPyxcYn9r4NkTlsiZx3TJ7QzdmBq4Jg0v/8dizSwvAVBSIw93rhmlog4tWKzmA0OYBG4uvvJkrnZn0c+q4KLIHFcccIS6dUl/lL7Y7p1l4Yr/aKUoLD7ZbIfrDjeb/at2yJntzjKpCEWiLzLWhxtOjcvXquCmyAB1HrRLmnWIFzEAe/43H6nS+klfpFEUNgwCITrZd/s5XJu9xPilpuaNWpK38rN7E8H2bV3j/ElC+IrS1Tt8wigzC075LRqLaRM6dh+bgigv/a7UNL2+KfW97/HYOYGpL/GhOVmqjEWpP+sM8+UOhv898PqhmUuCKbHEUJu9i1ZJxcf1cvU71hUrlxZrukcHFYlzN+WaXGf35hV7jot3iMtm/jfjxue567LrpbyGwLqRowV08wAeCk1Y4VcctLp9qdwWltCp1d5/wpuhDELkYL4ZvkM2evJ08z0XdKvdAOpWiV2m0pdfeDi66Xodr+4XhIjjUGr4qtNXiGnHXuC/Smck086SZps8wv2LRk7ZXOITzGLjbzimCnVizseFzpodKhgDZzv7G0JaK+4tsDvTkmMQyrkdu5Mbhm2krMs377ZTBW4odFpXa1eXAEANatUk8rL/Z19rFWMS9P9DVLNlTukvu33E4/mJa3GMGDE6ht128zaiuDyNDrrt8qRzRNb1t+8fkPZt9jfwMRavRbk5Fx79S6pYnV+8ShuiYCmu/1+YjjehyRRFm/zd5zFVm2WLq3DrThuWtRvbAk/f3pYvBIEMfi8Vh58nFpVrBlXHEPFsuWk9qYg0RG+ipHpcy/VV++UZg0TC13A9JvsySpoKDNhwYtZbezN7iIbtsnJXY6xP8WmUZ16krnKn39E1w+CMuMLGWOV88NKVTZTYYnQoqjf2pNuDXDCFjKwQ4WXSht3S+e2HexPsWlfv4nVqPtFx84AKx/QUXuFI474x7c9Iqb1z4Fp5Spb/WkJW8QEQYGNK63dIS2bJ+bi06laA/tfWQmbAZi3ba1xJXKTZg0Ez+jRK+6AA+rVrC3F1/vrQdgKXxZW4HaRBatMNyxSzkxLJ0KHcn6fVcqid+rUgQVfXspv2SPHHBFu/XPToUkLEeu9e0kmfmFhg6lVN4dEyDGaooGfNm2azJihS43zCoHLzK1GoHyZxKLRI/ZKB/SDCKswMizp6KWE1TYnIhyhVMmSkhlgPQpj996ATixjn1QoEz415qZUcUuY7PZfgzhIYfhEpfW5mFX14lk5gMa+RKb/d94O0I3P4mhRct/+OpcIpUuUDEljQN5ZBJabvZlWnvqnoYMgH0pl+t/33oCy4RBUpig38SwADqWsNGbu8V8jLF93B6S9eGaa8W1KBAS57PZbwsLCmJiFMd5H2ZdpRG+ilE7z5ymiIiyNQeWmmHUKn6ZEKF6suJWn/jSG5il1MSCNVconJlTxZSxpvQMvYYM4CPzOqv+J1o2SIdtlhd0yqL0pav22bBwrrgPtYJGA9i0sZmKgSLd+Wj7B+0GpgFXG3C5sXeT2fX7BlUy5KYpfZUB7E+YCUNjhPQwdOtT0Dfj+wiGzyN1yyy3SsmVL+eqrr1TM5RHql60s7CLgJq1sSZm3IrFdCDZv3SprKvobuiolwxuRWiX9PmlrKxUzK+ISYVX6JkkrmfWe7KHpTYdDXfYR9IyE0yqVkWkLwn2V3KxYv0bSavn3IqwWI0ivb69E6/5bKxQzKxvjwQrP1cX9nSP7dnqScYAapfydfXrFEjJ/mX8aO4ilq1ZIker+zpSVpEGwQ4L3UdJKl5C5K5eYFerx2LFzp6ws7U9jpRi7EQTtP7uuYjFZuzaxeGsrt6w3z+iGhjHMKb9O6Yq+NO4qU1wmzwkJKeNhw2arnAaUm7DgzpVLlJaiXqFfvKjMXb1cdu9OzFKxaK/f2ke5KRYg8CAouO3mskVkydLEys3K9WslrZxf2JYI2eGlTpkKvoUlaaWKyy+TJtifYrM7Y49sCNAKsXYGCSpTOyqVlJUrE4u3tmhz8HR/2C42hAnxtkUZpYvLmBmJxWbctn277Knkf+ZKJYIHEKwwZSVtFopa73DTuoRnwOZu91u72V2C7QKDaFHev7BkS+k0mb8wMR+3VeusOlvBn8bSKW4RWBChPR0wYIBZoX7BBRdIrVr7raeHTMih1s8880yzdPbzzz+XmTOzH9RTiQbiPfli91idye8ltsr2HeHTFQ6/TZ8sGS38ZvmmZcOjn5spLg8729SWkVP9DrtetluN3C97/P53ZYuXDG10OlWuK0U9DWtahTLy0wq/70wQ3/4xWorU809RxNoZoEk5f/oXt6osM+bGv+dSq8LOrOgXOftXyHqlxX7Ylsn7TZH6VWWw9eyJ8O08q5MJiClV2xIzQdBx+OKhFUmTadUyZc26cD83hymzZsjm+v5rx9q8u31F/9T77sNqyo9/+MODeKFD+37dPF/2FbcETljsKrbx8okOS+wOnPirEdvx+PjX7yXTE54D6oTEA0NQIh6zYN1/UfMKMnPOLPtEOAsXLpR5pfwdN++pRIi1++iqja0syZrGjPpVrGf/wf4UDuLyk0kjzTN6CVvNzSb7vnpqDcp+L75FVq2Jv4vF978Ol83V/IImVoy1LtX8PpubmlWVb0b+bH8Kh8Hl0NX+vKdcBA2egE3hi3rLTeVy8tnU0dYAJn6bOuDbQZJRwZ9GX9mwYTAStLvNsqblZcLkifancJYuXSrT9vm3ZCxr1YvyxYLFY8/qzcx93eyrXUkGjPg2rgGAEFYDfvnOiE0vdcsEp7GwQmiaDz/80Ii40047TVq0aHEg3w+ZkAOmJfr37y/169eXzz77TP78M7HRrZIzUCSalvc3AksalJF/v/SUqXRhzJk3T+758g3fUnkICyEBx9XwOzUjrP75/YeyaEm4JWBPRobc8diDsqS2v3OsazVy5UJG5cQlC1q2P6Fahrz/6ccxO+VR48bI28v+sD8dhHxrFSMIaZeALa4yLWH1149elnRLjIaxZetWufThe2VrTb9F87AK1b065AAtKtYwI+gsWIL8810L5JdRI0MbV85/OugLGVbUb9VCrDWMsXF320r+Fc3rm1WRf7/1vOyKYUFabL3ja197NDCWVLtK4X6SvQO2uMIa9MiEb2TufH/8PAfe779efEr+DNDdVSyRE9YhN7U6R99+pZZY/a1+mnz53ZCYlseffh0hH26y2jZPZ4cAiLWNVc+AupHRuo48+OW7MQdW69avlzP/foukE0bCA2E5SoYE6D29Xlvf1mhYLd/b/KdMmT4tZqf86qfvyy8V/L6wbN7PpuhhdKjkbxs2dm0kLw78IKblcd78+XLf129LhsdaRQ53sQYyYfSv1876Tdb3QNDmp6b+KOs2Bi/KAGLY3fPcI7Kwtr9dQeDULxPs78r5aiU9Zcq6/ZwOVeSjrwfFbG/GTRgvry2f4AsFRLnpUb2p/cnPyQHbBmY0qykP/fCx1d6EzwJs2bpFLvz3XbKlgV9AUf7Zri+IM+u395UpZkm+LLpKxvw+Pma5+XDIlzKklH+wx/WS2eKtoEPfO2jQIFm0aJGcffbZ0rZtW/ub/RxSIQf4JlxyySXGMvfFF1+oZe4Q06dmS/tfB9lXrqS8UXm13PX0w7Jtm3+6ZtKkSdL/xX/K2mP8jubsnXda3ayFzg0ih994WXVUPTnlub/L1Kn+EAyMjG957N/yacMdklYxq8ihiT6nfofQaPI0Ru0CRMeuamXk9iU/yjNvvxbYuH77/VC5bMgrsqmVX7Bh5Tg6xv6A7MfqHZXTqU9sV17OfOhuWbbM7yzMuXMe+otMPsZ6Vs/UMde6pGF4NPnGZatagsRvBdnWtJpcMPRl+WLwV/aZg9BQPP/O63LngqGyq4G/U2pvdbgNQzorCNpzNrNkMfmk5ha56YkHTABLL7hUnPnEfbKqd3MjitwgRInuHgYR/EsGlJv1h9eVfq/8S8aN/80+cxDK7t1PPCRvVlgpadWyihzufm6DTqEWOSxkQR3Lrhrl5JqJn8rL775lnzkI4u6Dzz+T6359X3a09Je5ZuWqx+ysiE0YxE8N98nF/71P1luCzQsNff9/3iYLTrGEric2F2KcTfvDoByzo4aX9JY15MT3HpKvLMHqBafrB597Qv67YYIUqe+3PJ9micNYFrKTavvbm8yiafK8zJW7n3o4UMxNmjxZznvpAVl1rL/OlbEGcNc162Z/8nN45fpSFj9XD8vaVJWe/71Nfp/kt1pRdq/511/l0xpbJI3dCFwgqu5r09s/cHJxfC1/3L6MCqXlrvnfyxOvvmifOQjCZ5CV11dY7U16e7/Q5R0dWyNcyJ1St41Hqu5nXJNicrbVpgRNIxMU+Kx7b5Ypx1qDJ197U0T+r3144H7KFfsVe9nVpJqc8eXTVh341D5zEITxk6+/JPfPHyZFmvjbVPYiph1T9vPRRx8ZKzvTqUGxdw/Jzg5B0CDgLzd37lw566yzpFWrxDcjV6KD8As9hj1rgk56IRJ5vWXb5cRqzaVOqYpmddS0LStl7L51spVRXMC2Ofe27i3/iBOh+6+Tv5JX5o72u0Tv2SsVlmyWo4tVl3bla5spIVadDdu4QBbXKiFpAVsDNS1XTX478a7QqVWYt3WtHDPsucCVZkXXbpWma/dJr2rNrJF0GbOv6dgNi2VyyXTZza4OHsFBI/dx98vjbp5/OjstBAQFZnVn1cVbpGfZ+tK8bDXTAC/YvkFGpC+V1fXKSloZv7A4xmrEvz0ufCcJGLF6ntkn0bcowKrupVZskfbbS0u3Kg2lgiVciAE1Yv0CmVkpQzID/LjwORrd5w6Tt2GwypJdCIL2BM3cukNqLdoqJ1nlpl7pisapfubW1TIqY9X+KdWALaUIzPtkpzPtT8E8POMHeXTmT35n+r37pOySTXJUZhXpVKmOlClSXFbs2io/b1ggC2sWkzRPEFnA5+6Pvn+RMjH8ciZtXGb2kg3aoaP4mq3S3NJVPas1lSolSpt4haM2LJLJpbfL3vp+Sybl5rMeV8bcao0ViCcNf9nc1wvlpvKcddKnSjNjLaEVn5u+Tn7ZvkzWNahgfM28END1k+5X2J+CeWvBOLlz4qCABToipZdtkg47y0hXq9yUs/Jp7e50GWHl6azKmZJW02/Fwfo97sQ7Q61VwA4LXX98KnD1LsGWay3cIifWaC51rfaGfJ+0eYX8ZrU32xpZ1wyYjvtrq97yz7ax2xv2WN6/l6y/3JRbtFGOLlpdOlSsY6xCBPv+edMiWVTbam88g0bASj293332p2AIv3TMT88FxmErtm6bNLPbG8oNgbDHbVwsfxTfKnsaBguZN7pcIOc3ONz+5IcVpqeOeF3GrveH6GHBTYXZa6VXpUbSolwNMyhckL5BhqcvkVX1y/n8RoFB6vfH32h/Cmbg0sly9W8fW+XGb5kuuWKztN1WQrpXbSwVipaU9Xu2y6/Ws+Eyklnb397gb/hTr1uswWNikQsKMriBMFvJlPepp55qdsMKIs8IOUDMDRw4UObNmyfnnXeeirlDBHsRXjXOv21OsjQoW1l+PeG20AjkDgiq7j8+ExhSIhkYHb92FI1c/L1W2aPzqVnD/Y15krA916Bjrw6drnJgt4xuPz4duk9noiBQh/a8QTpXCQ6D4ObSse/Jl8vCA4cmAtNQlzc5Sp4/4mz7TDgjLKF6hiUeUy03lJdRvW8PXNDghvsca3WQBEdOBcrNox1Olxuax4/rx84nL8wZaX/KHoh1psa+OvaamJYcWGYJiSOHPhka3iJREFXfWeUmkc6RrdaIDZYKlJsbLDH+WIxt3RwI4Hv52Pdjrm5PBNqbYcffHHcfUjhi6BMpxylj0chzR5wVd49eYLN7Bh6pQLnBhQGRE7bDisOufXvksMEPBwbqTQYs1IOOuUa6VvO7h3i5xhJynyyJ74cXC8rNeQ07yhtHXWifKbwg4r788kujh8444wxp1y58+8BDskVXGMQOQryxn97YsWPNigy2gFJyF/y9CCkRtutCIlQoXlJm9vu7lA/ZK9MN06D96rSRdxaMDw1xkQh/bX2C3Gh1xl4fmCCwak3csETmpyAe2UJq+Am3hE7jumHaCp+vz5dOybZ4xIrzXtdLpGecjc8dTq/XTj5ZPDFmXK14YDF6q8uFRuzEo2G5KmbBAJu8Z1fK0UFRbsJ81dzg6Hty7dZWufkt0EqWKNc16y5/a93bXC8ebDo/2BIesYIjxwMx9UOvm+KKOECA1SxdXoaunJVSufnmuGsT9jnC//DdheONRTC7nFKntbx85PkJ5Sn+nhutMvr7en+E/0Qhn0b1viMhEQcsCGIHhFRCXNzRsqfc3uI4+1NssGr9sGpWaODgRGhWrpqM6XNnzNkGB0Qmix4GrwjYySIJ3ul6sZnmTIReVt0YsHBCaDD2ROhRo4l8fPQVCZWbgs7HH38s8+fPlwsvvDCuUStPCTkgbk6bNm1MGIExY8aY/VgTDWSoRANCqEf1JsZEP37D4qS7DxpTRnHxLCpu2NC7u9XYYQlItgOho7rbalTvbdU74b35ECb4krC9zp8BW+jEgwUcTI1ViWNtdEN4h/9v79xjsqziOH6yAU10TouMyTUBL0N9uUjSm9ZskggiIFpSmbOtmzr/sMtWm7pmf2Q6N9varFXD4Wo4VklU0zlr2fwjp0vxEhYYc8qlSDRNjLnO5+ijDN6X53neHpIXfp9/BJy+POc553e+53c5v6ToMWqPNuhuvQ8InC2ZpWph/DTHRo5nLIv3qb0tP/d5uW4g+IRCPT7bchabijUnMG9yY5JMzsz+tkbXwoOkcMY0dWTvbh3BIOdxtt5o6C3p9gJRxueF1IfU+in5Qa/I6An/5qmkbNOX9bSeO27Xhj8mWVXmPm3mu1MoCLhPi7k9zfWuN2UEznYt/mfd27uyMBjMtZL4qeqbsydcHwL4hEUJPrU1a6HJV3MC84YDAx0QaNjvdt6QM7Zz5nKV5mLeMJ6Ihi/OHHV9CGB+r5k0W72mD45OxDgw9s8k56j6i23qZAj2BhH+qX+ZbXSjOxS2IP6+Ote784IdpFMQ3Sgal+7oEAesoScSM9W3rb+o1j4ugQ8G4v8D/ZnB8lSHCuQrkxOHQ6uoqMhc02a3dgeckAPEXEpKimppaVH79u1TsbGx4pn7n0Ec4X0gwf34hRbT9soOPFOcysjDSevjOo5gcI/dk0lZpt0VfS2DXXppwQaAoXprWqFaNWFWr4o7O/h9i+Ommn93Qn+mk7AnBm5xQob6eEa5GnuXs9N/dwiNPDo2TdV1NJuOF3abFkYU0YhRpWjE7UmV33f5/TOMB4lNxMmmhaBaOWGm2pRR7Nqo8k78+hAwUb//4xeaHYV2IvT4E6L+xL80YBWjHRwclo+fYZrQn77cbutlYQTJbVqbPtfkcAYqtukLDgtsWMxP8p+cHDwQVEv1Rv5uVlnAQhQ7fKPjjAg81tGiWjuZN31D7lP23Qnqw5wl6uGxzkWcBULzRS1yz13pMPMmWDcIC/53rhlZPeERvR4LQtqMSeDnoENLu/MBuqH0BEHFtTAf6bUYKNneDgTgsvEPmOfjQGdnb1iLeLk2aHuzMm2WYxFnwTso0fYGwUMXjWCdErpDzuYSbRPfm77IVOO7ZbIel7zYiaZPMvnFTuzNNG1vtuU8bqpfnYo4C977s3otsu6xqU7mDdXiz6f41ebM4t6V4UMMwqlUpzY0NKiCggLl8/kcrd0BlSPXE3PHzPbtJtGvvLw8YLWG0P+wMW479YPaeup71d55yYgByyAg+Li4cZLeuDfphegLYSMOxKE/z6g1hz4zyfMYPGtzRiiw8XIyXZU2U72U6qxFkh3kIG04tlvtbDqsLvzTaQyQ9YyEKRBECJSNvvl9Jm+7Yfe5k+r1I1+a1miEsq32aFxoHHVnhBEo67TYKI4LnhvhBsI6rxz+XO1va1AXtWi1ugpgJhAnXCaKB2/dlLmenIoZv4rGH9U7J/YajyDJ3taYDtPzZrh+Rio3386Yb0JdXoCwWq3nzXH9JyGenvOGC2GfS31QvTxxtvn5f4Uij/VHvzZ5Xh36a2ve8HkIDTyGiI2NvgWKS369oPbsMfXGkVrVrN8nY3pz3twYU+bnm1PyzQbuBbSfowCCpvq0hrPSH6wxRaSSfI+A8wK2pPd/PaC21n9n5s3Vbs+IveEZSf/YklWq0kf1rgYOBQ4dqw5Wm7w5DnTWvGEtIrzG6HmzQtsbBJwXsN6xN1W/HTZh5VvzhmfUa1HPG6IiWzJKVIyDNAMnkMP66k816syl8+rKtVs2lWfEhnOx99r0xzyzN390XlYrDlapA7+fNkUct+zNHUYEU2i1QAvbzZkLzM+GOtyWQGEDBZ9cMTJ5srO2kTCghRwg5iiAoKy+rKxMpaY6yw8SvKfzWpepMjuvT1uEBll83BQfo0WVG5e/UzBsGAP6CuL14HtEFRsiXg23nhQnEJ5r7fzLbNA8I0aOO+kwpv1xWsSYslnxjIwvGKEaGW0+k43La3g2PHRUVrJB8hkYVcYUweo1bFJ4kdqv/q269NeYcirTmDe97tjyAAwa1dc0iL/cdV0gR+hnHKXnDV4ju8KUUGDzZ0wZW94pY4oY5hmd5Im6hc9gLeL5sHqyshav34U3sl+2RYQqY8qhh1AdQpU1wTy1S74PBQ6MhOgI7zKHrtsb5s2IfrM37dgbPabYAb5HcIyOGK7nzQjHaRtuwK7xjIwt7xQPGPPmHv18/WFveG/MU9aH5UlmPdB9hwhDf8wb7EybXv8ckBlT1sYovSZ4j07D74MdZNiOHTuMziGcSmGDGy/6gBdygLtx165dqr6+3lSzimdOEARBEIRwxwqnUp2an5+vsrOD3xEajNt+IbAT6ABB+W1CQoJJAsT1KAiCIAiCEK4QcaypqTGahrZboYg4CAuPnAUPTUluU1OTueGYbhCCIAiCIAjhBr1T8cRZOXFui5IswkrIgdUBgvtVCLOKmBMEQRAEIVyg9Vx1dbXxxBFOnT7d/lLpvgiL0Gp3oqKiTJg1MTFRVVZWSphVEARBEISwAGeUFU71QsRB2Ak5QMzhjYuLi7tZ6SEIgiAIgjCQoe1WXV2dKikp8UTEQdiFVruDe5Jqj8bGRpMzl5TkzV1UgiAIgiAIXsE9cVVVVeb2jXnz5pnChlBz4noSlh45i8jISBNmTU5OVhUVFSZvThAEQRAEYaBAOBVPHCIuLy/PeOK8EnEQ1kIOuJoEF2V8fLzJmcM7JwiCIAiCcLvBE1dbW2vCqbTdys3NvfE33hHWodXudHV1GbcljWZLS0vVuHHetIoSBEEQBEEIBauZQWFhocrMzFTDXPYEd8KgEXKA+5KSXgZNEARBEAThdjNnzhzl9/tvfOc9g0rIAWKuoaFBRUd734tPEARBEATBDXSl6k8GnZATBEEQBEEYGij1L7eg0a/KbpzcAAAAAElFTkSuQmCC;direction=north;imageBackground=none;" parent="1" vertex="1">
                    <mxGeometry x="114" y="68" width="181.81" height="347" as="geometry"/>
                </mxCell>
                <mxCell id="44" value="" style="endArrow=none;html=1;strokeWidth=2;fillColor=#cdeb8b;strokeColor=#00FF00;" parent="1" edge="1">
                    <mxGeometry width="50" height="50" relative="1" as="geometry">
                        <mxPoint x="284" y="272" as="sourcePoint"/>
                        <mxPoint x="340" y="245" as="targetPoint"/>
                        <Array as="points">
                            <mxPoint x="281" y="272"/>
                        </Array>
                    </mxGeometry>
                </mxCell>
                <mxCell id="46" value="" style="endArrow=none;html=1;strokeWidth=2;fillColor=#e51400;strokeColor=#B20000;" parent="1" edge="1">
                    <mxGeometry width="50" height="50" relative="1" as="geometry">
                        <mxPoint x="36" y="338" as="sourcePoint"/>
                        <mxPoint x="124" y="338" as="targetPoint"/>
                    </mxGeometry>
                </mxCell>
                <mxCell id="48" value="" style="endArrow=none;html=1;strokeWidth=2;fillColor=#e51400;strokeColor=#B20000;" parent="1" edge="1">
                    <mxGeometry width="50" height="50" relative="1" as="geometry">
                        <mxPoint x="37" y="337" as="sourcePoint"/>
                        <mxPoint x="37" y="472" as="targetPoint"/>
                    </mxGeometry>
                </mxCell>
                <mxCell id="49" value="" style="endArrow=none;html=1;strokeWidth=2;fillColor=#e51400;strokeColor=#B20000;entryX=0;entryY=1;entryDx=0;entryDy=0;" parent="1" target="36" edge="1">
                    <mxGeometry width="50" height="50" relative="1" as="geometry">
                        <mxPoint x="326" y="263" as="sourcePoint"/>
                        <mxPoint x="482.9971428571429" y="263" as="targetPoint"/>
                    </mxGeometry>
                </mxCell>
                <mxCell id="50" value="" style="endArrow=none;html=1;strokeWidth=2;fillColor=#e51400;strokeColor=#B20000;" parent="1" edge="1">
                    <mxGeometry width="50" height="50" relative="1" as="geometry">
                        <mxPoint x="327" y="-69" as="sourcePoint"/>
                        <mxPoint x="327" y="473" as="targetPoint"/>
                    </mxGeometry>
                </mxCell>
                <mxCell id="51" value="" style="endArrow=none;html=1;strokeWidth=2;fillColor=#e51400;strokeColor=#B20000;" parent="1" edge="1">
                    <mxGeometry width="50" height="50" relative="1" as="geometry">
                        <mxPoint x="36" y="472" as="sourcePoint"/>
                        <mxPoint x="327" y="472" as="targetPoint"/>
                    </mxGeometry>
                </mxCell>
                <mxCell id="53" value="" style="endArrow=none;html=1;strokeWidth=2;fillColor=#a0522d;strokeColor=#000000;" parent="1" edge="1">
                    <mxGeometry width="50" height="50" relative="1" as="geometry">
                        <mxPoint x="16" y="318" as="sourcePoint"/>
                        <mxPoint x="125" y="318" as="targetPoint"/>
                    </mxGeometry>
                </mxCell>
                <mxCell id="56" value="" style="endArrow=none;html=1;strokeWidth=2;fillColor=#a0522d;strokeColor=#000000;" parent="1" edge="1">
                    <mxGeometry width="50" height="50" relative="1" as="geometry">
                        <mxPoint x="17" y="487" as="sourcePoint"/>
                        <mxPoint x="348" y="486" as="targetPoint"/>
                    </mxGeometry>
                </mxCell>
                <mxCell id="57" value="" style="endArrow=none;html=1;strokeWidth=2;fillColor=#a0522d;strokeColor=#000000;entryX=-0.067;entryY=0.877;entryDx=0;entryDy=0;entryPerimeter=0;" parent="1" target="37" edge="1">
                    <mxGeometry width="50" height="50" relative="1" as="geometry">
                        <mxPoint x="346" y="279" as="sourcePoint"/>
                        <mxPoint x="482.9971428571429" y="279" as="targetPoint"/>
                    </mxGeometry>
                </mxCell>
                <mxCell id="58" value="" style="endArrow=none;html=1;strokeWidth=2;fillColor=#a0522d;strokeColor=#000000;" parent="1" edge="1">
                    <mxGeometry width="50" height="50" relative="1" as="geometry">
                        <mxPoint x="347" y="-51" as="sourcePoint"/>
                        <mxPoint x="347" y="487" as="targetPoint"/>
                    </mxGeometry>
                </mxCell>
                <mxCell id="78" value="" style="group" parent="1" vertex="1" connectable="0">
                    <mxGeometry x="402" y="229" width="177.96000000000004" height="63" as="geometry"/>
                </mxCell>
                <mxCell id="31" value="Rele" style="rounded=0;whiteSpace=wrap;html=1;fillColor=#d0cee2;strokeColor=#56517e;" parent="78" vertex="1">
                    <mxGeometry x="29" y="3" width="120" height="60" as="geometry"/>
                </mxCell>
                <mxCell id="32" value="" style="endArrow=none;html=1;entryX=0.008;entryY=0.217;entryDx=0;entryDy=0;entryPerimeter=0;strokeWidth=2;" parent="78" edge="1">
                    <mxGeometry width="50" height="50" relative="1" as="geometry">
                        <mxPoint y="16" as="sourcePoint"/>
                        <mxPoint x="28.960000000000036" y="16.02000000000021" as="targetPoint"/>
                    </mxGeometry>
                </mxCell>
                <mxCell id="33" value="" style="endArrow=none;html=1;entryX=0.008;entryY=0.217;entryDx=0;entryDy=0;entryPerimeter=0;strokeWidth=2;" parent="78" edge="1">
                    <mxGeometry width="50" height="50" relative="1" as="geometry">
                        <mxPoint y="33.00000000000023" as="sourcePoint"/>
                        <mxPoint x="28.960000000000036" y="33.02000000000021" as="targetPoint"/>
                    </mxGeometry>
                </mxCell>
                <mxCell id="34" value="" style="endArrow=none;html=1;entryX=0.008;entryY=0.217;entryDx=0;entryDy=0;entryPerimeter=0;strokeWidth=2;" parent="78" edge="1">
                    <mxGeometry width="50" height="50" relative="1" as="geometry">
                        <mxPoint y="51" as="sourcePoint"/>
                        <mxPoint x="28.960000000000036" y="51.02000000000021" as="targetPoint"/>
                    </mxGeometry>
                </mxCell>
                <mxCell id="35" value="SIG" style="text;html=1;strokeColor=none;fillColor=none;align=center;verticalAlign=middle;whiteSpace=wrap;rounded=0;" parent="78" vertex="1">
                    <mxGeometry x="2" width="24" height="16" as="geometry"/>
                </mxCell>
                <mxCell id="36" value="5v" style="text;html=1;strokeColor=none;fillColor=none;align=center;verticalAlign=middle;whiteSpace=wrap;rounded=0;" parent="78" vertex="1">
                    <mxGeometry x="2" y="18" width="24" height="16" as="geometry"/>
                </mxCell>
                <mxCell id="37" value="GND" style="text;html=1;strokeColor=none;fillColor=none;align=center;verticalAlign=middle;whiteSpace=wrap;rounded=0;" parent="78" vertex="1">
                    <mxGeometry x="2" y="36" width="24" height="16" as="geometry"/>
                </mxCell>
                <mxCell id="39" value="" style="endArrow=none;html=1;entryX=0.008;entryY=0.217;entryDx=0;entryDy=0;entryPerimeter=0;strokeWidth=2;" parent="78" edge="1">
                    <mxGeometry width="50" height="50" relative="1" as="geometry">
                        <mxPoint x="149" y="25.659999999999997" as="sourcePoint"/>
                        <mxPoint x="177.96000000000004" y="25.680000000000206" as="targetPoint"/>
                    </mxGeometry>
                </mxCell>
                <mxCell id="40" value="CO" style="text;html=1;strokeColor=none;fillColor=none;align=center;verticalAlign=middle;whiteSpace=wrap;rounded=0;" parent="78" vertex="1">
                    <mxGeometry x="151" y="9.659999999999997" width="24" height="16" as="geometry"/>
                </mxCell>
                <mxCell id="41" value="" style="endArrow=none;html=1;entryX=0.008;entryY=0.217;entryDx=0;entryDy=0;entryPerimeter=0;strokeWidth=2;" parent="78" edge="1">
                    <mxGeometry width="50" height="50" relative="1" as="geometry">
                        <mxPoint x="149" y="47" as="sourcePoint"/>
                        <mxPoint x="177.96000000000004" y="47.02000000000021" as="targetPoint"/>
                    </mxGeometry>
                </mxCell>
                <mxCell id="42" value="N/F" style="text;html=1;strokeColor=none;fillColor=none;align=center;verticalAlign=middle;whiteSpace=wrap;rounded=0;" parent="78" vertex="1">
                    <mxGeometry x="151" y="31" width="24" height="16" as="geometry"/>
                </mxCell>
                <mxCell id="80" value="Sensor&amp;nbsp;&lt;br&gt;Umidade" style="rounded=0;whiteSpace=wrap;html=1;fillColor=#dae8fc;strokeColor=#6c8ebf;" parent="1" vertex="1">
                    <mxGeometry x="2" y="17" width="72" height="135" as="geometry"/>
                </mxCell>
                <mxCell id="85" value="5v" style="text;html=1;strokeColor=none;fillColor=none;align=center;verticalAlign=middle;whiteSpace=wrap;rounded=0;" parent="1" vertex="1">
                    <mxGeometry x="37" y="155" width="18" height="16" as="geometry"/>
                </mxCell>
                <mxCell id="87" value="" style="endArrow=none;html=1;strokeWidth=2;exitX=0.5;exitY=1;exitDx=0;exitDy=0;" parent="1" edge="1">
                    <mxGeometry width="50" height="50" relative="1" as="geometry">
                        <mxPoint x="37" y="152" as="sourcePoint"/>
                        <mxPoint x="37" y="172" as="targetPoint"/>
                    </mxGeometry>
                </mxCell>
                <mxCell id="88" value="GND" style="text;html=1;strokeColor=none;fillColor=none;align=center;verticalAlign=middle;whiteSpace=wrap;rounded=0;" parent="1" vertex="1">
                    <mxGeometry x="-14" y="155" width="24" height="16" as="geometry"/>
                </mxCell>
                <mxCell id="89" value="" style="endArrow=none;html=1;strokeWidth=2;exitX=0.75;exitY=1;exitDx=0;exitDy=0;" parent="1" edge="1">
                    <mxGeometry width="50" height="50" relative="1" as="geometry">
                        <mxPoint x="60" y="152" as="sourcePoint"/>
                        <mxPoint x="60" y="172" as="targetPoint"/>
                        <Array as="points">
                            <mxPoint x="60" y="163"/>
                        </Array>
                    </mxGeometry>
                </mxCell>
                <mxCell id="90" value="SIG" style="text;html=1;strokeColor=none;fillColor=none;align=center;verticalAlign=middle;whiteSpace=wrap;rounded=0;" parent="1" vertex="1">
                    <mxGeometry x="59" y="155" width="24" height="16" as="geometry"/>
                </mxCell>
                <mxCell id="91" value="" style="endArrow=none;html=1;strokeWidth=2;exitX=0.5;exitY=1;exitDx=0;exitDy=0;" parent="1" edge="1">
                    <mxGeometry width="50" height="50" relative="1" as="geometry">
                        <mxPoint x="16" y="152" as="sourcePoint"/>
                        <mxPoint x="16" y="172" as="targetPoint"/>
                    </mxGeometry>
                </mxCell>
                <mxCell id="96" value="" style="endArrow=none;html=1;strokeWidth=2;fillColor=#e51400;strokeColor=#B20000;" parent="1" edge="1">
                    <mxGeometry width="50" height="50" relative="1" as="geometry">
                        <mxPoint x="37" y="171" as="sourcePoint"/>
                        <mxPoint x="37" y="337" as="targetPoint"/>
                    </mxGeometry>
                </mxCell>
                <mxCell id="97" value="" style="endArrow=none;html=1;strokeWidth=2;fillColor=#a0522d;strokeColor=#000000;" parent="1" edge="1">
                    <mxGeometry width="50" height="50" relative="1" as="geometry">
                        <mxPoint x="16" y="172" as="sourcePoint"/>
                        <mxPoint x="17" y="488" as="targetPoint"/>
                    </mxGeometry>
                </mxCell>
                <mxCell id="102" value="" style="endArrow=none;html=1;strokeWidth=2;fillColor=#0050ef;strokeColor=#001DBC;" parent="1" edge="1">
                    <mxGeometry width="50" height="50" relative="1" as="geometry">
                        <mxPoint x="60" y="171" as="sourcePoint"/>
                        <mxPoint x="60" y="209" as="targetPoint"/>
                    </mxGeometry>
                </mxCell>
                <mxCell id="103" value="" style="endArrow=none;html=1;strokeWidth=2;fillColor=#0050ef;strokeColor=#001DBC;" parent="1" edge="1">
                    <mxGeometry width="50" height="50" relative="1" as="geometry">
                        <mxPoint x="126" y="210" as="sourcePoint"/>
                        <mxPoint x="59" y="210" as="targetPoint"/>
                    </mxGeometry>
                </mxCell>
                <mxCell id="109" value="" style="endArrow=none;html=1;strokeWidth=2;fillColor=#e51400;strokeColor=#B20000;" parent="1" edge="1">
                    <mxGeometry width="50" height="50" relative="1" as="geometry">
                        <mxPoint x="578" y="255" as="sourcePoint"/>
                        <mxPoint x="823" y="254" as="targetPoint"/>
                    </mxGeometry>
                </mxCell>
                <mxCell id="111" value="" style="group" parent="1" vertex="1" connectable="0">
                    <mxGeometry x="802" y="173" width="60" height="64" as="geometry"/>
                </mxCell>
                <mxCell id="105" value="" style="triangle;whiteSpace=wrap;html=1;strokeWidth=2;direction=north;fillColor=#e51400;fontColor=#ffffff;strokeColor=#B20000;" parent="111" vertex="1">
                    <mxGeometry x="13" y="27" width="34" height="28" as="geometry"/>
                </mxCell>
                <mxCell id="106" value="&lt;font style=&quot;font-size: 17px;&quot;&gt;110v&lt;/font&gt;" style="text;html=1;strokeColor=none;fillColor=none;align=center;verticalAlign=middle;whiteSpace=wrap;rounded=0;strokeWidth=2;" parent="111" vertex="1">
                    <mxGeometry width="60" height="30" as="geometry"/>
                </mxCell>
                <mxCell id="107" value="" style="endArrow=none;html=1;strokeWidth=2;exitX=0;exitY=0.75;exitDx=0;exitDy=0;" parent="111" source="105" edge="1">
                    <mxGeometry width="50" height="50" relative="1" as="geometry">
                        <mxPoint x="31.039999999999964" y="63.000000000000085" as="sourcePoint"/>
                        <mxPoint x="38" y="64" as="targetPoint"/>
                    </mxGeometry>
                </mxCell>
                <mxCell id="108" value="" style="endArrow=none;html=1;strokeWidth=2;exitX=0;exitY=0.25;exitDx=0;exitDy=0;" parent="111" source="105" edge="1">
                    <mxGeometry width="50" height="50" relative="1" as="geometry">
                        <mxPoint x="23" y="57" as="sourcePoint"/>
                        <mxPoint x="21" y="64" as="targetPoint"/>
                    </mxGeometry>
                </mxCell>
                <mxCell id="112" value="Bomba" style="rounded=0;whiteSpace=wrap;html=1;fillColor=#b1ddf0;strokeColor=#10739e;" parent="1" vertex="1">
                    <mxGeometry x="606" y="332.74" width="93" height="67" as="geometry"/>
                </mxCell>
                <mxCell id="113" value="" style="endArrow=none;html=1;strokeWidth=2;exitX=0.671;exitY=0.011;exitDx=0;exitDy=0;exitPerimeter=0;" parent="1" source="112" edge="1">
                    <mxGeometry width="50" height="50" relative="1" as="geometry">
                        <mxPoint x="747.5000000000005" y="132.74" as="sourcePoint"/>
                        <mxPoint x="668" y="279" as="targetPoint"/>
                    </mxGeometry>
                </mxCell>
                <mxCell id="114" value="" style="endArrow=none;html=1;strokeWidth=2;exitX=0.671;exitY=0.011;exitDx=0;exitDy=0;exitPerimeter=0;" parent="1" edge="1">
                    <mxGeometry width="50" height="50" relative="1" as="geometry">
                        <mxPoint x="640.403" y="332.73699999999985" as="sourcePoint"/>
                        <mxPoint x="640" y="316" as="targetPoint"/>
                    </mxGeometry>
                </mxCell>
                <mxCell id="117" value="" style="endArrow=none;html=1;strokeWidth=2;fillColor=#f0a30a;strokeColor=#00FF00;" parent="1" edge="1">
                    <mxGeometry width="50" height="50" relative="1" as="geometry">
                        <mxPoint x="339" y="245" as="sourcePoint"/>
                        <mxPoint x="404" y="245" as="targetPoint"/>
                    </mxGeometry>
                </mxCell>
                <mxCell id="119" value="" style="endArrow=none;html=1;strokeWidth=2;fillColor=#e51400;strokeColor=#B20000;" parent="1" edge="1">
                    <mxGeometry width="50" height="50" relative="1" as="geometry">
                        <mxPoint x="579.96" y="276" as="sourcePoint"/>
                        <mxPoint x="639" y="275" as="targetPoint"/>
                    </mxGeometry>
                </mxCell>
                <mxCell id="120" value="" style="endArrow=none;html=1;strokeWidth=2;fillColor=#e51400;strokeColor=#B20000;" parent="1" edge="1">
                    <mxGeometry width="50" height="50" relative="1" as="geometry">
                        <mxPoint x="639" y="275" as="sourcePoint"/>
                        <mxPoint x="640" y="317" as="targetPoint"/>
                    </mxGeometry>
                </mxCell>
                <mxCell id="126" value="" style="group" parent="1" vertex="1" connectable="0">
                    <mxGeometry x="401" y="116" width="177.96000000000004" height="63" as="geometry"/>
                </mxCell>
                <mxCell id="127" value="Rele" style="rounded=0;whiteSpace=wrap;html=1;fillColor=#d0cee2;strokeColor=#56517e;" parent="126" vertex="1">
                    <mxGeometry x="29" y="3" width="120" height="60" as="geometry"/>
                </mxCell>
                <mxCell id="128" value="" style="endArrow=none;html=1;entryX=0.008;entryY=0.217;entryDx=0;entryDy=0;entryPerimeter=0;strokeWidth=2;" parent="126" edge="1">
                    <mxGeometry width="50" height="50" relative="1" as="geometry">
                        <mxPoint y="16" as="sourcePoint"/>
                        <mxPoint x="28.960000000000036" y="16.02000000000021" as="targetPoint"/>
                    </mxGeometry>
                </mxCell>
                <mxCell id="129" value="" style="endArrow=none;html=1;entryX=0.008;entryY=0.217;entryDx=0;entryDy=0;entryPerimeter=0;strokeWidth=2;" parent="126" edge="1">
                    <mxGeometry width="50" height="50" relative="1" as="geometry">
                        <mxPoint y="33.00000000000023" as="sourcePoint"/>
                        <mxPoint x="28.960000000000036" y="33.02000000000021" as="targetPoint"/>
                    </mxGeometry>
                </mxCell>
                <mxCell id="130" value="" style="endArrow=none;html=1;entryX=0.008;entryY=0.217;entryDx=0;entryDy=0;entryPerimeter=0;strokeWidth=2;" parent="126" edge="1">
                    <mxGeometry width="50" height="50" relative="1" as="geometry">
                        <mxPoint y="51" as="sourcePoint"/>
                        <mxPoint x="28.960000000000036" y="51.02000000000021" as="targetPoint"/>
                    </mxGeometry>
                </mxCell>
                <mxCell id="131" value="SIG" style="text;html=1;strokeColor=none;fillColor=none;align=center;verticalAlign=middle;whiteSpace=wrap;rounded=0;" parent="126" vertex="1">
                    <mxGeometry x="2" width="24" height="16" as="geometry"/>
                </mxCell>
                <mxCell id="132" value="5v" style="text;html=1;strokeColor=none;fillColor=none;align=center;verticalAlign=middle;whiteSpace=wrap;rounded=0;" parent="126" vertex="1">
                    <mxGeometry x="2" y="18" width="24" height="16" as="geometry"/>
                </mxCell>
                <mxCell id="133" value="GND" style="text;html=1;strokeColor=none;fillColor=none;align=center;verticalAlign=middle;whiteSpace=wrap;rounded=0;" parent="126" vertex="1">
                    <mxGeometry x="2" y="36" width="24" height="16" as="geometry"/>
                </mxCell>
                <mxCell id="134" value="" style="endArrow=none;html=1;entryX=0.008;entryY=0.217;entryDx=0;entryDy=0;entryPerimeter=0;strokeWidth=2;" parent="126" edge="1">
                    <mxGeometry width="50" height="50" relative="1" as="geometry">
                        <mxPoint x="149" y="25.659999999999997" as="sourcePoint"/>
                        <mxPoint x="177.96000000000004" y="25.680000000000206" as="targetPoint"/>
                    </mxGeometry>
                </mxCell>
                <mxCell id="135" value="CO" style="text;html=1;strokeColor=none;fillColor=none;align=center;verticalAlign=middle;whiteSpace=wrap;rounded=0;" parent="126" vertex="1">
                    <mxGeometry x="151" y="9.659999999999997" width="24" height="16" as="geometry"/>
                </mxCell>
                <mxCell id="136" value="" style="endArrow=none;html=1;entryX=0.008;entryY=0.217;entryDx=0;entryDy=0;entryPerimeter=0;strokeWidth=2;" parent="126" edge="1">
                    <mxGeometry width="50" height="50" relative="1" as="geometry">
                        <mxPoint x="149" y="47" as="sourcePoint"/>
                        <mxPoint x="177.96000000000004" y="47.02000000000021" as="targetPoint"/>
                    </mxGeometry>
                </mxCell>
                <mxCell id="137" value="N/F" style="text;html=1;strokeColor=none;fillColor=none;align=center;verticalAlign=middle;whiteSpace=wrap;rounded=0;" parent="126" vertex="1">
                    <mxGeometry x="151" y="31" width="24" height="16" as="geometry"/>
                </mxCell>
                <mxCell id="138" value="" style="group" parent="1" vertex="1" connectable="0">
                    <mxGeometry x="401" y="10" width="177.96000000000004" height="63" as="geometry"/>
                </mxCell>
                <mxCell id="139" value="Rele" style="rounded=0;whiteSpace=wrap;html=1;fillColor=#d0cee2;strokeColor=#56517e;" parent="138" vertex="1">
                    <mxGeometry x="29" y="3" width="120" height="60" as="geometry"/>
                </mxCell>
                <mxCell id="140" value="" style="endArrow=none;html=1;entryX=0.008;entryY=0.217;entryDx=0;entryDy=0;entryPerimeter=0;strokeWidth=2;" parent="138" edge="1">
                    <mxGeometry width="50" height="50" relative="1" as="geometry">
                        <mxPoint y="16" as="sourcePoint"/>
                        <mxPoint x="28.960000000000036" y="16.02000000000021" as="targetPoint"/>
                    </mxGeometry>
                </mxCell>
                <mxCell id="141" value="" style="endArrow=none;html=1;entryX=0.008;entryY=0.217;entryDx=0;entryDy=0;entryPerimeter=0;strokeWidth=2;" parent="138" edge="1">
                    <mxGeometry width="50" height="50" relative="1" as="geometry">
                        <mxPoint y="33.00000000000023" as="sourcePoint"/>
                        <mxPoint x="28.960000000000036" y="33.02000000000021" as="targetPoint"/>
                    </mxGeometry>
                </mxCell>
                <mxCell id="142" value="" style="endArrow=none;html=1;entryX=0.008;entryY=0.217;entryDx=0;entryDy=0;entryPerimeter=0;strokeWidth=2;" parent="138" edge="1">
                    <mxGeometry width="50" height="50" relative="1" as="geometry">
                        <mxPoint y="51" as="sourcePoint"/>
                        <mxPoint x="28.960000000000036" y="51.02000000000021" as="targetPoint"/>
                    </mxGeometry>
                </mxCell>
                <mxCell id="143" value="SIG" style="text;html=1;strokeColor=none;fillColor=none;align=center;verticalAlign=middle;whiteSpace=wrap;rounded=0;" parent="138" vertex="1">
                    <mxGeometry x="2" width="24" height="16" as="geometry"/>
                </mxCell>
                <mxCell id="144" value="5v" style="text;html=1;strokeColor=none;fillColor=none;align=center;verticalAlign=middle;whiteSpace=wrap;rounded=0;" parent="138" vertex="1">
                    <mxGeometry x="2" y="18" width="24" height="16" as="geometry"/>
                </mxCell>
                <mxCell id="145" value="GND" style="text;html=1;strokeColor=none;fillColor=none;align=center;verticalAlign=middle;whiteSpace=wrap;rounded=0;" parent="138" vertex="1">
                    <mxGeometry x="2" y="36" width="24" height="16" as="geometry"/>
                </mxCell>
                <mxCell id="146" value="" style="endArrow=none;html=1;entryX=0.008;entryY=0.217;entryDx=0;entryDy=0;entryPerimeter=0;strokeWidth=2;" parent="138" edge="1">
                    <mxGeometry width="50" height="50" relative="1" as="geometry">
                        <mxPoint x="149" y="25.659999999999997" as="sourcePoint"/>
                        <mxPoint x="177.96000000000004" y="25.680000000000206" as="targetPoint"/>
                    </mxGeometry>
                </mxCell>
                <mxCell id="147" value="CO" style="text;html=1;strokeColor=none;fillColor=none;align=center;verticalAlign=middle;whiteSpace=wrap;rounded=0;" parent="138" vertex="1">
                    <mxGeometry x="151" y="9.659999999999997" width="24" height="16" as="geometry"/>
                </mxCell>
                <mxCell id="148" value="" style="endArrow=none;html=1;entryX=0.008;entryY=0.217;entryDx=0;entryDy=0;entryPerimeter=0;strokeWidth=2;" parent="138" edge="1">
                    <mxGeometry width="50" height="50" relative="1" as="geometry">
                        <mxPoint x="149" y="47" as="sourcePoint"/>
                        <mxPoint x="177.96000000000004" y="47.02000000000021" as="targetPoint"/>
                    </mxGeometry>
                </mxCell>
                <mxCell id="149" value="N/F" style="text;html=1;strokeColor=none;fillColor=none;align=center;verticalAlign=middle;whiteSpace=wrap;rounded=0;" parent="138" vertex="1">
                    <mxGeometry x="151" y="31" width="24" height="16" as="geometry"/>
                </mxCell>
                <mxCell id="150" value="" style="group" parent="1" vertex="1" connectable="0">
                    <mxGeometry x="402" y="-102" width="177.96000000000004" height="63" as="geometry"/>
                </mxCell>
                <mxCell id="151" value="Rele" style="rounded=0;whiteSpace=wrap;html=1;fillColor=#d0cee2;strokeColor=#56517e;" parent="150" vertex="1">
                    <mxGeometry x="29" y="3" width="120" height="60" as="geometry"/>
                </mxCell>
                <mxCell id="152" value="" style="endArrow=none;html=1;entryX=0.008;entryY=0.217;entryDx=0;entryDy=0;entryPerimeter=0;strokeWidth=2;" parent="150" edge="1">
                    <mxGeometry width="50" height="50" relative="1" as="geometry">
                        <mxPoint y="16" as="sourcePoint"/>
                        <mxPoint x="28.960000000000036" y="16.02000000000021" as="targetPoint"/>
                    </mxGeometry>
                </mxCell>
                <mxCell id="153" value="" style="endArrow=none;html=1;entryX=0.008;entryY=0.217;entryDx=0;entryDy=0;entryPerimeter=0;strokeWidth=2;" parent="150" edge="1">
                    <mxGeometry width="50" height="50" relative="1" as="geometry">
                        <mxPoint y="33.00000000000023" as="sourcePoint"/>
                        <mxPoint x="28.960000000000036" y="33.02000000000021" as="targetPoint"/>
                    </mxGeometry>
                </mxCell>
                <mxCell id="154" value="" style="endArrow=none;html=1;entryX=0.008;entryY=0.217;entryDx=0;entryDy=0;entryPerimeter=0;strokeWidth=2;" parent="150" edge="1">
                    <mxGeometry width="50" height="50" relative="1" as="geometry">
                        <mxPoint y="51" as="sourcePoint"/>
                        <mxPoint x="28.960000000000036" y="51.02000000000021" as="targetPoint"/>
                    </mxGeometry>
                </mxCell>
                <mxCell id="155" value="SIG" style="text;html=1;strokeColor=none;fillColor=none;align=center;verticalAlign=middle;whiteSpace=wrap;rounded=0;" parent="150" vertex="1">
                    <mxGeometry x="2" width="24" height="16" as="geometry"/>
                </mxCell>
                <mxCell id="156" value="5v" style="text;html=1;strokeColor=none;fillColor=none;align=center;verticalAlign=middle;whiteSpace=wrap;rounded=0;" parent="150" vertex="1">
                    <mxGeometry x="2" y="18" width="24" height="16" as="geometry"/>
                </mxCell>
                <mxCell id="157" value="GND" style="text;html=1;strokeColor=none;fillColor=none;align=center;verticalAlign=middle;whiteSpace=wrap;rounded=0;" parent="150" vertex="1">
                    <mxGeometry x="2" y="36" width="24" height="16" as="geometry"/>
                </mxCell>
                <mxCell id="158" value="" style="endArrow=none;html=1;entryX=0.008;entryY=0.217;entryDx=0;entryDy=0;entryPerimeter=0;strokeWidth=2;" parent="150" edge="1">
                    <mxGeometry width="50" height="50" relative="1" as="geometry">
                        <mxPoint x="149" y="25.659999999999997" as="sourcePoint"/>
                        <mxPoint x="177.96000000000004" y="25.680000000000206" as="targetPoint"/>
                    </mxGeometry>
                </mxCell>
                <mxCell id="159" value="CO" style="text;html=1;strokeColor=none;fillColor=none;align=center;verticalAlign=middle;whiteSpace=wrap;rounded=0;" parent="150" vertex="1">
                    <mxGeometry x="151" y="9.659999999999997" width="24" height="16" as="geometry"/>
                </mxCell>
                <mxCell id="160" value="" style="endArrow=none;html=1;entryX=0.008;entryY=0.217;entryDx=0;entryDy=0;entryPerimeter=0;strokeWidth=2;" parent="150" edge="1">
                    <mxGeometry width="50" height="50" relative="1" as="geometry">
                        <mxPoint x="149" y="47" as="sourcePoint"/>
                        <mxPoint x="177.96000000000004" y="47.02000000000021" as="targetPoint"/>
                    </mxGeometry>
                </mxCell>
                <mxCell id="161" value="N/F" style="text;html=1;strokeColor=none;fillColor=none;align=center;verticalAlign=middle;whiteSpace=wrap;rounded=0;" parent="150" vertex="1">
                    <mxGeometry x="151" y="31" width="24" height="16" as="geometry"/>
                </mxCell>
                <mxCell id="162" style="edgeStyle=none;html=1;exitX=0;exitY=1;exitDx=0;exitDy=0;endArrow=none;endFill=0;fillColor=#e51400;strokeColor=#B20000;" parent="1" source="156" edge="1">
                    <mxGeometry relative="1" as="geometry">
                        <mxPoint x="327.1481085883247" y="-68.11111111111109" as="targetPoint"/>
                    </mxGeometry>
                </mxCell>
                <mxCell id="163" style="edgeStyle=none;html=1;exitX=0;exitY=1;exitDx=0;exitDy=0;endArrow=none;endFill=0;fillColor=#e51400;strokeColor=#B20000;" parent="1" source="144" edge="1">
                    <mxGeometry relative="1" as="geometry">
                        <mxPoint x="327.8518998887803" y="44.111111111111086" as="targetPoint"/>
                    </mxGeometry>
                </mxCell>
                <mxCell id="164" style="edgeStyle=none;html=1;exitX=0;exitY=1;exitDx=0;exitDy=0;endArrow=none;endFill=0;fillColor=#e51400;strokeColor=#B20000;" parent="1" source="132" edge="1">
                    <mxGeometry relative="1" as="geometry">
                        <mxPoint x="327" y="149" as="targetPoint"/>
                    </mxGeometry>
                </mxCell>
                <mxCell id="165" style="edgeStyle=none;html=1;exitX=0;exitY=1;exitDx=0;exitDy=0;endArrow=none;endFill=0;" parent="1" source="133" edge="1">
                    <mxGeometry relative="1" as="geometry">
                        <mxPoint x="347.1025954026443" y="168.03846153846143" as="targetPoint"/>
                    </mxGeometry>
                </mxCell>
                <mxCell id="166" style="edgeStyle=none;html=1;exitX=0;exitY=1;exitDx=0;exitDy=0;endArrow=none;endFill=0;" parent="1" source="145" edge="1">
                    <mxGeometry relative="1" as="geometry">
                        <mxPoint x="346.8461890587439" y="62.076923076923094" as="targetPoint"/>
                    </mxGeometry>
                </mxCell>
                <mxCell id="167" style="edgeStyle=none;html=1;exitX=0;exitY=1;exitDx=0;exitDy=0;endArrow=none;endFill=0;" parent="1" source="157" edge="1">
                    <mxGeometry relative="1" as="geometry">
                        <mxPoint x="347.7436229999248" y="-50.03846153846166" as="targetPoint"/>
                    </mxGeometry>
                </mxCell>
                <mxCell id="168" value="Sensor&amp;nbsp;&lt;br&gt;Temperatura" style="rounded=0;whiteSpace=wrap;html=1;fillColor=#fff2cc;strokeColor=#d6b656;" parent="1" vertex="1">
                    <mxGeometry x="-151" y="17" width="72" height="135" as="geometry"/>
                </mxCell>
                <mxCell id="170" value="&lt;font style=&quot;font-size: 8px;&quot;&gt;CS&lt;/font&gt;" style="text;html=1;strokeColor=none;fillColor=none;align=center;verticalAlign=middle;whiteSpace=wrap;rounded=0;" parent="1" vertex="1">
                    <mxGeometry x="-98" y="1" width="18" height="16" as="geometry"/>
                </mxCell>
                <mxCell id="171" value="" style="endArrow=none;html=1;strokeWidth=2;exitX=0.5;exitY=1;exitDx=0;exitDy=0;" parent="1" edge="1">
                    <mxGeometry width="50" height="50" relative="1" as="geometry">
                        <mxPoint x="-98" y="-3" as="sourcePoint"/>
                        <mxPoint x="-98" y="17" as="targetPoint"/>
                    </mxGeometry>
                </mxCell>
                <mxCell id="173" value="" style="endArrow=none;html=1;strokeWidth=2;exitX=0.75;exitY=1;exitDx=0;exitDy=0;" parent="1" edge="1">
                    <mxGeometry width="50" height="50" relative="1" as="geometry">
                        <mxPoint x="-83" y="-3" as="sourcePoint"/>
                        <mxPoint x="-83" y="17" as="targetPoint"/>
                        <Array as="points">
                            <mxPoint x="-83" y="8"/>
                        </Array>
                    </mxGeometry>
                </mxCell>
                <mxCell id="175" value="" style="endArrow=none;html=1;strokeWidth=2;" parent="1" edge="1">
                    <mxGeometry width="50" height="50" relative="1" as="geometry">
                        <mxPoint x="-150" y="-3" as="sourcePoint"/>
                        <mxPoint x="-150" y="17" as="targetPoint"/>
                    </mxGeometry>
                </mxCell>
                <mxCell id="176" value="" style="endArrow=none;html=1;strokeWidth=2;exitX=0.5;exitY=1;exitDx=0;exitDy=0;" parent="1" edge="1">
                    <mxGeometry width="50" height="50" relative="1" as="geometry">
                        <mxPoint x="-118" y="-3" as="sourcePoint"/>
                        <mxPoint x="-118" y="17" as="targetPoint"/>
                    </mxGeometry>
                </mxCell>
                <mxCell id="178" value="&lt;font style=&quot;font-size: 8px;&quot;&gt;SO&lt;/font&gt;" style="text;html=1;strokeColor=none;fillColor=none;align=center;verticalAlign=middle;whiteSpace=wrap;rounded=0;" parent="1" vertex="1">
                    <mxGeometry x="-83" y="1" width="18" height="16" as="geometry"/>
                </mxCell>
                <mxCell id="179" value="&lt;font style=&quot;font-size: 8px;&quot;&gt;SCK&lt;/font&gt;" style="text;html=1;strokeColor=none;fillColor=none;align=center;verticalAlign=middle;whiteSpace=wrap;rounded=0;" parent="1" vertex="1">
                    <mxGeometry x="-118" y="1" width="18" height="16" as="geometry"/>
                </mxCell>
                <mxCell id="180" value="&lt;font style=&quot;font-size: 8px;&quot;&gt;VCC&lt;/font&gt;" style="text;html=1;strokeColor=none;fillColor=none;align=center;verticalAlign=middle;whiteSpace=wrap;rounded=0;" parent="1" vertex="1">
                    <mxGeometry x="-136" y="1" width="18" height="16" as="geometry"/>
                </mxCell>
                <mxCell id="181" value="&lt;font style=&quot;font-size: 8px;&quot;&gt;GND&lt;/font&gt;" style="text;html=1;strokeColor=none;fillColor=none;align=center;verticalAlign=middle;whiteSpace=wrap;rounded=0;" parent="1" vertex="1">
                    <mxGeometry x="-176" y="1" width="18" height="16" as="geometry"/>
                </mxCell>
                <mxCell id="182" value="" style="endArrow=none;html=1;fontSize=8;fillColor=#60a917;strokeColor=#2D7600;" parent="1" edge="1">
                    <mxGeometry width="50" height="50" relative="1" as="geometry">
                        <mxPoint x="-83" y="-4" as="sourcePoint"/>
                        <mxPoint x="308" y="-4" as="targetPoint"/>
                    </mxGeometry>
                </mxCell>
                <mxCell id="183" value="" style="endArrow=none;html=1;fontSize=8;fillColor=#60a917;strokeColor=#2D7600;" parent="1" edge="1">
                    <mxGeometry width="50" height="50" relative="1" as="geometry">
                        <mxPoint x="308" y="-4" as="sourcePoint"/>
                        <mxPoint x="307" y="193" as="targetPoint"/>
                    </mxGeometry>
                </mxCell>
                <mxCell id="185" style="edgeStyle=none;html=1;endArrow=none;endFill=0;fillColor=#60a917;strokeColor=#2D7600;" parent="1" edge="1">
                    <mxGeometry relative="1" as="geometry">
                        <mxPoint x="282.00259540264426" y="194.03846153846143" as="targetPoint"/>
                        <mxPoint x="307" y="193" as="sourcePoint"/>
                    </mxGeometry>
                </mxCell>
                <mxCell id="186" style="edgeStyle=none;html=1;endArrow=none;endFill=0;fillColor=#e3c800;strokeColor=#B09500;" parent="1" edge="1">
                    <mxGeometry relative="1" as="geometry">
                        <mxPoint x="281.00259540264415" y="117.03846153846143" as="targetPoint"/>
                        <mxPoint x="301" y="115" as="sourcePoint"/>
                    </mxGeometry>
                </mxCell>
                <mxCell id="187" value="" style="endArrow=none;html=1;fontSize=8;fillColor=#f0a30a;strokeColor=#BD7000;" parent="1" edge="1">
                    <mxGeometry width="50" height="50" relative="1" as="geometry">
                        <mxPoint x="302" y="-23" as="sourcePoint"/>
                        <mxPoint x="301" y="116" as="targetPoint"/>
                    </mxGeometry>
                </mxCell>
                <mxCell id="188" value="" style="endArrow=none;html=1;fontSize=8;fillColor=#f0a30a;strokeColor=#BD7000;" parent="1" edge="1">
                    <mxGeometry width="50" height="50" relative="1" as="geometry">
                        <mxPoint x="-89" y="-22" as="sourcePoint"/>
                        <mxPoint x="302" y="-22" as="targetPoint"/>
                    </mxGeometry>
                </mxCell>
                <mxCell id="189" value="" style="endArrow=none;html=1;fontSize=8;fillColor=#f0a30a;strokeColor=#BD7000;" parent="1" edge="1">
                    <mxGeometry width="50" height="50" relative="1" as="geometry">
                        <mxPoint x="-98" y="-4" as="sourcePoint"/>
                        <mxPoint x="-89" y="-22" as="targetPoint"/>
                    </mxGeometry>
                </mxCell>
                <mxCell id="190" style="edgeStyle=none;html=1;endArrow=none;endFill=0;fillColor=#60a917;strokeColor=#2D7600;" parent="1" edge="1">
                    <mxGeometry relative="1" as="geometry">
                        <mxPoint x="281.00259540264415" y="225.03846153846143" as="targetPoint"/>
                        <mxPoint x="315" y="222" as="sourcePoint"/>
                    </mxGeometry>
                </mxCell>
                <mxCell id="191" value="" style="endArrow=none;html=1;fontSize=8;fillColor=#fa6800;strokeColor=#C73500;" parent="1" edge="1">
                    <mxGeometry width="50" height="50" relative="1" as="geometry">
                        <mxPoint x="316" y="-28" as="sourcePoint"/>
                        <mxPoint x="315" y="222" as="targetPoint"/>
                    </mxGeometry>
                </mxCell>
                <mxCell id="192" value="" style="endArrow=none;html=1;fontSize=8;fillColor=#fa6800;strokeColor=#C73500;" parent="1" edge="1">
                    <mxGeometry width="50" height="50" relative="1" as="geometry">
                        <mxPoint x="-101" y="-29" as="sourcePoint"/>
                        <mxPoint x="316" y="-28" as="targetPoint"/>
                    </mxGeometry>
                </mxCell>
                <mxCell id="193" value="" style="endArrow=none;html=1;fontSize=8;fillColor=#f0a30a;strokeColor=#BD7000;" parent="1" edge="1">
                    <mxGeometry width="50" height="50" relative="1" as="geometry">
                        <mxPoint x="-118" y="-4" as="sourcePoint"/>
                        <mxPoint x="-100" y="-30" as="targetPoint"/>
                    </mxGeometry>
                </mxCell>
                <mxCell id="195" value="" style="endArrow=none;html=1;strokeWidth=2;" parent="1" edge="1">
                    <mxGeometry width="50" height="50" relative="1" as="geometry">
                        <mxPoint x="-136" y="-3" as="sourcePoint"/>
                        <mxPoint x="-136" y="17" as="targetPoint"/>
                    </mxGeometry>
                </mxCell>
                <mxCell id="196" value="" style="endArrow=none;html=1;fontSize=8;fillColor=#fa6800;strokeColor=#000000;" parent="1" edge="1">
                    <mxGeometry width="50" height="50" relative="1" as="geometry">
                        <mxPoint x="-115" y="-51" as="sourcePoint"/>
                        <mxPoint x="347" y="-50" as="targetPoint"/>
                    </mxGeometry>
                </mxCell>
                <mxCell id="197" value="" style="endArrow=none;html=1;fontSize=8;fillColor=#f0a30a;strokeColor=#000000;" parent="1" edge="1">
                    <mxGeometry width="50" height="50" relative="1" as="geometry">
                        <mxPoint x="-149" y="-3" as="sourcePoint"/>
                        <mxPoint x="-114" y="-51" as="targetPoint"/>
                    </mxGeometry>
                </mxCell>
                <mxCell id="198" value="" style="endArrow=none;html=1;fontSize=8;fillColor=#fa6800;strokeColor=#FF0000;" parent="1" edge="1">
                    <mxGeometry width="50" height="50" relative="1" as="geometry">
                        <mxPoint x="-107" y="-40" as="sourcePoint"/>
                        <mxPoint x="326" y="-39" as="targetPoint"/>
                    </mxGeometry>
                </mxCell>
                <mxCell id="199" value="" style="endArrow=none;html=1;fontSize=8;fillColor=#f0a30a;strokeColor=#FF0000;" parent="1" edge="1">
                    <mxGeometry width="50" height="50" relative="1" as="geometry">
                        <mxPoint x="-135" y="-2" as="sourcePoint"/>
                        <mxPoint x="-106" y="-40" as="targetPoint"/>
                    </mxGeometry>
                </mxCell>
                <mxCell id="200" value="LAMPADA" style="rounded=0;whiteSpace=wrap;html=1;fillColor=#f8cecc;strokeColor=#b85450;" parent="1" vertex="1">
                    <mxGeometry x="646" y="85" width="93" height="67" as="geometry"/>
                </mxCell>
                <mxCell id="201" value="COOLER 2" style="rounded=0;whiteSpace=wrap;html=1;fillColor=#f5f5f5;fontColor=#333333;strokeColor=#666666;" parent="1" vertex="1">
                    <mxGeometry x="646" y="-19" width="93" height="67" as="geometry"/>
                </mxCell>
                <mxCell id="202" value="COOLER 1" style="rounded=0;whiteSpace=wrap;html=1;fillColor=#f5f5f5;fontColor=#333333;strokeColor=#666666;" parent="1" vertex="1">
                    <mxGeometry x="647" y="-128" width="93" height="67" as="geometry"/>
                </mxCell>
                <mxCell id="203" style="edgeStyle=none;html=1;endArrow=none;endFill=0;fillColor=#e51400;strokeColor=#B20000;" parent="1" edge="1">
                    <mxGeometry relative="1" as="geometry">
                        <mxPoint x="578.9581085883246" y="-77.00111111111109" as="targetPoint"/>
                        <mxPoint x="602" y="-77" as="sourcePoint"/>
                    </mxGeometry>
                </mxCell>
                <mxCell id="204" value="" style="group" parent="1" vertex="1" connectable="0">
                    <mxGeometry x="763" y="-225" width="60" height="64" as="geometry"/>
                </mxCell>
                <mxCell id="205" value="" style="triangle;whiteSpace=wrap;html=1;strokeWidth=2;direction=north;fillColor=#e51400;fontColor=#ffffff;strokeColor=#B20000;" parent="204" vertex="1">
                    <mxGeometry x="13" y="25" width="34" height="28" as="geometry"/>
                </mxCell>
                <mxCell id="206" value="&lt;font style=&quot;font-size: 17px;&quot;&gt;12v&lt;/font&gt;" style="text;html=1;strokeColor=none;fillColor=none;align=center;verticalAlign=middle;whiteSpace=wrap;rounded=0;strokeWidth=2;" parent="204" vertex="1">
                    <mxGeometry width="60" height="30" as="geometry"/>
                </mxCell>
                <mxCell id="207" value="" style="endArrow=none;html=1;strokeWidth=2;exitX=0;exitY=0.75;exitDx=0;exitDy=0;" parent="204" source="205" edge="1">
                    <mxGeometry width="50" height="50" relative="1" as="geometry">
                        <mxPoint x="31.039999999999964" y="63.000000000000085" as="sourcePoint"/>
                        <mxPoint x="38" y="64" as="targetPoint"/>
                    </mxGeometry>
                </mxCell>
                <mxCell id="208" value="" style="endArrow=none;html=1;strokeWidth=2;exitX=0;exitY=0.25;exitDx=0;exitDy=0;" parent="204" source="205" edge="1">
                    <mxGeometry width="50" height="50" relative="1" as="geometry">
                        <mxPoint x="23" y="57" as="sourcePoint"/>
                        <mxPoint x="21" y="64" as="targetPoint"/>
                    </mxGeometry>
                </mxCell>
                <mxCell id="209" value="" style="endArrow=none;html=1;strokeWidth=2;fillColor=#a0522d;strokeColor=#000000;" parent="1" edge="1">
                    <mxGeometry width="50" height="50" relative="1" as="geometry">
                        <mxPoint x="801" y="-161" as="sourcePoint"/>
                        <mxPoint x="801" y="58" as="targetPoint"/>
                    </mxGeometry>
                </mxCell>
                <mxCell id="210" style="edgeStyle=none;html=1;endArrow=none;endFill=0;" parent="1" edge="1">
                    <mxGeometry relative="1" as="geometry">
                        <mxPoint x="669" y="164" as="targetPoint"/>
                        <mxPoint x="668" y="278" as="sourcePoint"/>
                    </mxGeometry>
                </mxCell>
                <mxCell id="213" style="edgeStyle=none;html=1;endArrow=none;endFill=0;" parent="1" edge="1">
                    <mxGeometry relative="1" as="geometry">
                        <mxPoint x="630" y="137" as="targetPoint"/>
                        <mxPoint x="647" y="137" as="sourcePoint"/>
                    </mxGeometry>
                </mxCell>
                <mxCell id="214" style="edgeStyle=none;html=1;endArrow=none;endFill=0;" parent="1" edge="1">
                    <mxGeometry relative="1" as="geometry">
                        <mxPoint x="630" y="137" as="targetPoint"/>
                        <mxPoint x="630" y="164" as="sourcePoint"/>
                    </mxGeometry>
                </mxCell>
                <mxCell id="219" value="" style="group" parent="1" vertex="1" connectable="0">
                    <mxGeometry x="630" y="32" width="170.93023255813955" height="27" as="geometry"/>
                </mxCell>
                <mxCell id="220" style="edgeStyle=none;html=1;endArrow=none;endFill=0;" parent="219" edge="1">
                    <mxGeometry relative="1" as="geometry">
                        <mxPoint y="26" as="targetPoint"/>
                        <mxPoint x="170.93023255813955" y="26" as="sourcePoint"/>
                    </mxGeometry>
                </mxCell>
                <mxCell id="221" style="edgeStyle=none;html=1;endArrow=none;endFill=0;" parent="219" edge="1">
                    <mxGeometry relative="1" as="geometry">
                        <mxPoint as="targetPoint"/>
                        <mxPoint y="27" as="sourcePoint"/>
                    </mxGeometry>
                </mxCell>
                <mxCell id="222" style="edgeStyle=none;html=1;endArrow=none;endFill=0;" parent="219" edge="1">
                    <mxGeometry relative="1" as="geometry">
                        <mxPoint as="targetPoint"/>
                        <mxPoint x="17" as="sourcePoint"/>
                    </mxGeometry>
                </mxCell>
                <mxCell id="223" value="" style="group" parent="1" vertex="1" connectable="0">
                    <mxGeometry x="630" y="-80" width="170.93023255813955" height="27" as="geometry"/>
                </mxCell>
                <mxCell id="224" style="edgeStyle=none;html=1;endArrow=none;endFill=0;" parent="223" edge="1">
                    <mxGeometry relative="1" as="geometry">
                        <mxPoint y="26" as="targetPoint"/>
                        <mxPoint x="170.93023255813955" y="26" as="sourcePoint"/>
                    </mxGeometry>
                </mxCell>
                <mxCell id="225" style="edgeStyle=none;html=1;endArrow=none;endFill=0;" parent="223" edge="1">
                    <mxGeometry relative="1" as="geometry">
                        <mxPoint as="targetPoint"/>
                        <mxPoint y="27" as="sourcePoint"/>
                    </mxGeometry>
                </mxCell>
                <mxCell id="226" style="edgeStyle=none;html=1;endArrow=none;endFill=0;" parent="223" edge="1">
                    <mxGeometry relative="1" as="geometry">
                        <mxPoint as="targetPoint"/>
                        <mxPoint x="17" as="sourcePoint"/>
                    </mxGeometry>
                </mxCell>
                <mxCell id="228" style="edgeStyle=none;html=1;endArrow=none;endFill=0;strokeColor=#CC0000;" parent="1" edge="1">
                    <mxGeometry relative="1" as="geometry">
                        <mxPoint x="601" y="-148" as="targetPoint"/>
                        <mxPoint x="784.9302325581396" y="-148" as="sourcePoint"/>
                    </mxGeometry>
                </mxCell>
                <mxCell id="229" style="edgeStyle=none;html=1;endArrow=none;endFill=0;strokeColor=#CC0000;" parent="1" edge="1">
                    <mxGeometry relative="1" as="geometry">
                        <mxPoint x="601" y="35" as="targetPoint"/>
                        <mxPoint x="602" y="-148" as="sourcePoint"/>
                    </mxGeometry>
                </mxCell>
                <mxCell id="236" style="edgeStyle=none;html=1;endArrow=none;endFill=0;fillColor=#e51400;strokeColor=#00FF80;" parent="1" edge="1">
                    <mxGeometry relative="1" as="geometry">
                        <mxPoint x="579.9581085883244" y="-54.501111111111186" as="targetPoint"/>
                        <mxPoint x="622" y="-54.5" as="sourcePoint"/>
                    </mxGeometry>
                </mxCell>
                <mxCell id="237" style="edgeStyle=none;html=1;endArrow=none;endFill=0;strokeColor=#00FF80;" parent="1" edge="1">
                    <mxGeometry relative="1" as="geometry">
                        <mxPoint x="622" y="-53.5" as="targetPoint"/>
                        <mxPoint x="622" y="-87.5" as="sourcePoint"/>
                    </mxGeometry>
                </mxCell>
                <mxCell id="238" style="edgeStyle=none;html=1;endArrow=none;endFill=0;strokeColor=#00FF80;" parent="1" edge="1">
                    <mxGeometry relative="1" as="geometry">
                        <mxPoint x="646" y="-87.5" as="targetPoint"/>
                        <mxPoint x="621" y="-87.5" as="sourcePoint"/>
                    </mxGeometry>
                </mxCell>
                <mxCell id="231" style="edgeStyle=none;html=1;endArrow=none;endFill=0;fillColor=#e1d5e7;strokeColor=#00FF80;" parent="1" edge="1">
                    <mxGeometry relative="1" as="geometry">
                        <mxPoint x="578.9581085883244" y="57.498888888888814" as="targetPoint"/>
                        <mxPoint x="621" y="57.5" as="sourcePoint"/>
                    </mxGeometry>
                </mxCell>
                <mxCell id="232" style="edgeStyle=none;html=1;endArrow=none;endFill=0;strokeColor=#00FF80;fillColor=#e1d5e7;" parent="1" edge="1">
                    <mxGeometry relative="1" as="geometry">
                        <mxPoint x="621" y="58.5" as="targetPoint"/>
                        <mxPoint x="621" y="24.5" as="sourcePoint"/>
                    </mxGeometry>
                </mxCell>
                <mxCell id="233" style="edgeStyle=none;html=1;endArrow=none;endFill=0;strokeColor=#00FF80;fillColor=#e1d5e7;" parent="1" edge="1">
                    <mxGeometry relative="1" as="geometry">
                        <mxPoint x="645" y="24.5" as="targetPoint"/>
                        <mxPoint x="620" y="24.5" as="sourcePoint"/>
                    </mxGeometry>
                </mxCell>
                <mxCell id="240" style="edgeStyle=none;html=1;endArrow=none;endFill=0;fillColor=#e51400;strokeColor=#00FF00;" parent="1" edge="1">
                    <mxGeometry relative="1" as="geometry">
                        <mxPoint x="578.9581085883244" y="162.9988888888888" as="targetPoint"/>
                        <mxPoint x="621" y="163" as="sourcePoint"/>
                    </mxGeometry>
                </mxCell>
                <mxCell id="241" style="edgeStyle=none;html=1;endArrow=none;endFill=0;strokeColor=#00FF00;" parent="1" edge="1">
                    <mxGeometry relative="1" as="geometry">
                        <mxPoint x="621" y="164" as="targetPoint"/>
                        <mxPoint x="621" y="130" as="sourcePoint"/>
                    </mxGeometry>
                </mxCell>
                <mxCell id="242" style="edgeStyle=none;html=1;endArrow=none;endFill=0;strokeColor=#00FF00;" parent="1" edge="1">
                    <mxGeometry relative="1" as="geometry">
                        <mxPoint x="645" y="130" as="targetPoint"/>
                        <mxPoint x="620" y="130" as="sourcePoint"/>
                    </mxGeometry>
                </mxCell>
                <mxCell id="243" style="edgeStyle=none;html=1;endArrow=none;endFill=0;fillColor=#e51400;strokeColor=#B20000;" parent="1" edge="1">
                    <mxGeometry relative="1" as="geometry">
                        <mxPoint x="578.9581085883244" y="34.998888888888814" as="targetPoint"/>
                        <mxPoint x="602" y="35" as="sourcePoint"/>
                    </mxGeometry>
                </mxCell>
                <mxCell id="244" style="edgeStyle=none;html=1;endArrow=none;endFill=0;fillColor=#e51400;strokeColor=#B20000;" parent="1" edge="1">
                    <mxGeometry relative="1" as="geometry">
                        <mxPoint x="578.9581085883244" y="140.9988888888888" as="targetPoint"/>
                        <mxPoint x="602" y="141" as="sourcePoint"/>
                    </mxGeometry>
                </mxCell>
                <mxCell id="246" value="" style="endArrow=none;html=1;strokeWidth=2;fillColor=#e51400;strokeColor=#B20000;" edge="1" parent="1">
                    <mxGeometry width="50" height="50" relative="1" as="geometry">
                        <mxPoint x="601" y="140" as="sourcePoint"/>
                        <mxPoint x="601" y="254" as="targetPoint"/>
                    </mxGeometry>
                </mxCell>
                <mxCell id="247" value="" style="endArrow=none;html=1;strokeWidth=2;fillColor=#e51400;strokeColor=#B20000;" edge="1" parent="1">
                    <mxGeometry width="50" height="50" relative="1" as="geometry">
                        <mxPoint x="823" y="236" as="sourcePoint"/>
                        <mxPoint x="823" y="255" as="targetPoint"/>
                    </mxGeometry>
                </mxCell>
                <mxCell id="248" value="" style="endArrow=none;html=1;strokeWidth=2;" edge="1" parent="1">
                    <mxGeometry width="50" height="50" relative="1" as="geometry">
                        <mxPoint x="840" y="279" as="sourcePoint"/>
                        <mxPoint x="840" y="237" as="targetPoint"/>
                    </mxGeometry>
                </mxCell>
                <mxCell id="249" value="" style="endArrow=none;html=1;strokeWidth=2;" edge="1" parent="1">
                    <mxGeometry width="50" height="50" relative="1" as="geometry">
                        <mxPoint x="841" y="280" as="sourcePoint"/>
                        <mxPoint x="668" y="280" as="targetPoint"/>
                    </mxGeometry>
                </mxCell>
                <mxCell id="250" value="" style="endArrow=none;html=1;strokeWidth=2;fillColor=#e51400;strokeColor=#B20000;" edge="1" parent="1">
                    <mxGeometry width="50" height="50" relative="1" as="geometry">
                        <mxPoint x="784" y="-161" as="sourcePoint"/>
                        <mxPoint x="784" y="-148" as="targetPoint"/>
                    </mxGeometry>
                </mxCell>
                <mxCell id="215" style="edgeStyle=none;html=1;endArrow=none;endFill=0;" parent="1" edge="1">
                    <mxGeometry relative="1" as="geometry">
                        <mxPoint x="630" y="163" as="targetPoint"/>
                        <mxPoint x="670" y="164" as="sourcePoint"/>
                    </mxGeometry>
                </mxCell>
                <mxCell id="216" style="edgeStyle=none;html=1;endArrow=none;endFill=0;" parent="1" edge="1">
                    <mxGeometry relative="1" as="geometry">
                        <mxPoint x="630" y="137" as="targetPoint"/>
                        <mxPoint x="630" y="164" as="sourcePoint"/>
                    </mxGeometry>
                </mxCell>
                <mxCell id="217" style="edgeStyle=none;html=1;endArrow=none;endFill=0;" parent="1" edge="1">
                    <mxGeometry relative="1" as="geometry">
                        <mxPoint x="630" y="137" as="targetPoint"/>
                        <mxPoint x="647" y="137" as="sourcePoint"/>
                    </mxGeometry>
                </mxCell>
            </root>
        </mxGraphModel>
    </diagram>
</mxfile>